SplineFontDB: 3.2
FontName: Wasabe-Thin
FullName: Wasabe Thin
FamilyName: Wasabe Thin
Weight: Thin
Copyright: Copyright (c) 2020 - Present The Teriyake Project Authors (https://github.com/keepsjh/teriyake)\nCopyright (c) 2025 - RandomMaerks (Bao Nguyen) (https://github.com/RandomMaerks/Wasabe)
Version: 001.000
ItalicAngle: 0
UnderlinePosition: -100
UnderlineWidth: 50
Ascent: 800
Descent: 200
InvalidEm: 0
sfntRevision: 0x00010000
LayerCount: 2
Layer: 0 0 "Back" 1
Layer: 1 0 "Fore" 0
XUID: [1021 366 1780442531 23779]
StyleMap: 0x0040
FSType: 0
OS2Version: 3
OS2_WeightWidthSlopeOnly: 0
OS2_UseTypoMetrics: 0
CreationTime: 1606590359
ModificationTime: 1762073725
PfmFamily: 33
TTFWeight: 100
TTFWidth: 5
LineGap: 0
VLineGap: 0
Panose: 0 0 2 0 0 0 0 0 0 0
OS2TypoAscent: 800
OS2TypoAOffset: 0
OS2TypoDescent: -200
OS2TypoDOffset: 0
OS2TypoLinegap: 200
OS2WinAscent: 1000
OS2WinAOffset: 0
OS2WinDescent: 200
OS2WinDOffset: 0
HheadAscent: 1000
HheadAOffset: 0
HheadDescent: -200
HheadDOffset: 0
OS2SubXSize: 650
OS2SubYSize: 600
OS2SubXOff: 0
OS2SubYOff: 75
OS2SupXSize: 650
OS2SupYSize: 600
OS2SupXOff: 0
OS2SupYOff: 350
OS2StrikeYSize: 50
OS2StrikeYPos: 300
OS2CapHeight: 700
OS2XHeight: 500
OS2Vendor: 'RDMK'
OS2CodePages: 20000093.00000000
OS2UnicodeRanges: 00000007.02000000.00000000.00000000
Lookup: 6 0 0 "'ccmp' Glyph Composition/Decomposition in Latin lookup 1" { "'ccmp' Glyph Composition/Decomposition in Latin lookup 1 contextual 0"  "'ccmp' Glyph Composition/Decomposition in Latin lookup 1 contextual 1"  } ['ccmp' ('DFLT' <'dflt' > 'latn' <'AZE ' 'CAT ' 'CRT ' 'KAZ ' 'MOL ' 'ROM ' 'TAT ' 'TRK ' 'dflt' > ) ]
Lookup: 1 0 0 "'locl' Localized Forms in Latin lookup 2" { "'locl' Localized Forms in Latin lookup 2 subtable"  } ['locl' ('latn' <'TRK ' > ) ]
Lookup: 1 0 0 "'locl' Localized Forms in Latin lookup 3" { "'locl' Localized Forms in Latin lookup 3 subtable"  } ['locl' ('latn' <'MOL ' > ) ]

StartChar: .notdef
Encoding: 65536 -1 0
GlifName: _notdef
Width: 790
GlyphClass: 1
Flags: W
HStem: -200 22<80 710> 778 22<80 710>
VStem: 58 22<-178 778> 710 22<-178 778>
LayerCount: 2
Fore
SplineSet
732 800 m 1
 732 -200 l 1
 58 -200 l 1
 58 800 l 1
 732 800 l 1
80 -178 m 1
 710 -178 l 1
 710 778 l 1
 80 778 l 1
 80 -178 l 1
EndSplineSet
EndChar

StartChar: exclam
Encoding: 33 33 2
GlifName: exclam
Width: 188
GlyphClass: 2
Flags: W
HStem: 0 48<70 118> 680 20G<84 105>
VStem: 70 48<0 48> 84 21<226 700>
LayerCount: 2
Fore
SplineSet
70 0 m 1xe0
 70 48 l 1
 118 48 l 1
 118 0 l 1
 70 0 l 1xe0
84 226 m 1xd0
 84 700 l 1
 105 700 l 1
 105 226 l 1
 84 226 l 1xd0
EndSplineSet
EndChar

StartChar: quotedbl
Encoding: 34 34 3
GlifName: quotedbl
Width: 184
GlyphClass: 2
Flags: W
HStem: 462 238<29 51 133 155>
VStem: 29 22<462 700> 133 22<462 700>
LayerCount: 2
Fore
SplineSet
133 462 m 1
 133 700 l 1
 155 700 l 1
 155 462 l 1
 133 462 l 1
29 462 m 1
 29 700 l 1
 51 700 l 1
 51 462 l 1
 29 462 l 1
EndSplineSet
EndChar

StartChar: numbersign
Encoding: 35 35 4
GlifName: numbersign
Width: 776
GlyphClass: 2
Flags: W
HStem: 0 21G<160 187.336 430 457.336> 226 22<63 209 237 479 507 658> 478 22<118 264 292 534 562 713> 680 20G<308.6 336 578.6 606>
LayerCount: 2
Fore
SplineSet
718 500 m 1
 713 478 l 1
 557 478 l 1
 507 248 l 1
 663 248 l 1
 658 226 l 1
 502 226 l 1
 453 0 l 1
 430 0 l 1
 479 226 l 1
 232 226 l 1
 183 0 l 1
 160 0 l 1
 209 226 l 1
 58 226 l 1
 63 248 l 1
 214 248 l 1
 264 478 l 1
 113 478 l 1
 118 500 l 1
 269 500 l 1
 313 700 l 1
 336 700 l 1
 292 500 l 1
 539 500 l 1
 583 700 l 1
 606 700 l 1
 562 500 l 1
 718 500 l 1
237 248 m 1
 484 248 l 1
 534 478 l 1
 287 478 l 1
 237 248 l 1
EndSplineSet
EndChar

StartChar: dollar
Encoding: 36 36 5
GlifName: dollar
Width: 614
GlyphClass: 2
Flags: W
HStem: -16 22<238.626 399.68> 693 22<224.768 381.076> 780 20G<311 333>
VStem: 50 22<178.455 250> 74 22<474.155 583.836> 311 22<-100 800> 528 21<502.667 551.768> 542 22<124.173 237.636>
LayerCount: 2
Fore
SplineSet
311 800 m 1xfc
 333 800 l 1
 333 -100 l 1
 311 -100 l 1
 311 800 l 1xfc
549 506 m 1xfe
 528 496 l 1xfe
 521.411813447 615.04296875 435.764559659 693 304 693 c 0
 178.979019657 693 96 627 96 529 c 0
 96 410.601741299 208.702129077 387.65875933 323.493621913 364.290441696 c 0
 442.621706177 340.039316082 564 315.330111124 564 183 c 0
 564 64 464.982489928 -16 317 -16 c 0
 157.016407522 -16 55.4050921213 87.90625 50 250 c 1
 72 256 l 1
 72 104.958007812 163.467002467 6 317 6 c 0
 452 6 542 77 542 183 c 0xfd
 542 296.241509252 432.407398351 318.580451652 319.288862665 341.638107141 c 0
 198.64961375 366.228756438 74 391.636863371 74 529 c 0
 74 641 166 715 304 715 c 0
 446.644668311 715 538.110831277 634.130859375 549 506 c 1xfe
EndSplineSet
EndChar

StartChar: percent
Encoding: 37 37 6
GlifName: percent
Width: 726
GlyphClass: 2
Flags: HW
HStem: 31 22<483.612 578.388> 283 22<483.612 578.388> 395 22<147.612 242.388> 647 22<147.612 242.388>
VStem: 58 22<484.612 579.388> 310 22<484.612 579.388> 394 22<120.612 215.388> 646 22<120.612 215.388>
LayerCount: 2
Fore
SplineSet
195 435 m 0
 119 435 58 496 58 572 c 0
 58 648 119 709 195 709 c 0
 271 709 332 648 332 572 c 0
 332 496 271 435 195 435 c 0
99 0 m 1
 598 700 l 1
 626 700 l 1
 127 0 l 1
 99 0 l 1
195 457 m 0
 259 457 310 508 310 572 c 0
 310 636 259 687 195 687 c 0
 131 687 80 636 80 572 c 0
 80 508 131 457 195 457 c 0
531 -9 m 0
 455 -9 394 52 394 128 c 0
 394 204 455 265 531 265 c 0
 607 265 668 204 668 128 c 0
 668 52 607 -9 531 -9 c 0
531 13 m 0
 595 13 646 64 646 128 c 0
 646 192 595 243 531 243 c 0
 467 243 416 192 416 128 c 0
 416 64 467 13 531 13 c 0
EndSplineSet
EndChar

StartChar: ampersand
Encoding: 38 38 7
GlifName: ampersand
Width: 652
GlyphClass: 2
Flags: W
HStem: -16 22<176.77 317.392> 0 21G<513 535> 350 22<190.279 513 535 628> 480 20G<513 535> 678 22<207.154 458>
VStem: 36 23<112.963 232.731> 66 22<459.756 573.115> 513 22<0 350 372 500>
LayerCount: 2
Fore
SplineSet
535 350 m 1xbf
 535 0 l 1
 513 0 l 1x7f
 513 234 l 1
 487.200144402 87.9772969828 376.9842096 -16 248 -16 c 0
 123.724280403 -16 36 61.3794360154 36 171 c 0
 36 260.44019935 101.264794278 348.271506812 197 363 c 1
 118.759467285 373.030837528 66 434.247929339 66 515 c 0
 66 623.604073887 153.545601816 700 278 700 c 2
 458 700 l 1
 458 678 l 1
 278 678 l 2
 164.966255536 678 88 611.971054461 88 515 c 0
 88 432.029997784 150.968529144 372 238 372 c 2
 513 372 l 1
 513 500 l 1
 535 500 l 1
 535 372 l 1
 628 372 l 1
 628 350 l 1
 535 350 l 1xbf
238 350 m 2
 130.193377591 350 59 269.204350775 59 172 c 0
 59 75.2446821977 137.838824912 6 248 6 c 0xbf
 401.593207557 6 513 150.618628681 513 350 c 1
 238 350 l 2
EndSplineSet
EndChar

StartChar: parenleft
Encoding: 40 40 8
GlifName: parenleft
Width: 202
GlyphClass: 2
Flags: W
HStem: 780 20G<124.468 174>
VStem: 58 22<185.457 514.543>
LayerCount: 2
Fore
SplineSet
152 800 m 1
 174 800 l 1
 118.936074863 712.132034356 80 525.735931288 80 350 c 0
 80 174.264068712 118.936074863 -12.132034356 174 -100 c 1
 152 -100 l 1
 96.9360748631 -12.132034356 58 174.264068712 58 350 c 0
 58 525.735931288 96.9360748631 712.132034356 152 800 c 1
EndSplineSet
EndChar

StartChar: parenright
Encoding: 41 41 9
GlifName: parenright
Width: 202
GlyphClass: 2
Flags: W
HStem: 780 20G<28 77.532>
VStem: 122 22<185.457 514.543>
LayerCount: 2
Fore
SplineSet
50 800 m 1
 105.063925137 712.132034356 144 525.735931288 144 350 c 0
 144 174.264068712 105.063925137 -12.132034356 50 -100 c 1
 28 -100 l 1
 83.0639251369 -12.132034356 122 174.264068712 122 350 c 0
 122 525.735931288 83.0639251369 712.132034356 28 800 c 1
 50 800 l 1
EndSplineSet
EndChar

StartChar: asterisk
Encoding: 42 42 10
GlifName: asterisk
Width: 474
GlyphClass: 2
Flags: W
HStem: 680 20G<226 248>
VStem: 226 22<300 480 519 700>
LayerCount: 2
Fore
SplineSet
405 610 m 1
 416 590 l 1
 260 500 l 1
 416 410 l 1
 404 390 l 1
 248 480 l 1
 248 300 l 1
 226 300 l 1
 226 480 l 1
 69 390 l 1
 58 410 l 1
 214 500 l 1
 58 590 l 1
 70 610 l 1
 226 519 l 1
 226 700 l 1
 248 700 l 1
 248 519 l 1
 405 610 l 1
EndSplineSet
EndChar

StartChar: plus
Encoding: 43 43 11
GlifName: plus
Width: 516
GlyphClass: 2
Flags: W
HStem: 293 22<58 247 269 458> 484 20G<247 269>
VStem: 247 22<104 293 315 504>
LayerCount: 2
Fore
SplineSet
269 315 m 1
 458 315 l 1
 458 293 l 1
 269 293 l 1
 269 104 l 1
 247 104 l 1
 247 293 l 1
 58 293 l 1
 58 315 l 1
 247 315 l 1
 247 504 l 1
 269 504 l 1
 269 315 l 1
EndSplineSet
EndChar

StartChar: comma
Encoding: 44 44 12
GlifName: comma
Width: 179
GlyphClass: 2
Flags: W
HStem: -110 20<58 94.9486> 0 48<73 101>
VStem: 73 48<0 48> 101 20<-83.974 0>
LayerCount: 2
Fore
SplineSet
73 0 m 1xe0
 73 48 l 1
 121 48 l 1xe0
 121 -58 l 2
 121 -91.9444444444 102.773584906 -110 75 -110 c 2
 58 -110 l 1
 58 -90 l 1
 75 -90 l 2
 90.935483871 -90 101 -79.76 101 -58 c 2
 101 0 l 1xd0
 73 0 l 1xe0
EndSplineSet
EndChar

StartChar: hyphen
Encoding: 45 45 13
GlifName: hyphen
Width: 376
GlyphClass: 2
Flags: W
HStem: 273 22<58 318>
VStem: 58 260<273 295>
LayerCount: 2
Fore
SplineSet
58 273 m 5
 58 295 l 5
 318 295 l 5
 318 273 l 5
 58 273 l 5
EndSplineSet
EndChar

StartChar: period
Encoding: 46 46 14
GlifName: period
Width: 164
GlyphClass: 2
Flags: W
HStem: 0 48<58 106>
VStem: 58 48<0 48>
LayerCount: 2
Fore
SplineSet
58 0 m 1
 58 48 l 1
 106 48 l 1
 106 0 l 1
 58 0 l 1
EndSplineSet
EndChar

StartChar: slash
Encoding: 47 47 15
GlifName: slash
Width: 341
GlyphClass: 2
Flags: W
VStem: 30 281
LayerCount: 2
Fore
SplineSet
30 -80 m 1
 288 740 l 1
 311 740 l 1
 53 -80 l 1
 30 -80 l 1
EndSplineSet
EndChar

StartChar: zero
Encoding: 48 48 16
GlifName: zero
Width: 604
GlyphClass: 2
Flags: W
HStem: -16 22<237.177 366.823> 694 22<237.177 366.823>
VStem: 50 22<236.102 465.365> 532 22<236.102 465.365>
LayerCount: 2
Fore
SplineSet
50 351 m 4
 50 590 157 716 302 716 c 4
 447 716 554 590 554 351 c 4
 554 111 447 -16 302 -16 c 4
 157 -16 50 111 50 351 c 4
72 351 m 4
 72 124 170 6 302 6 c 4
 434 6 532 124 532 351 c 4
 532 577 434 694 302 694 c 4
 170 694 72 577 72 351 c 4
EndSplineSet
Substitution2: "'zero' Slashed Zero in Latin lookup 7 subtable" zero.zero
EndChar

StartChar: one
Encoding: 49 49 17
GlifName: one
Width: 355
GlyphClass: 2
Flags: W
HStem: 0 21G<215 237> 546 23<50 159.164> 680 20G<215 237>
VStem: 215 22<0 700> 215 13<576.105 689>
LayerCount: 2
Fore
SplineSet
237 0 m 1xf0
 215 0 l 1
 215 689 l 1xf0
 228 689 l 1xe8
 228 576.105263158 186.293023256 546 81 546 c 2
 50 546 l 1
 50 569 l 1
 77 569 l 2
 164.609090909 569 215 583.433211609 215 695 c 2
 215 700 l 1
 237 700 l 1
 237 0 l 1xf0
EndSplineSet
EndChar

StartChar: two
Encoding: 50 50 18
GlifName: two
Width: 555
GlyphClass: 2
Flags: W
HStem: 0 22<80 505> 694 22<200.76 332.065>
VStem: 50 21<498 559.408> 452.084 22.3182<475.118 586.413>
LayerCount: 2
Fore
SplineSet
404 377 m 2
 80 22 l 1
 505 22 l 1
 505 0 l 1
 51 0 l 1
 51 22 l 1
 388 392 l 2
 430.130019812 437.986993457 452.084126133 486.357763996 452.084126133 533.19447702 c 0
 452.084126133 622.41392846 369.689907025 694 267 694 c 0
 150.517273596 694 71 611.642823776 71 491 c 1
 50 498 l 1
 53.510344862 627.882759893 141.223377446 716 267 716 c 0
 380.986812427 716 474.40233961 633.999419337 474.40233961 533.941269598 c 0
 474.40233961 481.526920119 450.259460362 427.707485396 404 377 c 2
EndSplineSet
EndChar

StartChar: three
Encoding: 51 51 19
GlifName: three
Width: 551
GlyphClass: 2
Flags: W
HStem: -16 22<204.657 350.336> 349 22<226 365.242> 694 22<209.873 343.64>
VStem: 50 21<153.107 203.333 496.818 542.095> 463 22<463.804 584.507> 479 22<125.714 252.016>
LayerCount: 2
Fore
SplineSet
353 363 m 1xf8
 449.884615385 348.687861272 501 283.647398844 501 187 c 0
 501 75 417 -16 275 -16 c 0
 148 -16 58 69 50 200 c 1
 71 210 l 1
 79 86 153 6 275 6 c 0
 405 6 479 87 479 187 c 0xf4
 479 307 399.534883721 349 278 349 c 2
 226 349 l 1
 226 371 l 1
 278 371 l 2
 392.894736842 371 463 417 463 529 c 0
 463 618 389 694 277 694 c 0
 159 694 78 606 72 490 c 1
 51 500 l 1
 60 623 150 716 277 716 c 0
 402 716 485 631 485 529 c 0
 485 446.49112426 441.3125 373.627218935 353 363 c 1xf8
EndSplineSet
EndChar

StartChar: four
Encoding: 52 52 20
GlifName: four
Width: 612
GlyphClass: 2
Flags: W
HStem: 0 21G<415 437> 166 22<73 415 437 562> 680 20G<400.586 437>
VStem: 415 22<0 166 188 663>
LayerCount: 2
Fore
SplineSet
415 166 m 1
 46 166 l 1
 46 188 l 1
 415 700 l 1
 437 700 l 1
 437 188 l 1
 562 188 l 1
 562 166 l 1
 437 166 l 1
 437 0 l 1
 415 0 l 1
 415 166 l 1
415 663 m 1
 73 188 l 1
 415 188 l 1
 415 663 l 1
EndSplineSet
EndChar

StartChar: five
Encoding: 53 53 21
GlifName: five
Width: 570
GlyphClass: 2
Flags: W
HStem: -16 22<210.65 348.533> 444 22<234.297 372.909> 678 22<137 482>
VStem: 50 21<148.643 183.333> 498 22<160.927 309.003>
LayerCount: 2
Fore
SplineSet
50 181 m 1
 71 188 l 1
 91 78 166 6 280 6 c 0
 409 6 498 107 498 236 c 0
 498 343 435 444 309 444 c 0
 180.611374408 444 115.341232227 358.727272727 94 316 c 5
 64 322 l 1
 118 700 l 1
 482 700 l 1
 482 678 l 1
 137 678 l 1
 88 338 l 1
 109 385 186 466 309 466 c 0
 442 466 520 361 520 236 c 0
 520 95 422 -16 280 -16 c 0
 158 -16 72 62 50 181 c 1
EndSplineSet
EndChar

StartChar: six
Encoding: 54 54 22
GlifName: six
Width: 592
GlyphClass: 2
Flags: W
HStem: -16 22<237.246 377.846> 444 22<244.05 381.275> 694 22<258.969 401.977>
VStem: 50 22.2274<283.359 465.042> 520 22<157.847 302.757 545.909 576.6>
LayerCount: 2
Fore
SplineSet
50 356 m 0
 50 576 164.104477612 716 328 716 c 0
 453.937172775 716 524.638743455 638.620689655 539 551 c 1
 520 535 l 1
 508.720930233 617.35971223 455.255813953 694 328 694 c 0
 180.997184033 694 72.2273601674 568.707974868 72.2273601674 359.472795829 c 0
 72.2273601674 334.488600442 73.7782100109 308.307536085 77 281 c 1
 90 375 181 466 312 466 c 0
 444 466 542 373 542 233 c 0
 542 91 453 -16 309 -16 c 0
 159 -16 50 86 50 356 c 0
90.1797498262 231.876028705 m 0
 90.1797498262 145.648388113 141.834583348 6 309 6 c 0
 441 6 520 103 520 233 c 0
 520 360 431 444 312 444 c 0
 187.553035245 444 90.1797498262 350.144578298 90.1797498262 231.876028705 c 0
EndSplineSet
EndChar

StartChar: seven
Encoding: 55 55 23
GlifName: seven
Width: 518
GlyphClass: 2
Flags: W
HStem: 0 21G<208 230> 678 22<30 454>
VStem: 208 22<0 175.678>
LayerCount: 2
Fore
SplineSet
454 678 m 1
 30 678 l 1
 30 700 l 1
 488 700 l 1
 488 678 l 1
 279 487 230 386 230 0 c 1
 208 0 l 1
 208 341 236 476 454 678 c 1
EndSplineSet
EndChar

StartChar: eight
Encoding: 56 56 24
GlifName: eight
Width: 594
GlyphClass: 2
Flags: W
HStem: -16 22<213.923 379.883> 357 22<222.438 371.562> 694 22<222.615 371.385>
VStem: 50 22<124.016 237.674> 76 22<479.224 587.24> 496 22<479.224 587.24> 522 22<124.016 237.674>
LayerCount: 2
Fore
SplineSet
50 181 m 0
 50 275 110 337 220 368 c 1
 117 394 76 462 76 534 c 0
 76 631 163 716 297 716 c 0
 431 716 518 631 518 534 c 0
 518 462 477 394 374 368 c 1
 484 337 544 275 544 181 c 0
 544 67 445 -16 297 -16 c 0
 148 -16 50 67 50 181 c 0
98 534 m 0
 98 438 181 379 297 379 c 0
 411 379 496 438 496 534 c 0
 496 619 419 694 297 694 c 0
 175 694 98 619 98 534 c 0
72 181 m 0
 72 79 161 6 297 6 c 0
 433 6 522 79 522 181 c 0
 522 301 402 357 297 357 c 0
 192 357 72 301 72 181 c 0
EndSplineSet
EndChar

StartChar: nine
Encoding: 57 57 25
GlifName: nine
Width: 592
GlyphClass: 2
Flags: W
HStem: -16 22<190.023 333.031> 234 22<210.725 347.95> 694 22<214.154 354.754>
VStem: 50 22<123.4 154.091 397.243 542.153> 519.772 22.2275<234.958 416.641>
LayerCount: 2
Fore
SplineSet
542 344 m 0
 542 124 427.895522388 -16 264 -16 c 0
 138.062827225 -16 67.3612565445 61.3793103448 53 149 c 1
 72 165 l 1
 83.2790697674 82.6402877698 136.744186047 6 264 6 c 0
 411.002713149 6 519.772460938 131.292077409 519.772460938 340.52734375 c 0
 519.772460938 365.511494697 518.221669225 391.692512486 515 419 c 1
 502 325 411 234 280 234 c 0
 148 234 50 327 50 467 c 0
 50 609 139 716 283 716 c 0
 433 716 542 614 542 344 c 0
501.8203125 468.124023438 m 0
 501.8203125 554.351644124 450.165464265 694 283 694 c 0
 151 694 72 597 72 467 c 0
 72 340 161 256 280 256 c 0
 404.446999722 256 501.8203125 349.855444773 501.8203125 468.124023438 c 0
EndSplineSet
EndChar

StartChar: colon
Encoding: 58 58 26
GlifName: colon
Width: 164
GlyphClass: 2
Flags: W
HStem: 0 48<58 106> 332 48<58 106>
VStem: 58 48<0 48 332 380>
LayerCount: 2
Fore
SplineSet
58 332 m 1
 58 380 l 1
 106 380 l 1
 106 332 l 1
 58 332 l 1
58 0 m 1
 58 48 l 1
 106 48 l 1
 106 0 l 1
 58 0 l 1
EndSplineSet
EndChar

StartChar: semicolon
Encoding: 59 59 27
GlifName: semicolon
Width: 179
GlyphClass: 2
Flags: W
HStem: -110 20<58 94.9486> 0 48<73 101> 332 48<73 121>
VStem: 73 48<0 48 332 380> 101 20<-83.974 0>
LayerCount: 2
Fore
SplineSet
73 332 m 1xf0
 73 380 l 1
 121 380 l 1
 121 332 l 1
 73 332 l 1xf0
73 0 m 1
 73 48 l 1
 121 48 l 1xf0
 121 -58 l 2
 121 -91.9444444444 102.773584906 -110 75 -110 c 2
 58 -110 l 1
 58 -90 l 1
 75 -90 l 2
 90.935483871 -90 101 -79.76 101 -58 c 2
 101 0 l 1xe8
 73 0 l 1
EndSplineSet
EndChar

StartChar: less
Encoding: 60 60 28
GlifName: less
Width: 463
GlyphClass: 2
Flags: W
HStem: 483 20G<366.828 405>
LayerCount: 2
Fore
SplineSet
50 317 m 1
 405 503 l 1
 405 479 l 1
 78 306 l 1
 405 133 l 1
 405 109 l 1
 50 295 l 1
 50 317 l 1
EndSplineSet
EndChar

StartChar: equal
Encoding: 61 61 29
GlifName: equal
Width: 464
GlyphClass: 2
Flags: W
HStem: 210 22<58 406> 380 22<58 406>
LayerCount: 2
Fore
SplineSet
58 380 m 1
 58 402 l 1
 406 402 l 1
 406 380 l 1
 58 380 l 1
58 210 m 1
 58 232 l 1
 406 232 l 1
 406 210 l 1
 58 210 l 1
EndSplineSet
EndChar

StartChar: greater
Encoding: 62 62 30
GlifName: greater
Width: 463
GlyphClass: 2
Flags: W
HStem: 483 20G<58 96.172>
LayerCount: 2
Fore
SplineSet
58 479 m 1
 58 503 l 1
 413 317 l 1
 413 295 l 1
 58 109 l 1
 58 133 l 1
 385 306 l 1
 58 479 l 1
EndSplineSet
EndChar

StartChar: question
Encoding: 63 63 31
GlifName: question
Width: 496
GlyphClass: 2
Flags: HW
HStem: 0 48<240 288> 694 22<186.66 318.32>
VStem: 36 21<498 559.979> 240 48<0 48> 438 22<480.22 584.494>
LayerCount: 2
Fore
SplineSet
240 0 m 1
 240 48 l 1
 288 48 l 1
 288 0 l 1
 240 0 l 1
251 232 m 1
 251 423.176079734 438 394.867087147 438 543 c 0
 438 627.038126781 357.290987246 694 256 694 c 0
 136.288160079 694 57 617.102437712 57 501 c 1
 36 508 l 1
 39.5990577285 631.065961843 129.433136549 716 256 716 c 0
 369.490406572 716 460 639.687989855 460 544 c 0
 460 380.708609272 272 411.721854305 272 232 c 1
 251 232 l 1
EndSplineSet
EndChar

StartChar: at
Encoding: 64 64 32
GlifName: at
Width: 924
GlyphClass: 2
Flags: HW
HStem: -117 22<341.544 704> 50 22<653.216 730.462> 85 22<372.168 476.624> 471 22<371.968 476.128> 699 22<353.739 527.293>
VStem: 50 22<189.883 390.784> 251 22<219.841 355.724> 580 22<130.647 187 224.702 355.052 379 477> 792 22<172.642 395.92>
LayerCount: 2
Fore
SplineSet
50 290 m 0
 50 540.340994401 226.467381339 721 471 721 c 0
 710.539887608 721 874 546.182857466 874 290 c 0
 874 157.113572911 817.716235777 85 714 85 c 0
 653.407444845 85 610 127.57268629 610 187 c 1
 582.468037432 127.249783362 518.679148826 85 456 85 c 0
 352.991902701 85 281 169.333371736 281 290 c 0
 281 404.591420854 357.214292367 493 456 493 c 0
 526.728734572 493 586.830242123 448.509273631 610 379 c 1
 610 477 l 1
 632 477 l 1
 632 193 l 2
 632 144.602844883 666.979390589 107 712 107 c 0
 804.122429089 107 852 169.582824834 852 290 c 0
 852 533.686690231 698.003982831 699 471 699 c 0
 238.995924971 699 72 527.818713501 72 290 c 0
 72 68.2579862476 232.713705942 -95 451 -95 c 2
 754 -95 l 1
 754 -117 l 1
 451 -117 l 2
 219.152318878 -117 50 54.6832762676 50 290 c 0
456 107 m 0
 541.567815947 107 610 188.318764167 610 290 c 0
 610 390.020832096 541.100597474 471 456 471 c 0
 369.223415897 471 303 392.657266162 303 290 c 0
 303 182.361655626 366.007285852 107 456 107 c 0
EndSplineSet
EndChar

StartChar: A
Encoding: 65 65 33
GlifName: A_
Width: 694
GlyphClass: 2
Flags: W
HStem: 0 21G<26 60.7667 633.233 668> 238 22<146 545> 680 20G<327.143 366.857>
AnchorPoint: "Anchor-2" 347 716 basechar 0
AnchorPoint: "Anchor-1" 656 -1 basechar 0
AnchorPoint: "Anchor-0" 347 0 basechar 0
LayerCount: 2
Fore
SplineSet
146 260 m 1
 545 260 l 1
 545 238 l 1
 146 238 l 1
 146 260 l 1
347 673 m 1
 52 0 l 1
 26 0 l 1
 336 700 l 1
 358 700 l 1
 668 0 l 1
 642 0 l 1
 347 673 l 1
EndSplineSet
EndChar

StartChar: B
Encoding: 66 66 34
GlifName: B_
Width: 648
GlyphClass: 2
Flags: W
HStem: 0 22<92 467.185> 350 22<92 461.855> 678 22<92 439.15>
VStem: 70 22<22 350 372 678> 540 22<469.25 580.937> 580 22<126.577 244.004>
AnchorPoint: "Anchor-2" 319 716 basechar 0
AnchorPoint: "Anchor-0" 319 0 basechar 0
LayerCount: 2
Fore
SplineSet
398 0 m 2
 70 0 l 1
 70 700 l 1
 378 700 l 2
 499.626953125 700 562 611 562 525 c 0
 562 454.881835938 514 380.7890625 442 366 c 1
 549.733398438 356.3515625 602 265.29296875 602 180 c 0
 602 89.5078125 533.61328125 -0 398 0 c 2
92 678 m 1
 92 372 l 1
 375 372 l 2
 484.645507812 372 540 449 540 525 c 0
 540 601 484.645507812 678 375 678 c 2
 92 678 l 1
92 350 m 1
 92 22 l 1
 396 22 l 2
 519.064453125 22 580 102.5 580 183 c 0
 580 266.5 522.376953125 350 406 350 c 2
 92 350 l 1
EndSplineSet
EndChar

StartChar: C
Encoding: 67 67 35
GlifName: C_
Width: 734
GlyphClass: 2
Flags: W
HStem: -16 22<298.296 467.58> 694 22<298.458 467.805>
VStem: 50 23<252.285 450.405> 661 23<184.046 227.13 474.773 519.189>
AnchorPoint: "Anchor-2" 379 716 basechar 0
AnchorPoint: "Anchor-0" 379 0 basechar 0
LayerCount: 2
Fore
SplineSet
661 232 m 1
 684 225 l 1
 660.803710938 73.4892578125 547.549804688 -16 379 -16 c 0
 179.24609375 -16 50 128.567382812 50 352 c 0
 50 572.171875 179.999023438 716 379 716 c 0
 547.04296875 716 660.73828125 626.907226562 684 477 c 1
 662 470 l 1
 644.290039062 607.802734375 535.387695312 694 379 694 c 0
 195.259765625 694 73 557.357421875 73 352 c 0
 73 143.939453125 194.993164062 6 379 6 c 0
 533.49609375 6 645.282226562 95.587890625 661 232 c 1
EndSplineSet
EndChar

StartChar: D
Encoding: 68 68 36
GlifName: D_
Width: 732
GlyphClass: 2
Flags: W
HStem: 0 22<92 439.121> 678 22<92 439.121>
VStem: 70 22<22 678> 660 22<260.203 440.718>
AnchorPoint: "Anchor-3" 92 350 basechar 0
AnchorPoint: "Anchor-2" 311 716 basechar 0
AnchorPoint: "Anchor-0" 311 0 basechar 0
LayerCount: 2
Fore
SplineSet
361 0 m 6
 70 0 l 5
 70 700 l 5
 361 700 l 6
 575.475585938 700 682 526 682 351 c 4
 682 176 574.904296875 0 361 0 c 6
92 678 m 5
 92 22 l 5
 361 22 l 6
 560.140625 22 660 186 660 350 c 4
 660 514 560.140625 678 361 678 c 6
 92 678 l 5
EndSplineSet
EndChar

StartChar: E
Encoding: 69 69 37
GlifName: E_
Width: 616
GlyphClass: 2
Flags: W
HStem: 0 23<88 576> 351 22<88 484> 678 22<88 560>
VStem: 66 22<23 351 373 678>
AnchorPoint: "Anchor-2" 331 716 basechar 0
AnchorPoint: "Anchor-1" 564 7 basechar 0
AnchorPoint: "Anchor-0" 341 0 basechar 0
LayerCount: 2
Fore
SplineSet
576 0 m 1
 66 0 l 1
 66 700 l 1
 560 700 l 1
 560 678 l 1
 88 678 l 1
 88 373 l 1
 484 373 l 1
 484 351 l 1
 88 351 l 1
 88 23 l 1
 576 23 l 1
 576 0 l 1
EndSplineSet
EndChar

StartChar: F
Encoding: 70 70 38
GlifName: F_
Width: 600
GlyphClass: 2
Flags: W
HStem: 0 21G<66 88> 326 22<88 484> 678 22<88 560>
VStem: 66 22<0 326 348 678>
LayerCount: 2
Fore
SplineSet
88 0 m 1
 66 0 l 1
 66 700 l 1
 560 700 l 1
 560 678 l 1
 88 678 l 1
 88 348 l 1
 484 348 l 1
 484 326 l 1
 88 326 l 1
 88 0 l 1
EndSplineSet
EndChar

StartChar: G
Encoding: 71 71 39
GlifName: G_
Width: 751
GlyphClass: 2
Flags: W
HStem: -16 22<298.609 453.119> 0 21G<663 685> 318 22<348 657> 694 22<303.725 469.589>
VStem: 50 22<252.819 435.575> 663 22<0 234 257.915 318 490.667 512.352>
AnchorPoint: "Anchor-2" 379 716 basechar 0
AnchorPoint: "Anchor-0" 379 0 basechar 0
LayerCount: 2
Fore
SplineSet
50 352 m 0xbc
 50 552.131835938 198.112304688 716 379 716 c 0
 536.159179688 716 649.223632812 633.333984375 684 493 c 1
 661 485 l 1
 629.623046875 615.743164062 529.032226562 694 379 694 c 0
 210.108398438 694 72 540.146484375 72 352 c 0
 72 144.329101562 194.737304688 6 379 6 c 0xbc
 531.338103818 6 657 127.03125 657 318 c 1
 348 318 l 1
 348 340 l 1
 685 340 l 1
 685 0 l 1
 663 0 l 1x7c
 663 234 l 1
 626.734375 68.3422478074 512.177734375 -16 379 -16 c 0
 181.73828125 -16 50 131.354492188 50 352 c 0xbc
EndSplineSet
EndChar

StartChar: H
Encoding: 72 72 40
GlifName: H_
Width: 670
GlyphClass: 2
Flags: W
HStem: 0 21G<70 92 578 600> 353 22<92 578> 680 20G<70 92 578 600>
VStem: 70 22<0 353 375 700> 578 22<0 353 375 700>
AnchorPoint: "Anchor-3" 335 540 basechar 0
AnchorPoint: "Anchor-2" 335 717 basechar 0
AnchorPoint: "Anchor-0" 335 0 basechar 0
LayerCount: 2
Fore
SplineSet
92 0 m 1
 70 0 l 1
 70 700 l 1
 92 700 l 1
 92 375 l 1
 578 375 l 1
 578 700 l 1
 600 700 l 1
 600 0 l 1
 578 0 l 1
 578 353 l 1
 92 353 l 1
 92 0 l 1
EndSplineSet
EndChar

StartChar: I
Encoding: 73 73 41
GlifName: I_
Width: 162
GlyphClass: 2
Flags: W
HStem: 0 21G<70 92> 680 20G<70 92>
VStem: 70 22<0 700>
AnchorPoint: "Anchor-2" 83 716 basechar 0
AnchorPoint: "Anchor-1" 80 7 basechar 0
AnchorPoint: "Anchor-0" 81 0 basechar 0
LayerCount: 2
Fore
SplineSet
70 0 m 5
 70 700 l 5
 92 700 l 5
 92 0 l 5
 70 0 l 5
EndSplineSet
EndChar

StartChar: J
Encoding: 74 74 42
GlifName: J_
Width: 350
GlyphClass: 2
Flags: W
HStem: 0 22<46 239.702> 680 20G<262 284>
VStem: 262 22<43.5805 700>
AnchorPoint: "Anchor-2" 273 716 basechar 0
AnchorPoint: "Anchor-0" 175 0 basechar 0
LayerCount: 2
Fore
SplineSet
262 86 m 2
 262 700 l 1
 284 700 l 1
 284 82 l 2
 284 24.7412109375 250.5 -0 199 0 c 2
 46 0 l 5
 46 22 l 1
 194 22 l 2
 242 22 262 41.0478515625 262 86 c 2
EndSplineSet
EndChar

StartChar: K
Encoding: 75 75 43
GlifName: K_
Width: 615
GlyphClass: 2
Flags: W
HStem: 0 21G<70 92 535.486 585> 350 22<92 230> 680 20G<70 92 520.341 568>
VStem: 70 22<0 350 372 700>
AnchorPoint: "Anchor-2" 315 716 basechar 0
AnchorPoint: "Anchor-0" 315 0 basechar 0
LayerCount: 2
Fore
SplineSet
92 0 m 1
 70 0 l 1
 70 700 l 1
 92 700 l 1
 92 372 l 1
 233 372 l 1
 539 700 l 1
 568 700 l 1
 251 361 l 1
 585 0 l 1
 554 0 l 1
 230 350 l 1
 92 350 l 1
 92 0 l 1
EndSplineSet
EndChar

StartChar: L
Encoding: 76 76 44
GlifName: L_
Width: 612
GlyphClass: 2
Flags: HW
HStem: 0 22<92 566> 680 20G<70 92>
VStem: 70 22<22 700>
AnchorPoint: "Anchor-2" 225 532 basechar 0
AnchorPoint: "Anchor-4" 710 700 basechar 0
AnchorPoint: "Anchor-3" 449 350 basechar 0
AnchorPoint: "Anchor-0" 321 0 basechar 0
LayerCount: 2
Fore
SplineSet
566 0 m 1
 70 0 l 1
 70 700 l 1
 92 700 l 1
 92 22 l 1
 566 22 l 1
 566 0 l 1
EndSplineSet
EndChar

StartChar: M
Encoding: 77 77 45
GlifName: M_
Width: 886
GlyphClass: 2
Flags: W
HStem: 0 21G<70 92 418.088 467.912 794 816> 680 20G<70 115.897 770.103 816>
VStem: 70 22<0 678> 794 22<0 678>
LayerCount: 2
Fore
SplineSet
92 0 m 1
 70 0 l 1
 70 700 l 1
 106 700 l 1
 443 19 l 1
 780 700 l 1
 816 700 l 1
 816 0 l 1
 794 0 l 1
 794 678 l 1
 458 0 l 1
 428 0 l 1
 92 678 l 1
 92 0 l 1
EndSplineSet
EndChar

StartChar: N
Encoding: 78 78 46
GlifName: N_
Width: 670
GlyphClass: 2
Flags: W
HStem: 0 21G<70 92 554.846 600> 680 20G<70 115.154 578 600>
VStem: 70 22<0 674> 578 22<26 700>
AnchorPoint: "Anchor-2" 345 716 basechar 0
AnchorPoint: "Anchor-0" 345 0 basechar 0
LayerCount: 2
Fore
SplineSet
92 0 m 1
 70 0 l 1
 70 700 l 1
 101 700 l 1
 578 26 l 1
 578 700 l 1
 600 700 l 1
 600 0 l 1
 569 0 l 1
 92 674 l 1
 92 0 l 1
EndSplineSet
EndChar

StartChar: O
Encoding: 79 79 47
GlifName: O_
Width: 793
GlyphClass: 2
Flags: W
HStem: -16 22<311.694 482.083> 692 22<307.336 482.083>
VStem: 50 22<255.627 443.741> 721 22<255.627 443.741>
AnchorPoint: "Anchor-4" 501 700 basechar 0
AnchorPoint: "Anchor-3" 397 350 basechar 0
AnchorPoint: "Anchor-2" 397 716 basechar 0
AnchorPoint: "Anchor-1" 397 0 basechar 0
AnchorPoint: "Anchor-0" 397 0 basechar 0
LayerCount: 2
Fore
SplineSet
72 350 m 0
 72 144 199.719726562 6 397 6 c 0
 593.225585938 6 721 144 721 350 c 0
 721 555 593.225585938 692 397 692 c 0
 199.719726562 692 72 555 72 350 c 0
50 350 m 0
 50 568 189.026367188 714 397 714 c 0
 605.052734375 714 743 568 743 350 c 0
 743 130 605.052734375 -16 397 -16 c 0
 189.026367188 -16 50 130 50 350 c 0
EndSplineSet
EndChar

StartChar: P
Encoding: 80 80 48
GlifName: P_
Width: 655
GlyphClass: 2
Flags: W
HStem: 0 21G<70 92> 262 22<92 442.729> 678 22<92 442.729>
VStem: 70 22<0 262 284 678> 587 22<418.751 543.249>
LayerCount: 2
Fore
SplineSet
92 0 m 5
 70 0 l 5
 70 700 l 5
 368 700 l 6
 528.666992188 700 609 589.9765625 609 481 c 4
 609 372.0234375 528.666992188 262 368 262 c 6
 92 262 l 5
 92 0 l 5
92 678 m 5
 92 284 l 5
 368 284 l 6
 514.815429688 284 587 381.973632812 587 481 c 4
 587 580.026367188 514.815429688 678 368 678 c 6
 92 678 l 5
EndSplineSet
EndChar

StartChar: Q
Encoding: 81 81 49
GlifName: Q_
Width: 793
GlyphClass: 2
Flags: W
HStem: 0 22<310.222 743> 692 22<307.716 486.246>
VStem: 50 22<265.754 449.617> 721 22<266.497 449.617>
LayerCount: 2
Fore
SplineSet
50 358 m 0
 50 571.208984375 189.026367188 714 397 714 c 0
 605.052734375 714 743 571.208984375 743 358 c 0
 743 233.953125 683.430664062 59.1162109375 494 22 c 1
 743 22 l 1
 743 0 l 1
 397 0 l 2
 189.026367188 0 50 142.80859375 50 358 c 0
72 358 m 0
 72 156.791015625 200.859375 22 397 22 c 0
 590.943359375 22 721 154.836914062 721 358 c 0
 721 558.205078125 592.084960938 692 397 692 c 0
 202 692 72 558.205078125 72 358 c 0
EndSplineSet
EndChar

StartChar: R
Encoding: 82 82 50
GlifName: R_
Width: 678
GlyphClass: 2
Flags: W
HStem: 0 21G<70 92 590 612> 304 22<92 490.795> 678 22<92 470.762>
VStem: 70 22<0 304 326 678> 590 22<0 218.773 445.02 557.684>
AnchorPoint: "Anchor-2" 338 716 basechar 0
AnchorPoint: "Anchor-0" 338 0 basechar 0
LayerCount: 2
Fore
SplineSet
92 678 m 1
 92 326 l 1
 388 326 l 2
 505.461914062 326 588.520507812 397.666992188 588.520507812 499.018554688 c 0
 588.520507812 603.86328125 513.74609375 678 408 678 c 2
 92 678 l 1
92 0 m 1
 70 0 l 1
 70 700 l 1
 408 700 l 2
 527.021484375 700 609.168945312 617.807617188 609.168945312 498.720703125 c 0
 609.168945312 405.3203125 545.827148438 331.956054688 454 319 c 1
 573.556640625 315.182405956 612 267.738636364 612 111 c 2
 612 0 l 1
 590 0 l 1
 590 111 l 2
 590 274.228142989 558.83984375 304 388 304 c 2
 92 304 l 1
 92 0 l 1
EndSplineSet
EndChar

StartChar: S
Encoding: 83 83 51
GlifName: S_
Width: 694
GlyphClass: 2
Flags: W
HStem: -16 22<262.635 453.716> 693 22<247.042 437.581>
VStem: 50 22<182.973 250> 74 22<476.675 579.553> 608 21<502.667 546.303> 622 22<128.768 233.27>
AnchorPoint: "Anchor-2" 343 716 basechar 0
AnchorPoint: "Anchor-0" 357 0 basechar 0
LayerCount: 2
Fore
SplineSet
629 506 m 5xf8
 608 496 l 5xf8
 600.235351562 615.04296875 499.293945312 693 344 693 c 4
 194.936523438 693 96 627 96 529 c 4
 96 410.97390964 227.190714679 387.720702781 361.263671875 364.502929688 c 4
 501.11328125 340.284798265 644 315.541241389 644 183 c 4
 644 64 528.947265625 -16 357 -16 c 4
 173.048828125 -16 56.21484375 87.90625 50 250 c 5
 72 256 l 5
 72 104.958007812 178.400390625 6 357 6 c 4
 516 6 622 77 622 183 c 4xf4
 622 296.014833481 494.403771506 318.624519599 362.280273438 341.489257812 c 4
 220.689453125 365.992371091 74 391.379442073 74 529 c 4
 74 641 182 715 344 715 c 4
 509.93359375 715 616.333007812 634.130859375 629 506 c 5xf8
EndSplineSet
EndChar

StartChar: T
Encoding: 84 84 52
GlifName: T_
Width: 654
GlyphClass: 2
InSpiro: 1
Flags: W
HStem: 0 21G<316 338> 678 22<30 316 338 624>
VStem: 316 22<0 678>
AnchorPoint: "Anchor-3" 327 406 basechar 0
AnchorPoint: "Anchor-2" 327 716 basechar 0
AnchorPoint: "Anchor-0" 327 0 basechar 0
LayerCount: 2
Fore
SplineSet
316 678 m 1
 30 678 l 1
 30 700 l 1
 624 700 l 1
 624 678 l 1
 338 678 l 1
 338 0 l 1
 316 0 l 1
 316 678 l 1
  Spiro
    316 678 v
    30 678 v
    30 700 v
    624 700 v
    624 678 v
    338 678 v
    338 0 v
    316 0 v
    0 0 z
  EndSpiro
EndSplineSet
EndChar

StartChar: U
Encoding: 85 85 53
GlifName: U_
Width: 705
GlyphClass: 2
Flags: W
HStem: -16 22<272.587 431.513> 680 20G<66 88 617 639>
VStem: 66 22<183.978 700> 617 22<183.978 700>
AnchorPoint: "Anchor-4" 617 700 basechar 0
AnchorPoint: "Anchor-2" 353 716 basechar 0
AnchorPoint: "Anchor-1" 353 0 basechar 0
AnchorPoint: "Anchor-0" 352 0 basechar 0
LayerCount: 2
Fore
SplineSet
66 250 m 2
 66 700 l 1
 88 700 l 1
 88 256 l 2
 88 89.3330078125 220 6 352 6 c 0
 484 6 617 89.3330078125 617 256 c 2
 617 700 l 1
 639 700 l 1
 639 250 l 2
 639 73.359375 495 -16 352 -16 c 0
 209 -16 66 73.359375 66 250 c 2
EndSplineSet
EndChar

StartChar: V
Encoding: 86 86 54
GlifName: V_
Width: 694
GlyphClass: 2
Flags: W
HStem: 0 21G<327.143 366.857> 680 20G<26 60.7667 633.233 668>
LayerCount: 2
Fore
SplineSet
347 27 m 1
 642 700 l 1
 668 700 l 1
 358 0 l 1
 336 0 l 1
 26 700 l 1
 52 700 l 1
 347 27 l 1
EndSplineSet
EndChar

StartChar: W
Encoding: 87 87 55
GlifName: W_
Width: 1070
GlyphClass: 2
Flags: W
HStem: 0 21G<280.629 317.788 752.212 789.371> 680 20G<30 60.432 517.202 552.798 1009.57 1040>
AnchorPoint: "Anchor-2" 535 716 basechar 0
AnchorPoint: "Anchor-0" 535 0 basechar 0
LayerCount: 2
Fore
SplineSet
288 0 m 1
 30 700 l 1
 53 700 l 1
 299 38 l 1
 524 700 l 1
 546 700 l 1
 771 38 l 1
 1017 700 l 1
 1040 700 l 1
 782 0 l 1
 759 0 l 1
 535 660 l 1
 311 0 l 1
 288 0 l 1
EndSplineSet
EndChar

StartChar: X
Encoding: 88 88 56
GlifName: X_
Width: 667
GlyphClass: 2
Flags: W
HStem: 0 21G<50 92.3754 574.565 617> 680 20G<50 92.3754 574.565 617>
LayerCount: 2
Fore
SplineSet
77 0 m 1
 50 0 l 1
 318 350 l 5
 50 700 l 1
 77 700 l 1
 333 367 l 5
 590 700 l 5
 617 700 l 5
 348 350 l 5
 617 0 l 5
 590 0 l 5
 333 333 l 5
 77 0 l 1
EndSplineSet
EndChar

StartChar: Y
Encoding: 89 89 57
GlifName: Y_
Width: 632
GlyphClass: 2
Flags: W
HStem: 0 21G<304 326> 680 20G<30 66.5044 565.407 602>
VStem: 304 22<0 223>
AnchorPoint: "Anchor-2" 316 716 basechar 0
AnchorPoint: "Anchor-0" 315 0 basechar 0
LayerCount: 2
Fore
SplineSet
304 223 m 1
 30 700 l 1
 55 700 l 1
 315 248 l 1
 577 700 l 1
 602 700 l 1
 326 223 l 1
 326 0 l 1
 304 0 l 1
 304 223 l 1
EndSplineSet
EndChar

StartChar: Z
Encoding: 90 90 58
GlifName: Z_
Width: 648
GlyphClass: 2
Flags: W
HStem: 0 22<79 598> 678 22<60 559>
AnchorPoint: "Anchor-3" 324 350 basechar 0
AnchorPoint: "Anchor-2" 314 716 basechar 0
AnchorPoint: "Anchor-0" 314 0 basechar 0
LayerCount: 2
Fore
SplineSet
598 0 m 1
 50 0 l 1
 50 22 l 1
 559 678 l 1
 60 678 l 1
 60 700 l 1
 588 700 l 1
 588 678 l 1
 79 22 l 1
 598 22 l 1
 598 0 l 1
EndSplineSet
EndChar

StartChar: bracketleft
Encoding: 91 91 59
GlifName: bracketleft
Width: 276
GlyphClass: 2
Flags: W
HStem: -100 22<92 248> 779 22<92 248>
VStem: 70 22<-78 779>
LayerCount: 2
Fore
SplineSet
248 801 m 1
 248 779 l 1
 92 779 l 1
 92 -78 l 1
 248 -78 l 1
 248 -100 l 1
 70 -100 l 1
 70 801 l 1
 248 801 l 1
EndSplineSet
EndChar

StartChar: backslash
Encoding: 92 92 60
GlifName: backslash
Width: 341
GlyphClass: 2
Flags: W
VStem: 30 281
LayerCount: 2
Fore
SplineSet
30 740 m 1
 53 740 l 1
 311 -80 l 1
 288 -80 l 1
 30 740 l 1
EndSplineSet
EndChar

StartChar: bracketright
Encoding: 93 93 61
GlifName: bracketright
Width: 276
GlyphClass: 2
Flags: W
HStem: -100 22<28 184> 779 22<28 184>
VStem: 184 22<-78 779>
LayerCount: 2
Fore
SplineSet
28 779 m 5
 28 801 l 5
 206 801 l 5
 206 -100 l 5
 28 -100 l 5
 28 -78 l 5
 184 -78 l 5
 184 779 l 5
 28 779 l 5
EndSplineSet
EndChar

StartChar: asciicircum
Encoding: 94 94 62
GlifName: asciicircum
Width: 396
GlyphClass: 2
Flags: W
HStem: 401 299
VStem: 50 296
LayerCount: 2
Fore
SplineSet
210 700 m 1
 346 401 l 1
 322 401 l 1
 198 674 l 1
 74 401 l 1
 50 401 l 1
 186 700 l 1
 210 700 l 1
EndSplineSet
EndChar

StartChar: underscore
Encoding: 95 95 63
GlifName: underscore
Width: 496
GlyphClass: 2
Flags: W
HStem: -22 22<58 438>
LayerCount: 2
Fore
SplineSet
58 -22 m 1
 58 0 l 1
 438 0 l 1
 438 -22 l 1
 58 -22 l 1
EndSplineSet
EndChar

StartChar: grave
Encoding: 96 96 64
GlifName: grave
Width: 233
GlyphClass: 2
Flags: W
HStem: 582 158
VStem: 50 133
LayerCount: 2
Fore
SplineSet
156 582 m 1
 50 740 l 1
 96 740 l 1
 183 582 l 1
 156 582 l 1
EndSplineSet
EndChar

StartChar: a
Encoding: 97 97 65
GlifName: a
Width: 555
GlyphClass: 2
Flags: W
HStem: -10 22<136.912 273.522> 0 22<454.951 509> 488 22<187.883 330.231>
VStem: 46 22<69.1655 150.066> 53 23<345.565 386.084> 430 22<25.0316 146 184.405 276 299 392.4>
AnchorPoint: "Anchor-2" 263 540 basechar 0
AnchorPoint: "Anchor-1" 477 0 basechar 0
AnchorPoint: "Anchor-0" 263 0 basechar 0
LayerCount: 2
Fore
SplineSet
479 22 m 2x6c
 509 22 l 1
 509 0 l 1
 476 0 l 2x6c
 443.142578125 0 430 12.1669921875 430 50 c 2
 430 146 l 1
 392.541992188 38.337890625 296.416992188 -10 198 -10 c 0
 102 -10 46 47.142578125 46 110 c 0xb4
 46 185 116.073242188 234.64453125 230 258 c 2
 430 299 l 1
 430 326 l 2
 430 423.392578125 377.979492188 488 257 488 c 0
 177.1796875 488 85.78125 448.998341182 76 340 c 1
 53 348 l 1
 72.0654296875 467.060546875 169.413085938 510 257 510 c 0
 390.545898438 510 452 436.400390625 452 326 c 2
 452 52 l 2
 452 31 456.262695312 22 479 22 c 2x6c
198 12 m 0xb4
 312.125 12 430 75.5556640625 430 276 c 1
 237 237 l 2
 122.056640625 213.7734375 68 169 68 108 c 0
 68 54.3525390625 121 12 198 12 c 0xb4
EndSplineSet
EndChar

StartChar: b
Encoding: 98 98 66
GlifName: b
Width: 597
GlyphClass: 2
Flags: W
HStem: -10 22<245.684 382.024> 0 21G<66 88> 488 22<245.645 382.024> 680 20G<66 88>
VStem: 66 22<0 150 175.154 324.846 350 700> 529 22<172.38 327.62>
LayerCount: 2
Fore
SplineSet
88 0 m 5x7c
 66 0 l 5x7c
 66 700 l 5
 88 700 l 5
 88 350 l 5
 93.234375 397.024414062 172.08203125 510 311 510 c 4
 459.799804688 510 551 396.616210938 551 250 c 4
 551 103.383789062 459.799804688 -10 311 -10 c 4xbc
 172.08203125 -10 94.28125 102.975585938 88 150 c 5
 88 0 l 5x7c
88 250 m 4
 88 107.58984375 192.797851562 12 311 12 c 4xbc
 446.943359375 12 529 117.344726562 529 250 c 4
 529 382.655273438 446.943359375 488 311 488 c 4
 192.797851562 488 88 392.41015625 88 250 c 4
EndSplineSet
EndChar

StartChar: c
Encoding: 99 99 67
GlifName: c
Width: 576
GlyphClass: 2
Flags: W
HStem: -10 22<224.328 376.593> 488 22<224.328 369.514>
VStem: 46 22<177.185 322.815> 511 19<137.141 164.947 327.667 338.973>
AnchorPoint: "Anchor-2" 295 540 basechar 0
AnchorPoint: "Anchor-0" 294 0 basechar 0
LayerCount: 2
Fore
SplineSet
46 250 m 0
 46 382.932617188 134.734375 510 294 510 c 0
 418.951171875 510 502.829101562 446.041015625 528 330 c 1
 506 322 l 1
 489.643554688 413.682617188 421.200195312 488 294 488 c 0
 146.408203125 488 68 370.951171875 68 250 c 0
 68 129.048828125 146.408203125 12 294 12 c 0
 426.80859375 12 495.005859375 79.197265625 511 170 c 1
 530 162 l 1
 506.451171875 48.943359375 421.254882812 -10 294 -10 c 0
 134.734375 -10 46 117.067382812 46 250 c 0
EndSplineSet
EndChar

StartChar: d
Encoding: 100 100 68
GlifName: d
Width: 597
GlyphClass: 2
Flags: W
HStem: -10 22<214.976 351.316> 0 21G<509 531> 488 22<214.976 351.355> 680 20G<509 531>
VStem: 46 22<172.38 327.62> 509 22<0 150 175.154 324.846 350 700>
AnchorPoint: "Anchor-4" 634 500 basechar 0
AnchorPoint: "Anchor-3" 519 599 basechar 0
AnchorPoint: "Anchor-2" 595 564 basechar 0
AnchorPoint: "Anchor-0" 322 0 basechar 0
LayerCount: 2
Fore
SplineSet
531 700 m 1xbc
 531 0 l 1
 509 0 l 1x7c
 509 150 l 1
 502.71875 102.975585938 424.91796875 -10 286 -10 c 0
 137.200195312 -10 46 103.383789062 46 250 c 0
 46 396.616210938 137.200195312 510 286 510 c 0
 424.91796875 510 503.765625 397.024414062 509 350 c 1
 509 700 l 1
 531 700 l 1xbc
509 250 m 0
 509 392.41015625 404.202148438 488 286 488 c 0
 150.056640625 488 68 382.655273438 68 250 c 0
 68 117.344726562 150.056640625 12 286 12 c 0xbc
 404.202148438 12 509 107.58984375 509 250 c 0
EndSplineSet
EndChar

StartChar: e
Encoding: 101 101 69
GlifName: e
Width: 575
GlyphClass: 2
Flags: W
HStem: -10 22<222.885 377.18> 252 22<69 502> 488 22<223.382 364.895>
VStem: 46 22<177.717 252 274 325.67> 502 24<274 349.872> 510 19<130.816 147.316>
AnchorPoint: "Anchor-2" 294 540 basechar 0
AnchorPoint: "Anchor-1" 286 0 basechar 0
AnchorPoint: "Anchor-0" 296 0 basechar 0
LayerCount: 2
Fore
SplineSet
68 252 m 1xf8
 68 217.41015625 77.333984375 12 299.044921875 12 c 0
 405.475585938 12 485.36328125 65.4794921875 510 153 c 1
 529 144 l 1xf4
 503.114257812 48.4990234375 416.357421875 -10 300.283203125 -10 c 0
 148.107421875 -10 46 92.4326171875 46 245.6015625 c 0
 46 399.602539062 149.111328125 510 293.110351562 510 c 0
 429.395507812 510 526 421.561523438 526 272.690429688 c 0
 526 264.591796875 525.692382812 258.235351562 525 252 c 1
 68 252 l 1xf8
294.94921875 488 m 0
 171.342773438 488 79.39453125 402.91015625 69 274 c 1
 502 274 l 1xf8
 502 400.80078125 417.627929688 488 294.94921875 488 c 0
EndSplineSet
EndChar

StartChar: f
Encoding: 102 102 70
GlifName: f
Width: 328
GlyphClass: 2
Flags: HW
HStem: 0 21G<143 165> 478 22<30 143 165 315> 694 22<191.527 330>
VStem: 143 22<0 478 500 666.747>
LayerCount: 2
Fore
SplineSet
143 478 m 1
 30 478 l 1
 30 500 l 1
 143 500 l 1
 143 599 l 2
 143 667.876953125 175.053710938 700 242 700 c 2
 330 700 l 1
 330 678 l 1
 245 678 l 2
 183.793945312 678 165 658.405273438 165 597 c 2
 165 500 l 1
 315 500 l 1
 315 478 l 1
 165 478 l 1
 165 0 l 1
 143 0 l 1
 143 478 l 1
EndSplineSet
EndChar

StartChar: g
Encoding: 103 103 71
GlifName: g
Width: 597
GlyphClass: 2
Flags: W
HStem: -200 22<69 473.994> -10 22<221.836 358.86> 480 20G<509 531> 488 22<221.836 358.86>
VStem: 46 22<176.01 323.99> 509 22<-141.942 140 172.002 327.998 360 500>
AnchorPoint: "Anchor-2" 307 540 basechar 0
AnchorPoint: "Anchor-0" 322 -200 basechar 0
LayerCount: 2
Fore
SplineSet
46 250 m 0xec
 46 402.290039062 147.295898438 510 290.518554688 510 c 0xdc
 414.838867188 510 482.139648438 428.581054688 509 360 c 1
 509 500 l 1
 531 500 l 1
 531 -92 l 2
 531 -164.436523438 496.0390625 -200 425 -200 c 2
 69 -200 l 1
 69 -178 l 1
 421 -178 l 2
 482.859375 -178 509 -151.264648438 509 -88 c 2
 509 140 l 1
 482.139648438 72.4189453125 414.838867188 -10 290.518554688 -10 c 0
 147.295898438 -10 46 97.7099609375 46 250 c 0xec
509 250 m 0
 509 385.745117188 416.000976562 488 292.54296875 488 c 0
 161.029296875 488 68 389.395507812 68 250 c 0
 68 110.604492188 161.029296875 12 292.54296875 12 c 0
 416.000976562 12 509 114.254882812 509 250 c 0
EndSplineSet
EndChar

StartChar: h
Encoding: 104 104 72
GlifName: h
Width: 552
GlyphClass: 2
Flags: HW
HStem: 0 21G<66 88 464 486> 488 22<228.428 353.64> 680 20G<66 88>
VStem: 66 22<0 700> 464 22<0 369.99>
AnchorPoint: "Anchor-2" 287 699 basechar 0
AnchorPoint: "Anchor-3" 97 584 basechar 0
AnchorPoint: "Anchor-0" 276 0 basechar 0
LayerCount: 2
Fore
SplineSet
88 0 m 1
 66 0 l 1
 66 700 l 1
 88 700 l 1
 88 362 l 1
 114.955078125 448.217773438 199.744140625 510 291.112304688 510 c 0
 409.877929688 510 486 426.803710938 486 297 c 2
 486 0 l 1
 464 0 l 1
 464 294 l 2
 464 412.923828125 396.676757812 488 290.033203125 488 c 0
 186.2265625 488 88 393.6796875 88 294 c 2
 88 0 l 1
EndSplineSet
EndChar

StartChar: i
Encoding: 105 105 73
GlifName: i
Width: 164
GlyphClass: 2
Flags: W
HStem: 0 21G<71 93> 480 20G<71 93> 610 32<66 98>
VStem: 71 22<0 500 610 642>
AnchorPoint: "Anchor-2" 82 540 basechar 0
AnchorPoint: "Anchor-1" 86 9 basechar 0
AnchorPoint: "Anchor-0" 82 0 basechar 0
LayerCount: 2
Fore
SplineSet
66 610 m 1
 66 642 l 1
 98 642 l 1
 98 610 l 1
 66 610 l 1
93 0 m 5
 71 0 l 5
 71 500 l 5
 93 500 l 5
 93 0 l 5
EndSplineSet
Substitution2: "Single Substitution lookup 9 subtable" dotlessi
Substitution2: "'locl' Localized Forms in Latin lookup 2 subtable" i.loclTRK
EndChar

StartChar: j
Encoding: 106 106 74
GlifName: j
Width: 164
GlyphClass: 2
Flags: W
HStem: -200 22<-51 57.6178> 480 20G<71 93> 610 32<66 98>
VStem: 71 22<-164.825 500 610 642>
AnchorPoint: "Anchor-2" 84 500 basechar 0
AnchorPoint: "Anchor-0" 59 -200 basechar 0
LayerCount: 2
Fore
SplineSet
66 610 m 1
 66 642 l 1
 98 642 l 1
 98 610 l 1
 66 610 l 1
26 -200 m 6
 -51 -200 l 5
 -51 -178 l 5
 23 -178 l 6
 57 -178 71 -163 71 -128 c 6
 71 500 l 5
 93 500 l 5
 93 -127 l 6
 93 -177.744140625 68.900390625 -200 26 -200 c 6
EndSplineSet
Substitution2: "Single Substitution lookup 9 subtable" uni0237
EndChar

StartChar: k
Encoding: 107 107 75
GlifName: k
Width: 485
GlyphClass: 2
Flags: W
HStem: 0 21G<66 88 414.084 464> 239 22<88 196> 480 20G<404.921 454> 680 20G<66 88>
VStem: 66 22<0 239 261 700>
AnchorPoint: "Anchor-2" 230 715 basechar 0
AnchorPoint: "Anchor-0" 230 0 basechar 0
LayerCount: 2
Fore
SplineSet
88 0 m 1
 66 0 l 1
 66 700 l 1
 88 700 l 1
 88 261 l 1
 196 261 l 1
 424 500 l 1
 454 500 l 1
 217 250 l 1
 464 0 l 1
 434 0 l 1
 196 239 l 1
 88 239 l 1
 88 0 l 1
EndSplineSet
EndChar

StartChar: l
Encoding: 108 108 76
GlifName: l
Width: 154
GlyphClass: 2
Flags: HW
HStem: 0 21G<66 88> 680 20G<66 88>
VStem: 66 22<0 700>
AnchorPoint: "Anchor-2" 153 564 basechar 0
AnchorPoint: "Anchor-4" 156 716 basechar 0
AnchorPoint: "Anchor-3" 77 400 basechar 0
AnchorPoint: "Anchor-0" 77 0 basechar 0
LayerCount: 2
Fore
SplineSet
88 0 m 1
 66 0 l 1
 66 700 l 1
 88 700 l 1
 88 0 l 1
EndSplineSet
EndChar

StartChar: m
Encoding: 109 109 77
GlifName: m
Width: 870
GlyphClass: 2
Flags: W
HStem: 0 21G<66 88 424 446 782 804> 480 20G<66 88> 489 21<218.447 324.238 576.103 680.778>
VStem: 66 22<0 500> 424 22<0 374.898> 782 22<0 374.898>
CounterMasks: 1 1c
LayerCount: 2
Fore
SplineSet
88 0 m 1xbc
 66 0 l 1
 66 500 l 1
 88 500 l 1xdc
 88 362 l 1
 112.30078125 448.217773438 188.741210938 510 271.112304688 510 c 4
 359.75390625 510 423.120117188 452.245117188 440.9453125 355.20703125 c 5
 467.989257812 445.989257812 545.80078125 510 629.112304688 510 c 4
 735.690429688 510 804 426.803710938 804 297 c 6
 804 0 l 5
 782 0 l 5
 782 294 l 6
 782 413.537109375 722.416992188 489 628.033203125 489 c 4
 534.501953125 489 446 394.193359375 446 294 c 6
 446 0 l 5
 424 0 l 5
 424 294 l 6
 424 413.537109375 364.416992188 489 270.033203125 489 c 4
 176.501953125 489 88 394.193359375 88 294 c 2
 88 0 l 1xbc
EndSplineSet
EndChar

StartChar: n
Encoding: 110 110 78
GlifName: n
Width: 552
GlyphClass: 2
Flags: W
HStem: 0 21G<66 88 464 486> 480 20G<66 88> 489 21<232.737 351.559>
VStem: 66 22<0 500> 464 22<0 370.023>
AnchorPoint: "Anchor-2" 279 540 basechar 0
AnchorPoint: "Anchor-0" 280 0 basechar 0
LayerCount: 2
Fore
SplineSet
88 0 m 1xb8
 66 0 l 1
 66 500 l 1
 88 500 l 1xd8
 88 362 l 1
 114.955078125 448.217773438 199.744140625 510 291.112304688 510 c 0
 409.877929688 510 486 426.803710938 486 297 c 2
 486 0 l 1
 464 0 l 1
 464 294 l 2
 464 413.537109375 396.676757812 489 290.033203125 489 c 0
 186.2265625 489 88 394.193359375 88 294 c 2
 88 0 l 1xb8
EndSplineSet
EndChar

StartChar: o
Encoding: 111 111 79
GlifName: o
Width: 596
GlyphClass: 2
Flags: W
HStem: -16 22<225.185 370.815> 494 22<225.185 370.815>
VStem: 46 22<173.637 327.829> 528 22<173.637 327.829>
AnchorPoint: "Anchor-4" 393 500 basechar 0
AnchorPoint: "Anchor-3" 298 250 basechar 0
AnchorPoint: "Anchor-2" 298 540 basechar 0
AnchorPoint: "Anchor-1" 298 -6 basechar 0
AnchorPoint: "Anchor-0" 298 0 basechar 0
LayerCount: 2
Fore
SplineSet
46 251 m 0
 46 410 147.02734375 516 298 516 c 0
 448.97265625 516 550 410 550 251 c 0
 550 91 448.97265625 -16 298 -16 c 0
 147.02734375 -16 46 91 46 251 c 0
68 251 m 0
 68 104 160 6 298 6 c 0
 436 6 528 104 528 251 c 0
 528 397 436 494 298 494 c 0
 160 494 68 397 68 251 c 0
EndSplineSet
EndChar

StartChar: p
Encoding: 112 112 80
GlifName: p
Width: 617
GlyphClass: 2
Flags: W
HStem: -200 21G<66 88> -10 22<252.755 395.132> 480 20G<66 88> 488 22<252.714 395.132>
VStem: 66 22<-200 150 175.154 324.846 350 500> 549 22<172.38 327.62>
LayerCount: 2
Fore
SplineSet
88 -200 m 1xdc
 66 -200 l 1
 66 500 l 1
 88 500 l 1xec
 88 350 l 1
 93.4697265625 397.024414062 175.852539062 510 321 510 c 0
 476 510 571 396.616210938 571 250 c 0
 571 103.383789062 476 -10 321 -10 c 0
 175.852539062 -10 94.5634765625 102.975585938 88 150 c 5
 88 -200 l 1xdc
88 250 m 0
 88 107.58984375 197.497070312 12 321 12 c 0
 463.1796875 12 549 117.344726562 549 250 c 0
 549 382.655273438 463.1796875 488 321 488 c 0xdc
 197.497070312 488 88 392.41015625 88 250 c 0
EndSplineSet
EndChar

StartChar: q
Encoding: 113 113 81
GlifName: q
Width: 617
GlyphClass: 2
Flags: W
HStem: -200 21G<529 551> -10 22<221.868 364.245> 480 20G<529 551> 488 22<221.868 364.286>
VStem: 46 22<172.38 327.62> 529 22<-200 150 175.154 324.846 350 500>
LayerCount: 2
Fore
SplineSet
529 500 m 1xec
 551 500 l 1xec
 551 -200 l 1
 529 -200 l 1
 529 150 l 1
 522.436523438 102.975585938 441.147460938 -10 296 -10 c 0
 141 -10 46 103.383789062 46 250 c 0
 46 396.616210938 141 510 296 510 c 0xdc
 441.147460938 510 523.530273438 397.024414062 529 350 c 1
 529 500 l 1xec
529 250 m 0
 529 392.41015625 419.502929688 488 296 488 c 0xdc
 153.8203125 488 68 382.655273438 68 250 c 0
 68 117.344726562 153.8203125 12 296 12 c 0
 419.502929688 12 529 107.58984375 529 250 c 0
EndSplineSet
EndChar

StartChar: r
Encoding: 114 114 82
GlifName: r
Width: 373
GlyphClass: 2
Flags: W
HStem: 0 21G<66 88> 480 20G<66 88> 488 22<169.912 270.879>
VStem: 66 22<0 395.795 411 500> 320 22<345 434.661>
AnchorPoint: "Anchor-2" 215 516 basechar 0
AnchorPoint: "Anchor-0" 78 0 basechar 0
LayerCount: 2
Fore
SplineSet
88 350 m 2xb8
 88 0 l 1
 66 0 l 1
 66 500 l 1
 88 500 l 1xd8
 88 411 l 1
 94.50390625 438.84375 135.3828125 510 219 510 c 0
 290.840820312 510 342 466.611328125 342 379 c 2
 342 345 l 1
 320 345 l 1
 320 376 l 2
 320 434 297.801757812 488 219 488 c 0
 118.659179688 488 88 381.1171875 88 350 c 2xb8
EndSplineSet
EndChar

StartChar: s
Encoding: 115 115 83
GlifName: s
Width: 542
GlyphClass: 2
Flags: HW
HStem: -10 22<198.829 363.726> 488 22<193.327 351.75>
VStem: 46 21<126.349 165> 70 22<335.049 413.21> 470 19<348.789 388.195> 474 22<90.5327 171.075>
AnchorPoint: "Anchor-2" 273 516 basechar 0
AnchorPoint: "Anchor-0" 281 0 basechar 0
LayerCount: 2
Fore
SplineSet
489 351 m 1xf8
 466 343 l 5xf8
 461.227915198 434.687506829 380.068045706 488 276.935546875 488 c 0
 167.52734375 488 92 439.5234375 92 373.021484375 c 0
 92 296.380859375 190.866210938 278.9921875 292.451171875 262.856445312 c 0
 393.103515625 246.868164062 496 228.346679688 496 135.545898438 c 0
 496 51.71484375 407.573242188 -10 281.428710938 -10 c 0
 147.719726562 -10 54.912109375 56.748046875 46 163 c 1
 67 169 l 1
 74.7099609375 72.05859375 158.701171875 12 282.426757812 12 c 0
 395.049804688 12 474 63.1875 474 132.75 c 0xf4
 474 207.620117188 381.780273438 224.359375 286.4765625 240.609375 c 0
 179.984375 258.766601562 70 275.51953125 70 369.665039062 c 0
 70 450.579101562 156.935546875 510 274.7734375 510 c 0
 393.770507812 510 481.455078125 444.353515625 489 351 c 1xf8
EndSplineSet
EndChar

StartChar: t
Encoding: 116 116 84
GlifName: t
Width: 365
GlyphClass: 2
Flags: W
HStem: 0 22<204.896 325> 478 22<40 153 175 325>
VStem: 153 22<51.8956 478 500 607>
AnchorPoint: "Anchor-4" 376 500 basechar 0
AnchorPoint: "Anchor-3" 173 301 basechar 0
AnchorPoint: "Anchor-2" 255 567 basechar 0
AnchorPoint: "Anchor-0" 255 0 basechar 0
LayerCount: 2
Fore
SplineSet
153 478 m 1
 40 478 l 1
 40 500 l 1
 153 500 l 1
 153 607 l 1
 175 612 l 1
 175 500 l 1
 325 500 l 1
 325 478 l 1
 175 478 l 1
 175 93 l 2
 175 48 201 22 246 22 c 2
 325 22 l 1
 325 0 l 1
 241 0 l 2
 188.01171875 0 153 35.01171875 153 88 c 2
 153 478 l 1
EndSplineSet
EndChar

StartChar: u
Encoding: 117 117 85
GlifName: u
Width: 536
GlyphClass: 2
Flags: W
HStem: -10 21<184.441 303.263> 0 21G<448 470> 480 20G<50 72 448 470>
VStem: 50 22<129.977 500> 448 22<0 500>
AnchorPoint: "Anchor-4" 448 500 basechar 0
AnchorPoint: "Anchor-2" 257 540 basechar 0
AnchorPoint: "Anchor-1" 458 7 basechar 0
AnchorPoint: "Anchor-0" 257 0 basechar 0
LayerCount: 2
Fore
SplineSet
448 500 m 5xb8
 470 500 l 5
 470 0 l 5
 448 0 l 5x78
 448 138 l 5
 421.044921875 51.7822265625 336.255859375 -10 244.887695312 -10 c 4
 126.122070312 -10 50 73.1962890625 50 203 c 6
 50 500 l 5
 72 500 l 5
 72 206 l 6
 72 86.462890625 139.323242188 11 245.966796875 11 c 4
 349.7734375 11 448 105.806640625 448 206 c 6
 448 500 l 5xb8
EndSplineSet
EndChar

StartChar: v
Encoding: 118 118 86
GlifName: v
Width: 534
GlyphClass: 2
Flags: W
HStem: 0 21G<250.8 283.2> 480 20G<30 63.281 470.719 504>
LayerCount: 2
Fore
SplineSet
260 0 m 5
 30 500 l 1
 54 500 l 1
 267 41 l 5
 480 500 l 5
 504 500 l 5
 274 0 l 5
 260 0 l 5
EndSplineSet
EndChar

StartChar: w
Encoding: 119 119 87
GlifName: w
Width: 848
GlyphClass: 2
Flags: W
HStem: 0 21G<215.28 250.802 597.198 632.72> 480 20G<30 60.8091 405.191 442.809 787.191 818>
AnchorPoint: "Anchor-2" 424 540 basechar 0
AnchorPoint: "Anchor-0" 424 0 basechar 0
LayerCount: 2
Fore
SplineSet
223 0 m 5
 30 500 l 1
 53 500 l 1
 233 39 l 5
 413 500 l 5
 435 500 l 5
 615 39 l 5
 795 500 l 5
 818 500 l 5
 625 0 l 5
 605 0 l 5
 424 464 l 5
 243 0 l 5
 223 0 l 5
EndSplineSet
EndChar

StartChar: x
Encoding: 120 120 88
GlifName: x
Width: 526
GlyphClass: 2
Flags: W
HStem: 0 21G<46 90.865 435.135 480> 480 20G<46 90.865 435.135 480>
LayerCount: 2
Fore
SplineSet
75 0 m 1
 46 0 l 1
 245 250 l 1
 46 500 l 1
 75 500 l 1
 263 263 l 1
 451 500 l 1
 480 500 l 1
 281 250 l 1
 480 0 l 1
 451 0 l 1
 263 237 l 1
 75 0 l 1
EndSplineSet
EndChar

StartChar: y
Encoding: 121 121 89
GlifName: y
Width: 530
GlyphClass: 2
Flags: W
HStem: -200 22<32 240.589> 480 20G<30 65.8511 464.149 500>
VStem: 254 22<-165.056 0>
AnchorPoint: "Anchor-2" 265 540 basechar 0
AnchorPoint: "Anchor-0" 395 0 basechar 0
LayerCount: 2
Fore
SplineSet
254 0 m 1
 30 500 l 1
 57 500 l 1
 265 30 l 1
 473 500 l 1
 500 500 l 1
 276 0 l 1
 276 -131 l 2
 276 -175.112304688 251.833984375 -200 209 -200 c 2
 32 -200 l 1
 32 -178 l 1
 206 -178 l 2
 239.80078125 -178 254 -163.208984375 254 -128 c 2
 254 0 l 1
EndSplineSet
EndChar

StartChar: z
Encoding: 122 122 90
GlifName: z
Width: 498
GlyphClass: 2
Flags: W
HStem: 0 22<72 452> 478 22<56 416>
AnchorPoint: "Anchor-3" 244 250 basechar 0
AnchorPoint: "Anchor-2" 244 516 basechar 0
AnchorPoint: "Anchor-0" 254 0 basechar 0
LayerCount: 2
Fore
SplineSet
452 0 m 1
 46 0 l 1
 46 22 l 1
 416 478 l 1
 56 478 l 1
 56 500 l 1
 442 500 l 1
 442 478 l 1
 72 22 l 1
 452 22 l 1
 452 0 l 1
EndSplineSet
EndChar

StartChar: braceleft
Encoding: 123 123 91
GlifName: braceleft
Width: 264
GlyphClass: 2
Flags: W
HStem: -100 22<183.75 236> 338 12<64 85.2076> 350 12<64 85.2076> 778 22<183.75 236>
VStem: 123 22<-40.7268 305.489 394.511 740.727>
LayerCount: 2
Fore
SplineSet
145 697 m 2xb8
 145 453 l 2
 145 372 106 350 64 350 c 1
 106 350 145 328 145 247 c 2
 145 3 l 2
 145 -50 179 -78 229 -78 c 2
 236 -78 l 1
 236 -100 l 1
 229 -100 l 2
 161 -100 123 -57 123 3 c 2
 123 251 l 2
 123 297 108 338 58 338 c 1xd8
 58 362 l 1
 108 362 123 403 123 449 c 2
 123 697 l 2
 123 757 161 800 229 800 c 2
 236 800 l 1
 236 778 l 1
 229 778 l 2
 179 778 145 750 145 697 c 2xb8
EndSplineSet
EndChar

StartChar: bar
Encoding: 124 124 92
GlifName: bar
Width: 162
GlyphClass: 2
Flags: W
HStem: 780 20G<70 92>
VStem: 70 22<-100 800>
LayerCount: 2
Fore
SplineSet
70 800 m 5
 92 800 l 5
 92 -100 l 5
 70 -100 l 5
 70 800 l 5
EndSplineSet
EndChar

StartChar: braceright
Encoding: 125 125 93
GlifName: braceright
Width: 264
GlyphClass: 2
Flags: W
HStem: -100 22<28 80.25> 338 12<178.792 200> 350 12<178.792 200> 778 22<28 80.25>
VStem: 119 22<-40.7268 305.489 394.511 740.727>
LayerCount: 2
Fore
SplineSet
141 697 m 6xd8
 141 449 l 6
 141 403 156 362 206 362 c 5xb8
 206 338 l 5
 156 338 141 297 141 251 c 6
 141 3 l 6
 141 -57 103 -100 35 -100 c 6
 28 -100 l 5
 28 -78 l 5
 35 -78 l 6
 85 -78 119 -50 119 3 c 6
 119 247 l 6
 119 328 158 350 200 350 c 5
 158 350 119 372 119 453 c 6
 119 697 l 6
 119 750 85 778 35 778 c 6
 28 778 l 5
 28 800 l 5
 35 800 l 6
 103 800 141 757 141 697 c 6xd8
EndSplineSet
EndChar

StartChar: asciitilde
Encoding: 126 126 94
GlifName: asciitilde
Width: 464
GlyphClass: 2
Flags: W
HStem: 309 22<270.727 335.253> 379 22<126.038 190.989>
LayerCount: 2
Fore
SplineSet
58 329 m 1
 58 329 98 401 158 401 c 0
 219 401 256 331 306 331 c 0
 347 331 386 398 386 398 c 1
 406 388 l 1
 406 388 365 309 306 309 c 0
 245 309 204 379 158 379 c 0
 115 379 78 319 78 319 c 1
 58 329 l 1
EndSplineSet
EndChar

StartChar: cent
Encoding: 162 162 96
GlifName: cent
Width: 576
GlyphClass: 2
Flags: W
HStem: 0 21G<284 306> 100 22<224.328 376.593> 598 22<224.328 369.514> 680 20G<284 306>
VStem: 46 22<287.185 432.815> 284 22<0 700> 511 19<247.141 274.947 437.667 448.973>
LayerCount: 2
Fore
SplineSet
284 0 m 1
 284 700 l 1
 306 700 l 1
 306 0 l 1
 284 0 l 1
46 360 m 0
 46 492.932617188 134.734375 620 294 620 c 0
 418.951171875 620 502.829101562 556.041015625 528 440 c 1
 506 432 l 1
 489.643554688 523.682617188 421.200195312 598 294 598 c 0
 146.408203125 598 68 480.951171875 68 360 c 0
 68 239.048828125 146.408203125 122 294 122 c 0
 426.80859375 122 495.005859375 189.197265625 511 280 c 1
 530 272 l 1
 506.451171875 158.943359375 421.254882812 100 294 100 c 0
 134.734375 100 46 227.067382812 46 360 c 0
EndSplineSet
EndChar

StartChar: sterling
Encoding: 163 163 97
GlifName: sterling
Width: 566
GlyphClass: 2
Flags: W
HStem: 0 22<50 88.6242 105 516> 315 22<60 144 166 320> 694 22<261.909 378.789>
VStem: 144 22<96.3778 315 337 583.514> 455 22<551.281 605.878>
LayerCount: 2
Fore
SplineSet
105 22 m 1
 516 22 l 1
 516 0 l 1
 50 0 l 1
 50 22 l 1
 112 22 144 87 144 172 c 2
 144 315 l 1
 60 315 l 1
 60 337 l 1
 144 337 l 1
 144 502 l 2
 144 646 216 716 321 716 c 0
 418 716 471 652 477 555 c 1
 470 551 462 547 455 544 c 1
 452 626 417 694 322 694 c 0
 230 694 166 635 166 502 c 2
 166 337 l 1
 320 337 l 1
 320 315 l 1
 166 315 l 1
 166 172 l 2
 166 87 131 22 105 22 c 1
EndSplineSet
EndChar

StartChar: currency
Encoding: 164 164 98
GlifName: currency
Width: 587
GlyphClass: 2
Flags: W
HStem: 60 23<220.777 363.223> 519 24<220.777 363.223>
VStem: 50 24<229.777 372.223> 510 23<229.777 372.223>
LayerCount: 2
Fore
SplineSet
533 322 m 1
 533 281 l 1
 528 226 505 177 470 139 c 1
 537 72 l 1
 521 56 l 1
 454 123 l 1
 416 88 367 65 312 60 c 1
 271 60 l 1
 218 65 169 87 132 121 c 1
 67 56 l 1
 51 72 l 1
 115 136 l 1
 79 175 56 225 50 281 c 1
 50 322 l 1
 56 377 79 426 113 464 c 1
 51 526 l 1
 67 542 l 1
 129 480 l 1
 167 514 216 537 271 543 c 1
 312 543 l 1
 368 537 418 514 457 478 c 1
 521 542 l 1
 537 526 l 1
 472 461 l 1
 506 424 528 375 533 322 c 1
274 83 m 1
 310 83 l 1
 418 92 501 175 510 283 c 1
 510 319 l 1
 501 427 418 510 310 519 c 1
 274 519 l 1
 166 510 83 427 74 319 c 1
 74 283 l 1
 83 175 166 92 274 83 c 1
EndSplineSet
EndChar

StartChar: yen
Encoding: 165 165 99
GlifName: yen
Width: 524
GlyphClass: 2
Flags: W
HStem: 0 21G<250 272> 225 22<98 250 272 424> 322 22<98 244 278 424> 680 20G<50 85.8772 438.006 474>
VStem: 250 22<0 225 247 322>
LayerCount: 2
Fore
SplineSet
449 700 m 1
 474 700 l 1
 278 344 l 1
 424 344 l 1
 424 322 l 1
 272 322 l 1
 272 247 l 1
 424 247 l 1
 424 225 l 1
 272 225 l 1
 272 0 l 1
 250 0 l 1
 250 225 l 1
 98 225 l 1
 98 247 l 1
 250 247 l 1
 250 322 l 1
 98 322 l 1
 98 344 l 1
 244 344 l 1
 50 700 l 1
 75 700 l 1
 261 358 l 1
 449 700 l 1
EndSplineSet
EndChar

StartChar: brokenbar
Encoding: 166 166 100
GlifName: brokenbar
Width: 162
GlyphClass: 2
Flags: W
HStem: 780 20G<70 92>
VStem: 70 22<-99 271 430 800>
LayerCount: 2
Fore
SplineSet
70 800 m 1
 92 800 l 1
 92 430 l 1
 70 430 l 1
 70 800 l 1
70 271 m 1
 92 271 l 1
 92 -99 l 1
 70 -99 l 1
 70 271 l 1
EndSplineSet
EndChar

StartChar: section
Encoding: 167 167 101
GlifName: section
Width: 614
GlyphClass: 2
Flags: HW
HStem: -74 22<91 275.114> 678 22<135.886 320>
VStem: 58 20<290.624 369.761 536.916 619.879> 331 22<-0.136916 95.5513 250.069 338.899>
LayerCount: 2
Fore
SplineSet
85 -37 m 1xf8
 106 -27 l 1xf8
 111.999955611 -127.914597874 190.000133168 -194 310 -194 c 0
 429.010356287 -194 508 -136.048780488 508 -50 c 0
 508 54.7105987354 397.706036074 75.0012128464 285.367352914 95.6679908695 c 0
 168.784740537 117.115518147 50 138.968167619 50 256 c 0
 50 351.08040201 136.991091845 415 267 415 c 1
 267 395 l 1
 150 395 72 339.242937853 72 256 c 0xf4
 72 155.728788566 179.28525048 136.00235981 290.005563721 115.644329593 c 0
 408.050490104 93.9395302849 530 71.5167992188 530 -50 c 0
 530 -149.956989247 442 -216 310 -216 c 0
 178.999794408 -216 95.0002569905 -146.738869991 85 -37 c 1xf8
529 536 m 1xf8
 508 526 l 1xf8
 502.000044389 626.914597874 423.999866832 693 304 693 c 0
 184.989643713 693 106 635.048780488 106 549 c 0
 106 444.289401265 216.293963926 423.998787154 328.632647086 403.33200913 c 0
 445.215259463 381.884481853 564 360.031832381 564 243 c 0
 564 147.91959799 477.008908155 84 347 84 c 1
 347 104 l 1
 464 104 542 159.757062147 542 243 c 0xf4
 542 343.271211434 434.71474952 362.99764019 323.994436279 383.355670407 c 0
 205.949509896 405.060469715 84 427.483200781 84 549 c 0
 84 648.956989247 172 715 304 715 c 0
 435.000205592 715 518.999743009 645.738869991 529 536 c 1xf8
EndSplineSet
EndChar

StartChar: dieresis
Encoding: 168 168 102
GlifName: dieresis
Width: 304
GlyphClass: 4
Flags: W
HStem: 600 48<50 98 206 254>
VStem: 50 48<600 648> 206 48<600 648>
AnchorPoint: "Anchor-6" 152 708 basemark 0
LayerCount: 2
Fore
SplineSet
50 600 m 1
 50 648 l 1
 98 648 l 1
 98 600 l 1
 50 600 l 1
206 600 m 1
 206 648 l 1
 254 648 l 1
 254 600 l 1
 206 600 l 1
EndSplineSet
EndChar

StartChar: copyright
Encoding: 169 169 103
GlifName: copyright
Width: 750
GlyphClass: 2
Flags: HW
HStem: 33 22<299.126 452.042> 173 22<320.567 430.733> 505 22<320.567 432.041> 645 22<299.126 452.042>
VStem: 58 22<273.526 426.141> 203 22<291.323 408.1> 669 23<270.007 429.649>
LayerCount: 2
Fore
SplineSet
376 33 m 0
 200.223920263 33 58 174.776675231 58 350 c 0
 58 524.723839945 200.724980749 667 376 667 c 0
 549.72563423 667 692 524.275398895 692 350 c 0
 692 175.224628579 550.224029555 33 376 33 c 0
376 55 m 0
 537.947460882 55 669 186.947095699 669 350 c 0
 669 512.553258612 537.451202621 645 376 645 c 0
 212.724810003 645 80 512.723584626 80 350 c 0
 80 186.77696878 212.223670369 55 376 55 c 0
537 419 m 1
 515 410 l 1
 504.706764548 459.407530171 437.997782377 505 376 505 c 0
 290.648667573 505 225 437.612294875 225 350 c 0
 225 261.881702865 290.155723436 195 376 195 c 0
 438.56724862 195 505.070282762 242.36547036 515 294 c 1
 539 285 l 1
 508.867807634 214.04354701 449.134788325 173 376 173 c 0
 277.47515997 173 203 249.197128987 203 350 c 0
 203 449.754431212 278.499906217 527 376 527 c 0
 448.180410746 527 506.495075085 487.882088518 537 419 c 1
EndSplineSet
EndChar

StartChar: guillemotleft
Encoding: 171 171 104
GlifName: guillemotleft
Width: 445
GlyphClass: 2
Flags: W
HStem: 480 20G<182.156 225 342.156 385>
LayerCount: 2
Fore
SplineSet
197 500 m 1
 225 500 l 1
 58 275 l 1
 227 50 l 1
 199 50 l 1
 30 275 l 1
 197 500 l 1
385 500 m 1
 218 275 l 1
 387 50 l 1
 359 50 l 1
 190 275 l 1
 357 500 l 1
 385 500 l 1
EndSplineSet
EndChar

StartChar: logicalnot
Encoding: 172 172 105
GlifName: logicalnot
Width: 534
GlyphClass: 2
Flags: W
HStem: 278 22<58 454>
VStem: 454 22<118 278>
LayerCount: 2
Fore
SplineSet
58 300 m 1
 476 300 l 1
 476 118 l 1
 454 118 l 1
 454 278 l 1
 58 278 l 1
 58 300 l 1
EndSplineSet
EndChar

StartChar: registered
Encoding: 174 174 106
GlifName: registered
Width: 640
GlyphClass: 2
Flags: W
HStem: 154 22<249.23 391.874> 408 22<261 358.596> 530 22<261 368.69> 656 22<249.23 391.874>
VStem: 58 22<344.678 484.372> 239 22<288 408 430 530> 395 22<288 378.013> 560 22<344.678 484.372>
LayerCount: 2
Fore
SplineSet
321 154 m 0
 176 154 58 272 58 416 c 0
 58 561 176 678 321 678 c 0
 464 678 582 561 582 416 c 0
 582 272 464 154 321 154 c 0
321 176 m 0
 452 176 560 284 560 416 c 0
 560 548 452 656 321 656 c 0
 188 656 80 548 80 416 c 0
 80 284 188 176 321 176 c 0
261 288 m 1
 239 288 l 1
 239 552 l 1
 334 552 l 2
 427 552 445 433 354 420 c 1
 395 414 417 396 417 288 c 1
 395 288 l 1
 395 379 382 408 333 408 c 2
 261 408 l 1
 261 288 l 1
261 530 m 1
 261 430 l 1
 330 430 l 2
 410 430 412 530 333 530 c 2
 261 530 l 1
EndSplineSet
EndChar

StartChar: macron
Encoding: 175 175 107
GlifName: macron
Width: 340
GlyphClass: 4
Flags: W
HStem: 626 22<50 290>
VStem: 50 240<626 648>
AnchorPoint: "Anchor-6" 170 700 basemark 0
LayerCount: 2
Fore
SplineSet
50 626 m 1
 50 648 l 1
 290 648 l 1
 290 626 l 1
 50 626 l 1
EndSplineSet
EndChar

StartChar: degree
Encoding: 176 176 108
GlifName: degree
Width: 388
GlyphClass: 2
Flags: W
HStem: 416 22<147.175 240.825> 666 22<147.175 240.825>
VStem: 58 22<505.175 598.825> 308 22<505.175 598.825>
LayerCount: 2
Fore
SplineSet
194 416 m 0
 119 416 58 477 58 552 c 0
 58 627 119 688 194 688 c 0
 269 688 330 627 330 552 c 0
 330 477 269 416 194 416 c 0
194 438 m 0
 257 438 308 489 308 552 c 0
 308 615 257 666 194 666 c 0
 131 666 80 615 80 552 c 0
 80 489 131 438 194 438 c 0
EndSplineSet
EndChar

StartChar: plusminus
Encoding: 177 177 109
GlifName: plusminus
Width: 516
GlyphClass: 2
Flags: W
HStem: 87 22<58 458> 323 22<58 247 269 458> 484 20G<247 269>
VStem: 247 22<164 323 345 504>
LayerCount: 2
Fore
SplineSet
269 504 m 1
 269 345 l 1
 458 345 l 1
 458 323 l 1
 269 323 l 1
 269 164 l 1
 247 164 l 1
 247 323 l 1
 58 323 l 1
 58 345 l 1
 247 345 l 1
 247 504 l 1
 269 504 l 1
458 87 m 1
 58 87 l 1
 58 109 l 1
 458 109 l 1
 458 87 l 1
EndSplineSet
EndChar

StartChar: acute
Encoding: 180 180 110
GlifName: acute
Width: 223
GlyphClass: 4
Flags: W
HStem: 552 148
VStem: 50 123
AnchorPoint: "Anchor-6" 92 700 basemark 0
LayerCount: 2
Fore
SplineSet
127 700 m 1
 173 700 l 1
 77 552 l 1
 50 552 l 1
 127 700 l 1
EndSplineSet
EndChar

StartChar: uni00B5
Encoding: 181 181 111
GlifName: uni00B_5
Width: 572
GlyphClass: 2
Flags: HW
HStem: -200 21G<86 108> -16 22<225.178 335.589> 0 21G<464 486> 480 20G<86 108 464 486>
VStem: 86 22<-200 112 149.86 500> 464 22<0 135 156.609 500>
LayerCount: 2
Fore
SplineSet
88 -200 m 1
 66 -200 l 1
 66 500 l 1
 88 500 l 1
 88 -200 l 1
484 500 m 1xb8
 506 500 l 1
 506 0 l 1
 484 0 l 1x78
 484 138 l 1
 455.7178197 51.7822265625 366.754265525 -10 270.887695312 -10 c 0
 146.028015744 -10 66 73.1962890625 66 203 c 1
 88 206 l 1
 88 86.462890625 159.1931325 11 271.966796875 11 c 0
 380.911535546 11 484 105.806640625 484 206 c 2
 484 500 l 1xb8
EndSplineSet
EndChar

StartChar: paragraph
Encoding: 182 182 112
GlifName: paragraph
Width: 564
GlyphClass: 2
Flags: W
HStem: 678 22<256 366 388 494>
VStem: 50 206<432.067 600.374> 234 22<-140 332> 366 22<-140 678>
LayerCount: 2
Fore
SplineSet
494 700 m 1xb0
 494 678 l 1
 388 678 l 1
 388 -140 l 1
 366 -140 l 1
 366 678 l 1
 256 678 l 1
 256 -140 l 1
 234 -140 l 1
 234 332 l 1xb0
 133 332 50 414 50 516 c 0xd0
 50 619 133 700 234 700 c 2
 494 700 l 1xb0
EndSplineSet
EndChar

StartChar: periodcentered
Encoding: 183 183 113
GlifName: periodcentered
Width: 164
GlyphClass: 2
Flags: W
HStem: 306 48<58 106>
VStem: 58 48<306 354>
LayerCount: 2
Fore
SplineSet
58 306 m 1
 58 354 l 1
 106 354 l 1
 106 306 l 1
 58 306 l 1
EndSplineSet
EndChar

StartChar: cedilla
Encoding: 184 184 114
GlifName: cedilla
Width: 247
GlyphClass: 4
Flags: W
VStem: 174 23<-167.42 -102.848>
AnchorPoint: "Anchor-5" 124 -216 basemark 0
LayerCount: 2
Fore
SplineSet
61 -53 m 1
 93 9 l 1
 115 9 l 1
 87 -53 l 1
 87 -53 197 -51 197 -136 c 0
 197 -202 121 -231 50 -208 c 1
 50 -186 l 1
 58 -195 174 -211 174 -134 c 0
 174 -77 94 -71 61 -77 c 1
 61 -53 l 1
EndSplineSet
EndChar

StartChar: guillemotright
Encoding: 187 187 115
GlifName: guillemotright
Width: 445
GlyphClass: 2
Flags: W
HStem: 480 20G<60 102.844 220 262.844>
LayerCount: 2
Fore
SplineSet
60 500 m 1
 88 500 l 1
 255 275 l 1
 86 50 l 1
 58 50 l 1
 227 275 l 1
 60 500 l 1
220 500 m 1
 248 500 l 1
 415 275 l 1
 246 50 l 1
 218 50 l 1
 387 275 l 1
 220 500 l 1
EndSplineSet
EndChar

StartChar: AE
Encoding: 198 198 123
GlifName: A_E_
Width: 934
GlyphClass: 2
Flags: W
HStem: 0 23<488 894> 238 22<168 466> 351 22<488 802> 678 22<396 466 488 878>
VStem: 466 22<23 238 260 351 373 678>
AnchorPoint: "Anchor-0" 493 0 basechar 0
AnchorPoint: "Anchor-2" 503 716 basechar 0
LayerCount: 2
Fore
SplineSet
49 0 m 1
 26 0 l 1
 396 700 l 1
 421 700 l 1
 49 0 l 1
894 0 m 1
 466 0 l 1
 466 238 l 1
 168 238 l 1
 168 260 l 1
 466 260 l 1
 466 678 l 1
 396 678 l 1
 396 700 l 1
 878 700 l 1
 878 678 l 1
 488 678 l 1
 488 373 l 1
 802 373 l 1
 802 351 l 1
 488 351 l 1
 488 23 l 1
 894 23 l 1
 894 0 l 1
EndSplineSet
EndChar

StartChar: Eth
Encoding: 208 208 133
GlifName: E_th
Width: 802
GlyphClass: 2
Flags: W
HStem: 0 22<162 509.121> 338 22<0 420> 678 22<162 509.121>
VStem: 140 22<22 678> 730 22<260.203 440.718>
LayerCount: 2
Fore
SplineSet
0 338 m 1
 0 360 l 1
 420 360 l 1
 420 338 l 1
 0 338 l 1
431 0 m 2
 140 0 l 1
 140 700 l 1
 431 700 l 2
 645.475585938 700 752 526 752 351 c 0
 752 176 644.904296875 -2.62290189568e-14 431 0 c 2
162 678 m 1
 162 22 l 1
 431 22 l 2
 630.140625 22 730 186 730 350 c 0
 730 514 630.140625 678 431 678 c 2
 162 678 l 1
EndSplineSet
EndChar

StartChar: multiply
Encoding: 215 215 140
GlifName: multiply
Width: 466
GlyphClass: 2
Flags: W
LayerCount: 2
Fore
SplineSet
401 487 m 1
 416 472 l 1
 248 304 l 1
 416 136 l 1
 401 121 l 1
 233 289 l 1
 65 121 l 1
 50 136 l 1
 218 304 l 1
 50 472 l 1
 65 487 l 1
 233 319 l 1
 401 487 l 1
EndSplineSet
EndChar

StartChar: Oslash
Encoding: 216 216 141
GlifName: O_slash
Width: 793
GlyphClass: 2
Flags: W
HStem: -16 22<311.694 482.083> 692 22<307.336 482.083>
VStem: 50 22<255.627 443.741> 721 22<255.627 443.741>
AnchorPoint: "Anchor-0" 397 0 basechar 0
AnchorPoint: "Anchor-1" 397 0 basechar 0
AnchorPoint: "Anchor-2" 397 716 basechar 0
AnchorPoint: "Anchor-3" 397 350 basechar 0
AnchorPoint: "Anchor-4" 795 716 basechar 0
LayerCount: 2
Fore
SplineSet
745.83984375 716.953125 m 1
 761.396484375 701.396484375 l 1
 45 -15 l 1
 29.443359375 0.556640625 l 1
 745.83984375 716.953125 l 1
72 350 m 0
 72 144 199.719726563 6 397 6 c 0
 593.225585938 6 721 144 721 350 c 0
 721 555 593.225585938 692 397 692 c 0
 199.719726563 692 72 555 72 350 c 0
50 350 m 0
 50 568 189.026367188 714 397 714 c 0
 605.052734375 714 743 568 743 350 c 0
 743 130 605.052734375 -16 397 -16 c 0
 189.026367188 -16 50 130 50 350 c 0
EndSplineSet
EndChar

StartChar: Thorn
Encoding: 222 222 147
GlifName: T_horn
Width: 645
GlyphClass: 2
Flags: W
HStem: 0 21G<70 92> 162 22<92 439.47> 558 22<92 439.47> 680 20G<70 92>
VStem: 70 22<0 162 184 558 580 700> 577 22<307.351 434.649>
LayerCount: 2
Fore
SplineSet
92 184 m 1
 368 184 l 2
 491.105350302 184 577 260.853107624 577 371 c 0
 577 481.146892376 491.105350302 558 368 558 c 2
 92 558 l 1
 92 184 l 1
92 580 m 1
 368 580 l 2
 503.056664896 580 599 493.194125382 599 371 c 0
 599 248.805874618 503.056664896 162 368 162 c 2
 92 162 l 1
 92 0 l 1
 70 0 l 1
 70 700 l 1
 92 700 l 1
 92 580 l 1
EndSplineSet
EndChar

StartChar: germandbls
Encoding: 223 223 148
GlifName: germandbls
Width: 508
GlyphClass: 2
Flags: W
HStem: -16 22<151.032 314.705> 0 21G<70 92> 349 22<191 295.142> 693 22<198.898 320.633>
VStem: 70 22<0 572.943> 416 22<480.699 597.036> 436 22<122.918 243.633>
LayerCount: 2
Fore
SplineSet
295 361 m 1x7c
 414 336 458 265 458 186 c 0
 458 86 394 -12 255 -16 c 0
 194 -18 151 -9 151 -9 c 1
 151 13 l 1
 151 13 195 4 253 6 c 0
 367 9 436 86 436 186 c 0xba
 436 272 376 349 191 349 c 1
 191 371 l 1
 360 371 416 455 416 538 c 0
 416 614 366 693 260 693 c 0
 141 693 92 596 92 500 c 2
 92 0 l 1
 70 0 l 1
 70 500 l 2
 70 643 151 715 260 715 c 0
 365 715 438 640 438 538 c 0
 438 473 408 392 295 361 c 1x7c
EndSplineSet
EndChar

StartChar: ae
Encoding: 230 230 155
GlifName: ae
Width: 959
GlyphClass: 2
Flags: HW
HStem: -10 22<137.309 272.637 607.124 761.152> 252 22<453 886> 488 22<185.894 331.347 607.464 746.952>
VStem: 46 22<69.9853 151.308> 53 23<345.565 387.309> 432 20<92.6207 384.155> 886 24<274 348.03> 894 19<130.81 147.316>
AnchorPoint: "Anchor-0" 446 0 basechar 0
AnchorPoint: "Anchor-2" 451 540 basechar 0
LayerCount: 2
Fore
SplineSet
452 252 m 1xe6
 452 105.492170438 542.003713394 12 683.044921875 12 c 0
 789.413163645 12 869.348810854 65.4280869491 894 153 c 1
 913 144 l 1xe5
 887.100370797 48.4477896905 800.295232859 -10 684.283203125 -10 c 0
 533.203537012 -10 432 92.5346985865 432 245.6015625 c 0
 432 399.638721687 534.310331263 510 677.110351562 510 c 0
 818.339191911 510 910 416.599597157 910 272.690429688 c 0
 910 264.595939551 909.692737445 258.238545251 909 252 c 1
 452 252 l 1xe6
678.94921875 488 m 0
 554.287278962 488 463.307572093 401.831712374 453 274 c 1
 886 274 l 1xe6
 886 400.798471004 801.63016493 488 678.94921875 488 c 0
198 -10 m 0
 110.03510035 -10 46 40.5540265923 46 110 c 0xf4
 46 181.678531571 110.404840504 233.482992303 230 258 c 2
 430 299 l 1
 430 326 l 2
 430 431.484337708 369.646854466 488 257 488 c 0
 154.306044447 488 84.1320348726 430.620146867 76 340 c 1
 53 348 l 1xec
 69.0514068362 448.23845816 146.825200264 510 257 510 c 0
 382.402449822 510 452 444.328465473 452 326 c 2
 452 300 l 1
 450 300 l 1
 450 269 l 2
 450 92.9898475935 348.040741638 -10 198 -10 c 0
198 12 m 0
 344.648144753 12 430 109.124524936 430 276 c 1
 237 237 l 2
 125.163183936 214.40085064 68 170.767774714 68 108 c 0
 68 52.7360569815 123.163410496 12 198 12 c 0
EndSplineSet
EndChar

StartChar: eth
Encoding: 240 240 165
GlifName: eth
Width: 612
GlyphClass: 2
Flags: HW
HStem: -16 22<214.707 356.777> 444 22<218.694 354.582> 694 22<132.497 310.206>
VStem: 50 21<154.242 292.713> 503 29<186.766 462.508>
LayerCount: 2
Fore
SplineSet
131 554 m 1
 131 577 l 1
 505 694 l 1
 505 671 l 1
 131 554 l 1
552 282.659378122 m 0
 552 98.5750365551 455.214394424 -16 299.711808421 -16 c 0
 151.694707231 -16 50 88.1022261789 50 239.623481965 c 0
 50 390.371269887 153.288654502 500 295.318359375 500 c 0
 402.439406929 500 499.678967706 421.447505149 530 316 c 1
 526 316 l 1
 526 378.157591033 487.938352281 453.287973922 411 543 c 2
 276.354492188 700 l 1
 307 700 l 1
 426.967773438 559.751953125 l 2
 522.24450653 448.368909613 552 382.425700147 552 282.659378122 c 0
295.256923916 6 m 0
 426.294320914 6 523 102.569792693 523 233.42306194 c 0
 523 369.139095836 420.771148338 478 293.323242188 478 c 0
 165.709095801 478 71 376.498929741 71 239.733053888 c 0
 71 102.902351582 163.973684827 6 295.256923916 6 c 0
EndSplineSet
EndChar

StartChar: divide
Encoding: 247 247 172
GlifName: divide
Width: 516
GlyphClass: 2
Flags: W
HStem: 129 40<238 278> 293 22<58 458> 439 40<238 278>
VStem: 238 40<129 169 439 479>
CounterMasks: 1 e0
LayerCount: 2
Fore
SplineSet
238 439 m 1
 238 479 l 1
 278 479 l 1
 278 439 l 1
 238 439 l 1
58 293 m 1
 58 315 l 1
 458 315 l 1
 458 293 l 1
 58 293 l 1
238 129 m 1
 238 169 l 1
 278 169 l 1
 278 129 l 1
 238 129 l 1
EndSplineSet
EndChar

StartChar: oslash
Encoding: 248 248 173
GlifName: oslash
Width: 596
GlyphClass: 2
Flags: W
HStem: -16 22<225.185 370.815> 494 22<225.185 370.815>
VStem: 46 22<173.637 327.829> 528 22<173.637 327.829>
AnchorPoint: "Anchor-0" 298 -16 basechar 0
AnchorPoint: "Anchor-1" 298 -6 basechar 0
AnchorPoint: "Anchor-2" 298 540 basechar 0
AnchorPoint: "Anchor-3" 298 250 basechar 0
AnchorPoint: "Anchor-4" 598 500 basechar 0
LayerCount: 2
Fore
SplineSet
33 0 m 1
 549 516 l 1
 564 501 l 1
 48 -15 l 1
 33 0 l 1
46 251 m 0
 46 410 147.02734375 516 298 516 c 0
 448.97265625 516 550 410 550 251 c 0
 550 91 448.97265625 -16 298 -16 c 0
 147.02734375 -16 46 91 46 251 c 0
68 251 m 0
 68 104 160 6 298 6 c 0
 436 6 528 104 528 251 c 0
 528 397 436 494 298 494 c 0
 160 494 68 397 68 251 c 0
EndSplineSet
EndChar

StartChar: thorn
Encoding: 254 254 179
GlifName: thorn
Width: 597
GlyphClass: 2
Flags: HW
HStem: -200 21G<66 88> -16 22<217.21 327.074> 494 22<217.21 327.074> 680 20G<66 88>
VStem: 66 22<-200 135 167.392 332.608 365 700> 449 22<161.754 338.246>
LayerCount: 2
Fore
SplineSet
88 -200 m 5x7c
 66 -200 l 5x7c
 66 700 l 1
 88 700 l 1
 88 350 l 1
 93.234375 397.024414062 172.08203125 510 311 510 c 0
 459.799804688 510 551 396.616210938 551 250 c 0
 551 103.383789062 459.799804688 -10 311 -10 c 0xbc
 172.08203125 -10 94.28125 102.975585938 88 150 c 1
 88 -200 l 5x7c
88 250 m 0
 88 107.58984375 192.797851562 12 311 12 c 0xbc
 446.943359375 12 529 117.344726562 529 250 c 0
 529 382.655273438 446.943359375 488 311 488 c 0
 192.797851562 488 88 392.41015625 88 250 c 0
EndSplineSet
EndChar

StartChar: dcroat
Encoding: 273 273 198
GlifName: dcroat
Width: 597
GlyphClass: 2
Flags: HW
HStem: -10 22<214.976 351.316> 0 21G<509 531> 488 22<214.976 351.355> 589 22<317 647> 680 20G<509 531>
VStem: 46 22<172.38 327.62> 509 22<0 150 175.154 324.846 350 700>
LayerCount: 2
Fore
SplineSet
317 589 m 1x3e
 317 611 l 1
 647 611 l 5
 647 589 l 5
 317 589 l 1x3e
531 700 m 1
 531 0 l 1
 509 0 l 1x7e
 509 150 l 1
 502.71875 102.975585938 424.91796875 -10 286 -10 c 0xbe
 137.200195312 -10 46 103.383789062 46 250 c 0
 46 396.616210938 137.200195312 510 286 510 c 0
 424.91796875 510 503.765625 397.024414062 509 350 c 1
 509 700 l 1
 531 700 l 1
509 250 m 0
 509 392.41015625 404.202148438 488 286 488 c 0
 150.056640625 488 68 382.655273438 68 250 c 0
 68 117.344726562 150.056640625 12 286 12 c 0xbe
 404.202148438 12 509 107.58984375 509 250 c 0
EndSplineSet
EndChar

StartChar: Hbar
Encoding: 294 294 219
GlifName: H_bar
Width: 670
GlyphClass: 2
Flags: W
HStem: 0 21G<70 92 578 600> 333 22<92 578> 541 22<-20 690> 680 20G<70 92 578 600>
VStem: 70 22<0 333 355 700> 578 22<0 333 355 700>
LayerCount: 2
Fore
SplineSet
-20 541 m 5
 -20 563 l 5
 690 563 l 1
 690 541 l 1
 -20 541 l 5
92 0 m 1
 70 0 l 1
 70 700 l 1
 92 700 l 1
 92 355 l 1
 578 355 l 1
 578 700 l 1
 600 700 l 1
 600 0 l 1
 578 0 l 1
 578 333 l 1
 92 333 l 1
 92 0 l 1
EndSplineSet
EndChar

StartChar: hbar
Encoding: 295 295 220
GlifName: hbar
Width: 552
GlyphClass: 2
Flags: HW
HStem: 0 21G<66 88 464 486> 488 22<228.428 353.64> 589 22<-50 280> 680 20G<66 88>
VStem: 66 22<0 700> 464 22<0 369.99>
LayerCount: 2
Fore
SplineSet
-50 589 m 1
 -50 611 l 1
 280 611 l 1
 280 589 l 1
 -50 589 l 1
88 0 m 1
 66 0 l 1
 66 700 l 1
 88 700 l 1
 88 362 l 1
 114.955078125 448.217773438 199.744140625 510 291.112304688 510 c 0
 409.877929688 510 486 426.803710938 486 297 c 2
 486 0 l 1
 464 0 l 1
 464 294 l 2
 464 412.923828125 396.676757812 488 290.033203125 488 c 0
 186.2265625 488 88 393.6796875 88 294 c 2
 88 0 l 1
EndSplineSet
EndChar

StartChar: dotlessi
Encoding: 305 305 230
GlifName: dotlessi
Width: 162
GlyphClass: 2
Flags: W
HStem: 0 21G<70 92> 480 20G<70 92>
VStem: 70 22<0 500>
AnchorPoint: "Anchor-2" 81 540 basechar 0
AnchorPoint: "Anchor-1" 85 9 basechar 0
AnchorPoint: "Anchor-0" 81 0 basechar 0
LayerCount: 2
Fore
SplineSet
92 0 m 1
 70 0 l 1
 70 500 l 1
 92 500 l 1
 92 0 l 1
EndSplineSet
EndChar

StartChar: Lslash
Encoding: 321 321 244
GlifName: L_slash
Width: 584
GlyphClass: 2
Flags: W
HStem: 0 22<92 538> 680 20G<70 92>
VStem: 70 22<22 315 349 700>
AnchorPoint: "Anchor-4" 710 700 basechar 0
AnchorPoint: "Anchor-3" 473 350 basechar 0
AnchorPoint: "Anchor-2" 82 716 basechar 0
AnchorPoint: "Anchor-0" 295 -16 basechar 0
LayerCount: 2
Fore
SplineSet
92 325 m 1
 92 22 l 1
 538 22 l 1
 538 0 l 1
 70 0 l 1
 70 315 l 1
 -24 271 l 1
 -24 295 l 1
 70 339 l 1
 70 700 l 1
 92 700 l 1
 92 349 l 1
 359 474 l 1
 359 450 l 1
 92 325 l 1
EndSplineSet
EndChar

StartChar: lslash
Encoding: 322 322 245
GlifName: lslash
Width: 154
GlyphClass: 2
Flags: W
HStem: 0 21G<66 88> 680 20G<66 88>
VStem: 66 22<0 379 414 700>
AnchorPoint: "Anchor-4" 156 716 basechar 0
AnchorPoint: "Anchor-3" 77 400 basechar 0
AnchorPoint: "Anchor-2" 77 716 basechar 0
AnchorPoint: "Anchor-0" 76 -16 basechar 0
LayerCount: 2
Fore
SplineSet
88 414 m 5
 206 469 l 5
 206 445 l 5
 88 390 l 5
 88 0 l 1
 66 0 l 1
 66 379 l 5
 -61 320 l 5
 -61 344 l 5
 66 403 l 5
 66 700 l 1
 88 700 l 1
 88 414 l 5
EndSplineSet
EndChar

StartChar: Eng
Encoding: 330 330 252
GlifName: E_ng
Width: 636
GlyphClass: 2
Flags: W
HStem: -200 22<382 531.072> 0 21G<70 92> 680 20G<70 114.145 544 566>
VStem: 70 22<0 674> 544 22<-165.35 -13 26 700>
LayerCount: 2
Fore
SplineSet
92 0 m 1
 70 0 l 1
 70 700 l 1
 101 700 l 1
 544 26 l 1
 544 700 l 1
 566 700 l 1
 566 -118 l 2
 566 -175 542 -200 486 -200 c 2
 382 -200 l 1
 382 -178 l 1
 496 -178 l 2
 530 -178 544 -163 544 -128 c 2
 544 -13 l 1
 92 674 l 1
 92 0 l 1
EndSplineSet
EndChar

StartChar: eng
Encoding: 331 331 253
GlifName: eng
Width: 532
GlyphClass: 2
Flags: W
HStem: -200 22<302 431.072> 0 21G<66 88> 480 20G<66 88> 494 22<216.411 327.299>
VStem: 66 22<0 343.391 365 500> 444 22<-165.35 346.933>
LayerCount: 2
Fore
SplineSet
88 0 m 1xdc
 66 0 l 1
 66 500 l 1
 88 500 l 1xec
 88 365 l 1
 88 391 149 516 269 516 c 0
 405 516 466 382 466 274 c 2
 466 -118 l 2
 466 -175 442 -200 386 -200 c 2
 302 -200 l 1
 302 -178 l 1
 396 -178 l 2
 430 -178 444 -163 444 -128 c 2
 444 274 l 2
 444 362 395 494 269 494 c 0
 145 494 88 347 88 284 c 2
 88 0 l 1xdc
EndSplineSet
EndChar

StartChar: OE
Encoding: 338 338 260
GlifName: O_E_
Width: 1189
GlyphClass: 2
Flags: W
HStem: -16 22<310.934 485.17> 692 22<310.934 485.17>
VStem: 50 22<255.627 443.741> 721 22<351 373>
LayerCount: 2
Fore
SplineSet
72 350 m 0
 72 555 199.719726563 692 397 692 c 0
 593.225585938 692 721 555 721 350 c 0
 721 144 593.225585938 6 397 6 c 0
 199.719726563 6 72 144 72 350 c 0
50 350 m 0
 50 130 188.225062477 -16 395 -16 c 0
 601.850117413 -16 739 130 739 350 c 0
 739 568 601.850117413 714 395 714 c 0
 188.225062477 714 50 568 50 350 c 0
721 0 m 1
 1149 0 l 1
 1149 23 l 1
 743 23 l 1
 743 351 l 1
 1057 351 l 1
 1057 373 l 1
 743 373 l 1
 743 678 l 1
 1133 678 l 1
 1133 700 l 1
 721 700 l 1
 721 0 l 1
EndSplineSet
EndChar

StartChar: oe
Encoding: 339 339 261
GlifName: oe
Width: 1057
GlyphClass: 2
Flags: W
HStem: -16 22<224.475 369.525 731.484 832.219> 252 22<551 984> 494 22<224.475 369.525 729.3 823.446>
VStem: 46 22<173.637 327.829> 532 14<92.4326 399.603> 984 24<274 349.872> 992 19<130.816 147.316>
LayerCount: 2
Fore
SplineSet
550 252 m 1xfc
 550 217.41015625 559.333984375 12 781.044921875 12 c 0
 887.475585938 12 967.36328125 65.4794921875 992 153 c 1
 1011 144 l 1xfa
 985.340614097 48.4990234375 899.34241799 -10 784.283203125 -10 c 0
 633.304321862 -10 532 92.4326171875 532 245.6015625 c 0
 532 399.602539062 634.276791429 510 777.110351562 510 c 0
 912.225123837 510 1008 421.561523438 1008 272.690429688 c 0
 1008 264.591796875 1007.69238281 258.235351562 1007 252 c 1
 550 252 l 1xfc
776.94921875 488 m 0
 653.342773438 488 561.39453125 402.91015625 551 274 c 1
 984 274 l 1xfc
 984 400.80078125 899.627929688 488 776.94921875 488 c 0
46 251 m 0
 46 410 146.225539435 516 296 516 c 0
 445.774460565 516 546 410 546 251 c 0
 546 91 445.774460565 -16 296 -16 c 0
 146.225539435 -16 46 91 46 251 c 0
68 251 m 0
 68 104 160 6 298 6 c 0
 436 6 528 104 528 251 c 0
 528 397 436 494 298 494 c 0
 160 494 68 397 68 251 c 0
EndSplineSet
EndChar

StartChar: Tbar
Encoding: 358 358 280
GlifName: T_bar
Width: 554
GlyphClass: 2
Flags: W
HStem: 0 21G<266 288> 395 22<113 266 288 441> 678 22<30 266 288 524>
VStem: 266 22<0 395 417 678>
AnchorPoint: "Anchor-3" 277 406 basechar 0
AnchorPoint: "Anchor-2" 277 716 basechar 0
AnchorPoint: "Anchor-0" 274 -9 basechar 0
LayerCount: 2
Fore
SplineSet
524 700 m 1
 524 678 l 1
 288 678 l 1
 288 417 l 1
 441 417 l 1
 441 395 l 1
 288 395 l 1
 288 0 l 1
 266 0 l 1
 266 395 l 1
 113 395 l 1
 113 417 l 1
 266 417 l 1
 266 678 l 1
 30 678 l 1
 30 700 l 1
 524 700 l 1
EndSplineSet
EndChar

StartChar: tbar
Encoding: 359 359 281
GlifName: tbar
Width: 381
GlyphClass: 2
Flags: W
HStem: 0 22<204.896 341> 268 22<40 325> 478 22<40 153 175 325>
VStem: 153 22<51.8956 478 500 607>
LayerCount: 2
Fore
SplineSet
40 268 m 1
 40 290 l 1
 325 290 l 1
 325 268 l 1
 40 268 l 1
153 478 m 1
 40 478 l 1
 40 500 l 1
 153 500 l 1
 153 607 l 1
 175 612 l 1
 175 500 l 1
 325 500 l 1
 325 478 l 1
 175 478 l 1
 175 93 l 2
 175 48 201 22 246 22 c 2
 341 22 l 1
 341 0 l 1
 241 0 l 2
 188.01171875 0 153 35.01171875 153 88 c 2
 153 478 l 1
EndSplineSet
EndChar

StartChar: uni0186
Encoding: 390 390 305
GlifName: uni0186
Width: 654
GlyphClass: 2
Flags: W
HStem: -16 22<240.447 387.012> 694 22<240.858 387.012>
VStem: 50 23<180.6 207.13 494.773 521.048> 581 23<245.671 461.072>
LayerCount: 2
Fore
SplineSet
50 205 m 1
 73 212 l 1
 102 112 167 6 315 6 c 0
 475 6 581 144 581 352 c 0
 581 557 475 694 315 694 c 0
 169 694 103 595 72 490 c 1
 50 497 l 1
 88 628 172 716 315 716 c 0
 500 716 604 559 604 352 c 0
 604 141 500 -16 315 -16 c 0
 172 -16 88 72 50 205 c 1
EndSplineSet
EndChar

StartChar: florin
Encoding: 402 402 306
GlifName: florin
Width: 531
GlyphClass: 2
Flags: W
HStem: -200 22<30 132.897> 478 22<209 309 335 446> 694 22<414.998 500>
LayerCount: 2
Fore
SplineSet
476 716 m 2
 501 716 l 1
 500 694 l 1
 458 694 l 2
 375 694 357 608 348 561 c 2
 335 500 l 1
 446 500 l 1
 446 478 l 1
 331 478 l 1
 218 -65 l 2
 203 -138 174 -200 73 -200 c 2
 30 -200 l 1
 30 -178 l 1
 81 -178 l 2
 167 -178 185 -116 200 -45 c 2
 309 478 l 1
 209 478 l 1
 209 500 l 1
 313 500 l 1
 330 581 l 2
 352 689 399 716 476 716 c 2
EndSplineSet
EndChar

StartChar: uni0237
Encoding: 567 567 322
GlifName: uni0237
Width: 164
GlyphClass: 2
Flags: W
HStem: -200 22<-51 57.6178> 480 20G<71 93>
VStem: 71 22<-164.825 500>
AnchorPoint: "Anchor-0" 59 -200 basechar 0
AnchorPoint: "Anchor-2" 84 500 basechar 0
LayerCount: 2
Fore
SplineSet
26 -200 m 2
 -51 -200 l 1
 -51 -178 l 1
 23 -178 l 2
 57 -178 71 -163 71 -128 c 2
 71 500 l 1
 93 500 l 1
 93 -127 l 2
 93 -177.744140625 68.900390625 -200 26 -200 c 2
EndSplineSet
EndChar

StartChar: circumflex
Encoding: 710 710 323
GlifName: circumflex
Width: 358
GlyphClass: 4
Flags: W
HStem: 552 148
VStem: 50 258
AnchorPoint: "Anchor-6" 179 700 basemark 0
LayerCount: 2
Fore
SplineSet
201 700 m 1
 308 552 l 1
 281 552 l 1
 179 674 l 1
 77 552 l 1
 50 552 l 1
 157 700 l 1
 201 700 l 1
EndSplineSet
EndChar

StartChar: caron
Encoding: 711 711 324
GlifName: caron
Width: 358
GlyphClass: 4
Flags: W
HStem: 552 148
VStem: 50 258
AnchorPoint: "Anchor-6" 179 700 basemark 0
LayerCount: 2
Fore
SplineSet
179 578 m 1
 281 700 l 1
 308 700 l 1
 201 552 l 1
 157 552 l 1
 50 700 l 1
 77 700 l 1
 179 578 l 1
EndSplineSet
EndChar

StartChar: breve
Encoding: 728 728 325
GlifName: breve
Width: 336
GlyphClass: 4
Flags: W
HStem: 581 22<119.345 216.655>
VStem: 50 23<642.127 680> 263 23<642.127 680>
AnchorPoint: "Anchor-6" 168 700 basemark 0
LayerCount: 2
Fore
SplineSet
263 680 m 1
 286 680 l 1
 286 632 241 581 168 581 c 0
 95 581 50 632 50 680 c 1
 73 680 l 1
 73 627 127 603 168 603 c 0
 209 603 263 627 263 680 c 1
EndSplineSet
EndChar

StartChar: dotaccent
Encoding: 729 729 326
GlifName: dotaccent
Width: 148
GlyphClass: 4
Flags: HW
HStem: 600 48<50 98>
VStem: 50 48<600 648>
AnchorPoint: "Anchor-6" 74 708 basemark 0
LayerCount: 2
Fore
SplineSet
50 600 m 1
 50 648 l 1
 98 648 l 1
 98 600 l 1
 50 600 l 1
EndSplineSet
EndChar

StartChar: ring
Encoding: 730 730 327
GlifName: ring
Width: 252
GlyphClass: 4
Flags: W
HStem: 568 22<94.1635 157.837> 698 22<94.1635 157.837>
VStem: 50 22<611.618 676.139> 180 22<611.618 676.139>
AnchorPoint: "Anchor-6" 126 764 basemark 0
LayerCount: 2
Fore
SplineSet
126 568 m 0
 84 568 50 602 50 645 c 0
 50 686 84 720 126 720 c 0
 168 720 202 686 202 645 c 0
 202 602 168 568 126 568 c 0
126 590 m 0
 156 590 180 614 180 645 c 0
 180 674 156 698 126 698 c 0
 96 698 72 674 72 645 c 0
 72 614 96 590 126 590 c 0
EndSplineSet
EndChar

StartChar: ogonek
Encoding: 731 731 328
GlifName: ogonek
Width: 235
GlyphClass: 2
Flags: W
HStem: -209 22<83.4451 185> -34 20G<114 159>
VStem: 50 22<-177.009 -104.468>
LayerCount: 2
Fore
SplineSet
137 -14 m 1
 159 -18 l 1
 96 -71 72 -109 72 -151 c 0
 72 -192 129 -202 185 -187 c 1
 185 -209 l 1
 112 -228 50 -206 50 -148 c 0
 50 -93 91 -51 137 -14 c 1
EndSplineSet
EndChar

StartChar: tilde
Encoding: 732 732 329
GlifName: tilde
Width: 360
GlyphClass: 4
Flags: W
HStem: 593 22<202.866 257.85> 647 22<97.4433 154.208>
VStem: 50 260
AnchorPoint: "Anchor-6" 180 716 basemark 0
LayerCount: 2
Fore
SplineSet
50 611 m 1
 64 640 84 669 124 669 c 0
 178 669 191 615 233 615 c 0
 265 615 285 663 285 663 c 1
 310 658 l 1
 295 628 275 593 233 593 c 0
 174 593 168 647 124 647 c 0
 93 647 73 605 73 605 c 1
 50 611 l 1
EndSplineSet
EndChar

StartChar: hungarumlaut
Encoding: 733 733 330
GlifName: hungarumlaut
Width: 340
GlyphClass: 4
Flags: W
HStem: 552 148
VStem: 50 240
AnchorPoint: "Anchor-6" 170 700 basemark 0
LayerCount: 2
Fore
SplineSet
127 700 m 1
 173 700 l 1
 77 552 l 1
 50 552 l 1
 127 700 l 1
244 700 m 1
 290 700 l 1
 194 552 l 1
 167 552 l 1
 244 700 l 1
EndSplineSet
EndChar

StartChar: gravecomb
Encoding: 768 768 331
GlifName: gravecomb
Width: 20
GlyphClass: 4
Flags: HW
HStem: 552 148
VStem: -153 123
AnchorPoint: "Anchor-6" -74 700 basemark 0
AnchorPoint: "Anchor-6" -74 500 mark 0
AnchorPoint: "Anchor-2" -74 500 mark 0
LayerCount: 2
Fore
SplineSet
-80 552 m 5
 -196 700 l 5
 -165 700 l 1
 -50 552 l 1
 -80 552 l 5
EndSplineSet
EndChar

StartChar: acutecomb
Encoding: 769 769 332
GlifName: acutecomb
Width: 20
GlyphClass: 4
Flags: HW
HStem: 552 148
VStem: -153 123
AnchorPoint: "Anchor-6" -111 700 basemark 0
AnchorPoint: "Anchor-6" -111 500 mark 0
AnchorPoint: "Anchor-2" -111 500 mark 0
LayerCount: 2
Fore
SplineSet
-103 552 m 1
 -133 552 l 1
 -8 700 l 1
 23 700 l 1
 -103 552 l 1
EndSplineSet
EndChar

StartChar: uni0302
Encoding: 770 770 333
GlifName: uni0302
Width: 20
GlyphClass: 4
Flags: W
HStem: 552 148
VStem: -318 318
AnchorPoint: "Anchor-6" -159 700 basemark 0
AnchorPoint: "Anchor-6" -159 500 mark 0
AnchorPoint: "Anchor-2" -159 500 mark 0
LayerCount: 2
Fore
SplineSet
-143 700 m 1
 0 552 l 1
 -31 552 l 5
 -159 685 l 1
 -287 552 l 1
 -318 552 l 1
 -175 700 l 1
 -143 700 l 1
EndSplineSet
EndChar

StartChar: tildecomb
Encoding: 771 771 334
GlifName: tildecomb
Width: 20
GlyphClass: 4
Flags: HW
HStem: 573 22<-123.078 -68.7169> 657 22<-254.966 -194.687>
VStem: -300 21<581.667 626.304> -42 22<630.574 675.955>
AnchorPoint: "Anchor-6" -160 716 basemark 0
AnchorPoint: "Anchor-6" -160 500 mark 0
AnchorPoint: "Anchor-2" -160 500 mark 0
LayerCount: 2
Fore
SplineSet
-300 583 m 1
 -293.683470192 661.724811885 -256.401438208 679 -223 679 c 0
 -163.051205462 679 -138.973117132 595 -97 595 c 0
 -66.1733821111 595 -47.3916361806 615.546392344 -42 678 c 1
 -20 675 l 1
 -26.6763213069 588.402118472 -66.7247063253 573 -97 573 c 0
 -160.151376147 573 -168.885321101 657 -226 657 c 0
 -252.146021902 657 -275.138556394 639.858008802 -279 579 c 1
 -300 583 l 1
EndSplineSet
EndChar

StartChar: uni0304
Encoding: 772 772 335
GlifName: uni0304
Width: 20
GlyphClass: 4
Flags: W
HStem: 606 22<-290 -10>
VStem: -290 280<606 628>
AnchorPoint: "Anchor-6" -150 700 basemark 0
AnchorPoint: "Anchor-6" -150 500 mark 0
AnchorPoint: "Anchor-2" -150 500 mark 0
LayerCount: 2
Fore
SplineSet
-290 606 m 5
 -290 628 l 5
 -10 628 l 1
 -10 606 l 1
 -290 606 l 5
EndSplineSet
EndChar

StartChar: uni0306
Encoding: 774 774 336
GlifName: uni0306
Width: 20
GlyphClass: 4
Flags: HW
HStem: 581 20<-199.92 -96.0802>
VStem: -266 23<637.991 680> -53 23<637.829 680>
AnchorPoint: "Anchor-6" -148 700 basemark 0
AnchorPoint: "Anchor-6" -148 500 mark 0
AnchorPoint: "Anchor-2" -148 500 mark 0
LayerCount: 2
Fore
SplineSet
-33 690 m 5
 -10 690 l 1
 -10 618.320652636 -64.8760509559 571 -148 571 c 0
 -230.864688899 571 -286 618.544217544 -286 690 c 1
 -263 690 l 5
 -263 630.24365753 -220.898781657 591 -148 591 c 0
 -75.1012183428 591 -33 630.24365753 -33 690 c 5
EndSplineSet
EndChar

StartChar: uni0307
Encoding: 775 775 337
GlifName: uni0307
Width: 20
GlyphClass: 4
Flags: HW
HStem: 600 48<-78 -30>
VStem: -78 48<600 648>
AnchorPoint: "Anchor-6" -54 708 basemark 0
AnchorPoint: "Anchor-6" -54 500 mark 0
AnchorPoint: "Anchor-2" -54 500 mark 0
LayerCount: 2
Fore
SplineSet
-70 610 m 1
 -70 642 l 1
 -38 642 l 1
 -38 610 l 1
 -70 610 l 1
EndSplineSet
EndChar

StartChar: uni0308
Encoding: 776 776 338
GlifName: uni0308
Width: 20
GlyphClass: 4
Flags: W
HStem: 600 48<-234 -186 -78 -30>
VStem: -234 48<600 648> -78 48<600 648>
AnchorPoint: "Anchor-6" -132 708 basemark 0
AnchorPoint: "Anchor-6" -132 500 mark 0
AnchorPoint: "Anchor-2" -132 500 mark 0
LayerCount: 2
Fore
SplineSet
-234 600 m 1
 -234 648 l 1
 -186 648 l 1
 -186 600 l 1
 -234 600 l 1
-78 600 m 1
 -78 648 l 1
 -30 648 l 1
 -30 600 l 1
 -78 600 l 1
EndSplineSet
EndChar

StartChar: hookabovecomb
Encoding: 777 777 339
GlifName: hookabovecomb
Width: 20
GlyphClass: 4
Flags: W
HStem: 679.596 20.0713<-129.741 -48.7894>
VStem: -178 19<629.789 648.464> -101 20<538 561.343> -29 22<610.872 662.513>
AnchorPoint: "Anchor-6" -93 717 basemark 0
AnchorPoint: "Anchor-6" -93 500 mark 0
AnchorPoint: "Anchor-2" -93 500 mark 0
LayerCount: 2
Fore
SplineSet
-90.0166015625 679.595703125 m 0
 -51.829146716 679.595703125 -29 662.536231283 -29 634 c 0
 -29 592.308943089 -101 597.62601626 -101 538 c 1
 -81 538 l 1
 -81 581.431751 -7 582.154929577 -7 633 c 0
 -7 674.164429717 -38.3694929585 699.666992188 -89.00390625 699.666992188 c 0
 -134.076461394 699.666992188 -169.952819636 673.166698428 -178 632 c 1
 -159 626 l 1
 -151.071427006 661.086865385 -127.121171227 679.595703125 -90.0166015625 679.595703125 c 0
EndSplineSet
EndChar

StartChar: uni030A
Encoding: 778 778 340
GlifName: uni030A_
Width: 20
GlyphClass: 4
Flags: W
HStem: 558 22<-148.289 -63.7113> 708 22<-148.289 -63.7113>
VStem: -202 22<609.436 679.214> -32 22<609.436 679.214>
AnchorPoint: "Anchor-6" -106 764 basemark 0
AnchorPoint: "Anchor-6" -106 500 mark 0
AnchorPoint: "Anchor-2" -106 500 mark 0
LayerCount: 2
Fore
SplineSet
-106 558 m 0
 -159.052631579 558 -202 593.025974026 -202 645 c 4
 -202 694.866666667 -159.052631579 730 -106 730 c 0
 -52.9473684211 730 -10 694.866666667 -10 645 c 0
 -10 593.025974026 -52.9473684211 558 -106 558 c 0
-106 580 m 0
 -64.8888888889 580 -32 604.818181818 -32 645 c 0
 -32 683.037735849 -64.8888888889 708 -106 708 c 0
 -147.111111111 708 -180 683.037735849 -180 645 c 4
 -180 604.818181818 -147.111111111 580 -106 580 c 0
EndSplineSet
EndChar

StartChar: uni030B
Encoding: 779 779 341
GlifName: uni030B_
Width: 20
GlyphClass: 4
Flags: W
HStem: 552 148
VStem: -270 240
AnchorPoint: "Anchor-6" -150 700 basemark 0
AnchorPoint: "Anchor-6" -150 500 mark 0
AnchorPoint: "Anchor-2" -150 500 mark 0
LayerCount: 2
Fore
SplineSet
-243 552 m 1
 -270 552 l 1
 -175 700 l 1
 -147 700 l 1
 -243 552 l 1
-126 552 m 1
 -153 552 l 1
 -58 700 l 1
 -30 700 l 1
 -126 552 l 1
EndSplineSet
EndChar

StartChar: uni030C
Encoding: 780 780 342
GlifName: uni030C_
Width: 20
GlyphClass: 4
Flags: W
HStem: 552 148
VStem: -318 318
AnchorPoint: "Anchor-6" -159 700 basemark 0
AnchorPoint: "Anchor-6" -159 500 mark 0
AnchorPoint: "Anchor-2" -159 500 mark 0
LayerCount: 2
Fore
SplineSet
-175 552 m 1
 -318 700 l 1
 -287 700 l 1
 -159 567 l 1
 -31 700 l 1
 0 700 l 1
 -143 552 l 1
 -175 552 l 1
EndSplineSet
EndChar

StartChar: uni0312
Encoding: 786 786 343
GlifName: uni0312
Width: 20
GlyphClass: 4
Flags: W
HStem: 552 148
VStem: -153 123
AnchorPoint: "Anchor-6" -89 816 basemark 0
AnchorPoint: "Anchor-6" -89 500 mark 0
AnchorPoint: "Anchor-2" -89 500 mark 0
LayerCount: 2
Fore
SplineSet
-107 552 m 5
 -153 552 l 1
 -57 700 l 1
 -30 700 l 1
 -107 552 l 5
EndSplineSet
EndChar

StartChar: uni031B
Encoding: 795 795 344
GlifName: uni031B_
Width: 20
GlyphClass: 4
Flags: W
HStem: 478 22<-79 2.31155>
VStem: 10 22<507.809 563>
AnchorPoint: "Anchor-7" -74 715 basemark 0
AnchorPoint: "Anchor-7" -79 500 mark 0
AnchorPoint: "Anchor-4" -79 500 mark 0
LayerCount: 2
Fore
SplineSet
-79 500 m 1
 -28 500 l 2
 9 500 10 522.708860759 10 539 c 2
 10 563 l 1
 32 563 l 1
 32 536 l 2
 32 499.911111111 15 478 -28 478 c 2
 -79 478 l 1
 -79 500 l 1
EndSplineSet
EndChar

StartChar: dotbelowcomb
Encoding: 803 803 345
GlifName: dotbelowcomb
Width: 20
GlyphClass: 4
Flags: HW
HStem: -156 48<-78 -30>
VStem: -78 48<-156 -108>
AnchorPoint: "Anchor-5" -54 -126 basemark 0
AnchorPoint: "Anchor-5" -54 0 mark 0
AnchorPoint: "Anchor-0" -54 0 mark 0
LayerCount: 2
Fore
SplineSet
-70 -140 m 1
 -70 -108 l 1
 -38 -108 l 1
 -38 -140 l 1
 -70 -140 l 1
EndSplineSet
EndChar

StartChar: uni0326
Encoding: 806 806 346
GlifName: uni0326
Width: 20
GlyphClass: 4
Flags: HW
HStem: -180 148
VStem: -153 123
AnchorPoint: "Anchor-5" -92 -200 basemark 0
AnchorPoint: "Anchor-5" -60 0 mark 0
AnchorPoint: "Anchor-0" -60 0 mark 0
LayerCount: 2
Fore
SplineSet
-76 -52 m 1
 -48 -52 l 5
 -126 -200 l 1
 -153 -200 l 1
 -76 -52 l 1
EndSplineSet
EndChar

StartChar: uni0327
Encoding: 807 807 347
GlifName: uni0327
Width: 20
GlyphClass: 4
Flags: HW
VStem: -53 23<-167.42 -102.848>
AnchorPoint: "Anchor-5" -103 -216 basemark 0
AnchorPoint: "Anchor-5" -126 0 mark 0
AnchorPoint: "Anchor-0" -126 0 mark 0
LayerCount: 2
Fore
SplineSet
-163 -53 m 1
 -134 3 l 5
 -112 3 l 5
 -140 -53 l 1
 -119 -53 l 2
 -65.7154670339 -53 -30 -86.3076827394 -30 -136 c 0
 -30 -183.198928938 -61.9810442851 -216 -108 -216 c 2
 -197 -216 l 1
 -197 -194 l 1
 -114 -194 l 2
 -75.3418662298 -194 -53 -172.024393872 -53 -134 c 0
 -53 -98.1559492672 -80.4731601476 -75 -123 -75 c 2
 -163 -75 l 1
 -163 -53 l 1
EndSplineSet
EndChar

StartChar: uni0328
Encoding: 808 808 348
GlifName: uni0328
Width: 20
GlyphClass: 4
Flags: HW
HStem: -209 22<-131.555 -30> -34 20G<-101 -56>
VStem: -165 22<-177.009 -104.468>
AnchorPoint: "Anchor-1" -68 -11 mark 0
LayerCount: 2
Fore
SplineSet
-78 5 m 1
 -56 1 l 1
 -111.75862069 -51.6015037594 -133 -89.3157894737 -133 -131 c 0
 -133 -173.488372093 -100.692307692 -194 -58 -194 c 2
 -10 -194 l 1
 -10 -216 l 1
 -59 -216 l 2
 -114.813953488 -216 -155 -184.941176471 -155 -128 c 0
 -155 -73.4104477612 -118.712643678 -31.723880597 -78 5 c 1
EndSplineSet
EndChar

StartChar: uni0335
Encoding: 821 821 349
GlifName: uni0335
Width: 20
GlyphClass: 4
Flags: W
HStem: 339 22<-358 -30>
VStem: -358 328<339 361>
AnchorPoint: "Anchor-3" -194 350 mark 0
LayerCount: 2
Fore
SplineSet
-358 339 m 1
 -358 361 l 1
 -30 361 l 1
 -30 339 l 1
 -358 339 l 1
EndSplineSet
EndChar

StartChar: uni0336
Encoding: 822 822 350
GlifName: uni0336
Width: 20
GlyphClass: 4
Flags: W
HStem: 339 22<-678 -30>
AnchorPoint: "Anchor-3" -354 350 mark 0
LayerCount: 2
Fore
SplineSet
-678 339 m 1
 -678 361 l 1
 -30 361 l 1
 -30 339 l 1
 -678 339 l 1
EndSplineSet
EndChar

StartChar: uni0337
Encoding: 823 823 351
GlifName: uni0337
Width: 20
GlyphClass: 4
Flags: W
HStem: 400 149
VStem: -297 267
LayerCount: 2
Fore
SplineSet
-297 424 m 1
 -30 549 l 1
 -30 525 l 1
 -297 400 l 1
 -297 424 l 1
EndSplineSet
EndChar

StartChar: uni0338
Encoding: 824 824 352
GlifName: uni0338
Width: 20
GlyphClass: 4
Flags: W
HStem: -5 21G<-502 -468.799>
AnchorPoint: "Anchor-3" -271 330 mark 0
LayerCount: 2
Fore
SplineSet
-502 7 m 1
 -48 646 l 1
 -30 633 l 1
 -483 -5 l 1
 -502 7 l 1
EndSplineSet
EndChar

StartChar: uni1E9E
Encoding: 7838 7838 363
GlifName: uni1E_9E_
Width: 565
GlyphClass: 2
Flags: W
HStem: 0 21G<70 92> 694 22<210.736 345.19>
VStem: 70 22<0 565.788> 493 22<128.648 243.238>
LayerCount: 2
Fore
SplineSet
193 347 m 1
 181 367 l 1
 440 606 l 1
 440 606 404 694 274 694 c 0
 165 694 92 612 92 494 c 2
 92 0 l 1
 70 0 l 1
 70 494 l 2
 70 623 150 716 274 716 c 0
 429 716 467 600 467 600 c 1
 217 369 l 1
 217 369 515 398 515 189 c 0
 515 -20 270 -45 159 9 c 1
 159 31 l 1
 288 -28 493 17 493 189 c 0
 493 383 193 347 193 347 c 1
EndSplineSet
EndChar

StartChar: endash
Encoding: 8211 8211 367
GlifName: endash
Width: 552
GlyphClass: 2
Flags: W
HStem: 273 22<58 494>
LayerCount: 2
Fore
SplineSet
58 273 m 1
 58 295 l 1
 494 295 l 5
 494 273 l 5
 58 273 l 1
EndSplineSet
EndChar

StartChar: emdash
Encoding: 8212 8212 368
GlifName: emdash
Width: 870
GlyphClass: 2
Flags: W
HStem: 273 22<58 812>
LayerCount: 2
Fore
SplineSet
58 273 m 1
 58 295 l 1
 812 295 l 5
 812 273 l 5
 58 273 l 1
EndSplineSet
EndChar

StartChar: uni2015
Encoding: 8213 8213 369
GlifName: uni2015
Width: 856
GlyphClass: 2
Flags: W
HStem: 273 22<58 798>
LayerCount: 2
Fore
SplineSet
58 273 m 1
 58 295 l 1
 798 295 l 1
 798 273 l 1
 58 273 l 1
EndSplineSet
EndChar

StartChar: quoteleft
Encoding: 8216 8216 370
GlifName: quoteleft
Width: 179
GlyphClass: 2
Flags: W
HStem: 550 48<80 106> 686 22<90.4415 121>
VStem: 58 48<550 598> 58 22<598 676.548>
LayerCount: 2
Fore
SplineSet
80 598 m 5xd0
 106 598 l 1
 106 550 l 1
 58 550 l 1
 58 598 l 1xe0
 58 636 l 2
 58 683 79 708 111 708 c 2
 121 708 l 1
 121 686 l 1
 111 686 l 2
 92 686 80 670 80 636 c 2
 80 598 l 5xd0
EndSplineSet
EndChar

StartChar: quoteright
Encoding: 8217 8217 371
GlifName: quoteright
Width: 179
GlyphClass: 2
Flags: W
HStem: 543 22<58 88.5585> 653 48<73 99>
VStem: 73 48<653 701> 99 22<574.452 653>
LayerCount: 2
Fore
SplineSet
73 653 m 1xe0
 73 701 l 1
 121 701 l 1
 121 653 l 1xe0
 121 615 l 2
 121 568 100 543 68 543 c 2
 58 543 l 1
 58 565 l 1
 68 565 l 2
 87 565 99 581 99 615 c 2
 99 653 l 1xd0
 73 653 l 1xe0
EndSplineSet
EndChar

StartChar: quotesinglbase
Encoding: 8218 8218 372
GlifName: quotesinglbase
Width: 179
GlyphClass: 2
Flags: W
HStem: -110 22<58 88.5585> 0 48<73 99>
VStem: 73 48<0 48> 99 22<-78.5481 0>
LayerCount: 2
Fore
SplineSet
73 0 m 1xe0
 73 48 l 1
 121 48 l 1
 121 0 l 1xe0
 121 -38 l 2
 121 -85 100 -110 68 -110 c 2
 58 -110 l 1
 58 -88 l 1
 68 -88 l 2
 87 -88 99 -72 99 -38 c 2
 99 0 l 1xd0
 73 0 l 1xe0
EndSplineSet
EndChar

StartChar: quotedblleft
Encoding: 8220 8220 373
GlifName: quotedblleft
Width: 267
GlyphClass: 2
Flags: W
HStem: 550 48<80 106 168 194> 686 22<90.4415 121 178.441 209>
VStem: 58 48<550 598> 58 22<598 676.548> 146 48<550 598> 146 22<598 676.548>
LayerCount: 2
Fore
SplineSet
80 598 m 1xd0
 106 598 l 1
 106 550 l 1
 58 550 l 1
 58 598 l 1xe0
 58 636 l 2
 58 683 79 708 111 708 c 2
 121 708 l 1
 121 686 l 1
 111 686 l 2
 92 686 80 670 80 636 c 2
 80 598 l 1xd0
168 598 m 1xc4
 194 598 l 1
 194 550 l 1
 146 550 l 1
 146 598 l 1xc8
 146 636 l 2
 146 683 167 708 199 708 c 2
 209 708 l 1
 209 686 l 1
 199 686 l 2
 180 686 168 670 168 636 c 2
 168 598 l 1xc4
EndSplineSet
EndChar

StartChar: quotedblright
Encoding: 8221 8221 374
GlifName: quotedblright
Width: 267
GlyphClass: 2
Flags: W
HStem: 543 22<58 88.5585 146 176.559> 653 48<73 99 161 187>
VStem: 73 48<653 701> 99 22<574.452 653> 161 48<653 701> 187 22<574.452 653>
LayerCount: 2
Fore
SplineSet
99 653 m 1xd0
 73 653 l 1
 73 701 l 1
 121 701 l 1
 121 653 l 1xe0
 121 615 l 2
 121 568 100 543 68 543 c 2
 58 543 l 1
 58 565 l 1
 68 565 l 2
 87 565 99 581 99 615 c 2
 99 653 l 1xd0
161 653 m 1xc8
 161 701 l 1
 209 701 l 1
 209 653 l 1xc8
 209 615 l 2
 209 568 188 543 156 543 c 2
 146 543 l 1
 146 565 l 1
 156 565 l 2
 175 565 187 581 187 615 c 2
 187 653 l 1xc4
 161 653 l 1xc8
EndSplineSet
EndChar

StartChar: quotedblbase
Encoding: 8222 8222 375
GlifName: quotedblbase
Width: 267
GlyphClass: 2
Flags: W
HStem: -110 22<58 88.5585 146 176.559> 0 48<73 99 161 187>
VStem: 73 48<0 48> 99 22<-78.5481 0> 161 48<0 48> 187 22<-78.5481 0>
LayerCount: 2
Fore
SplineSet
99 0 m 1xd0
 73 0 l 1
 73 48 l 1
 121 48 l 1
 121 0 l 1xe0
 121 -38 l 2
 121 -85 100 -110 68 -110 c 2
 58 -110 l 1
 58 -88 l 1
 68 -88 l 2
 87 -88 99 -72 99 -38 c 2
 99 0 l 1xd0
161 0 m 1xc8
 161 48 l 1
 209 48 l 1
 209 0 l 1xc8
 209 -38 l 2
 209 -85 188 -110 156 -110 c 2
 146 -110 l 1
 146 -88 l 1
 156 -88 l 2
 175 -88 187 -72 187 -38 c 2
 187 0 l 1xc4
 161 0 l 1xc8
EndSplineSet
EndChar

StartChar: dagger
Encoding: 8224 8224 376
GlifName: dagger
Width: 440
GlyphClass: 2
Flags: W
HStem: 0 21G<209 231> 453 22<50 209 231 390> 680 20G<209 231>
VStem: 209 22<0 453 475 700>
LayerCount: 2
Fore
SplineSet
231 475 m 1
 390 475 l 1
 390 453 l 1
 231 453 l 1
 231 0 l 1
 209 0 l 1
 209 453 l 1
 50 453 l 1
 50 475 l 1
 209 475 l 1
 209 700 l 1
 231 700 l 1
 231 475 l 1
EndSplineSet
EndChar

StartChar: daggerdbl
Encoding: 8225 8225 377
GlifName: daggerdbl
Width: 440
GlyphClass: 2
Flags: W
HStem: 0 21G<209 231> 225 22<50 209 231 390> 453 22<50 209 231 390> 680 20G<209 231>
VStem: 209 22<0 225 247 453 475 700>
LayerCount: 2
Fore
SplineSet
390 475 m 1
 390 453 l 1
 231 453 l 1
 231 247 l 1
 390 247 l 1
 390 225 l 1
 231 225 l 1
 231 0 l 1
 209 0 l 1
 209 225 l 1
 50 225 l 1
 50 247 l 1
 209 247 l 1
 209 453 l 1
 50 453 l 1
 50 475 l 1
 209 475 l 1
 209 700 l 1
 231 700 l 1
 231 475 l 1
 390 475 l 1
EndSplineSet
EndChar

StartChar: bullet
Encoding: 8226 8226 378
GlifName: bullet
Width: 212
GlyphClass: 2
Flags: W
HStem: 282 96<58 154>
VStem: 58 96<282 378>
LayerCount: 2
Fore
SplineSet
58 282 m 1
 58 378 l 1
 154 378 l 1
 154 282 l 1
 58 282 l 1
EndSplineSet
EndChar

StartChar: ellipsis
Encoding: 8230 8230 379
GlifName: ellipsis
Width: 420
GlyphClass: 2
Flags: W
HStem: 0 48<58 106 186 234 314 362>
VStem: 58 48<0 48> 186 48<0 48> 314 48<0 48>
CounterMasks: 1 70
LayerCount: 2
Fore
SplineSet
58 0 m 1
 58 48 l 1
 106 48 l 1
 106 0 l 1
 58 0 l 1
186 0 m 1
 186 48 l 1
 234 48 l 1
 234 0 l 1
 186 0 l 1
314 0 m 1
 314 48 l 1
 362 48 l 1
 362 0 l 1
 314 0 l 1
EndSplineSet
EndChar

StartChar: perthousand
Encoding: 8240 8240 380
GlifName: perthousand
Width: 1040
GlyphClass: 2
Flags: W
HStem: 31 22<483.612 578.388 805.612 900.388> 283 22<483.612 578.388 805.612 900.388> 395 22<147.612 242.388> 647 22<147.612 242.388>
VStem: 58 22<484.612 579.388> 310 22<484.612 579.388> 394 22<120.612 215.388> 646 22<120.612 215.388> 716 22<120.612 215.388> 968 22<120.612 215.388>
LayerCount: 2
Fore
SplineSet
195 395 m 0
 119 395 58 456 58 532 c 0
 58 608 119 669 195 669 c 0
 271 669 332 608 332 532 c 0
 332 456 271 395 195 395 c 0
99 31 m 1
 598 669 l 1
 626 669 l 1
 127 31 l 1
 99 31 l 1
195 417 m 0
 259 417 310 468 310 532 c 0
 310 596 259 647 195 647 c 0
 131 647 80 596 80 532 c 0
 80 468 131 417 195 417 c 0
531 31 m 0
 455 31 394 92 394 168 c 0
 394 244 455 305 531 305 c 0
 607 305 668 244 668 168 c 0
 668 92 607 31 531 31 c 0
853 31 m 0
 777 31 716 92 716 168 c 0
 716 244 777 305 853 305 c 0
 929 305 990 244 990 168 c 0
 990 92 929 31 853 31 c 0
531 53 m 0
 595 53 646 104 646 168 c 0
 646 232 595 283 531 283 c 0
 467 283 416 232 416 168 c 0
 416 104 467 53 531 53 c 0
853 53 m 0
 917 53 968 104 968 168 c 0
 968 232 917 283 853 283 c 0
 789 283 738 232 738 168 c 0
 738 104 789 53 853 53 c 0
EndSplineSet
EndChar

StartChar: guilsinglleft
Encoding: 8249 8249 381
GlifName: guilsinglleft
Width: 285
GlyphClass: 2
Flags: W
HStem: 480 20G<182.156 225>
VStem: 30 195
LayerCount: 2
Fore
SplineSet
225 500 m 1
 58 275 l 1
 227 50 l 1
 199 50 l 1
 30 275 l 1
 197 500 l 1
 225 500 l 1
EndSplineSet
EndChar

StartChar: guilsinglright
Encoding: 8250 8250 382
GlifName: guilsinglright
Width: 285
GlyphClass: 2
Flags: W
HStem: 480 20G<60 102.844>
VStem: 60 195
LayerCount: 2
Fore
SplineSet
60 500 m 1
 88 500 l 1
 255 275 l 1
 86 50 l 1
 58 50 l 1
 227 275 l 1
 60 500 l 1
EndSplineSet
EndChar

StartChar: fraction
Encoding: 8260 8260 383
GlifName: fraction
Width: 684
GlyphClass: 2
Flags: W
LayerCount: 2
Fore
SplineSet
50 -80 m 1
 607 740 l 1
 634 740 l 1
 77 -80 l 1
 50 -80 l 1
EndSplineSet
EndChar

StartChar: Euro
Encoding: 8364 8364 384
GlifName: E_uro
Width: 764
GlyphClass: 2
Flags: W
HStem: -16 22<377.137 523.553> 271 22<50 163 189 478> 411 22<50 163 189 478> 694 22<377.17 523.142>
VStem: 163 23<234.133 271 293 411 433 469.2> 691 23<180.6 207.13 494.773 521.048>
LayerCount: 2
Fore
SplineSet
449 6 m 0
 597 6 662 112 691 212 c 1
 714 205 l 1
 676 72 592 -16 449 -16 c 0
 289 -16 189 102 165 271 c 1
 50 271 l 1
 50 293 l 1
 163 293 l 1
 161 312 160 332 160 352 c 0
 160 372 161 392 163 411 c 1
 50 411 l 1
 50 433 l 1
 166 433 l 1
 190 599 289 716 449 716 c 0
 592 716 676 628 714 497 c 1
 692 490 l 1
 661 595 595 694 449 694 c 0
 311 694 213 592 189 433 c 1
 478 433 l 1
 478 411 l 1
 186 411 l 1
 184 392 183 372 183 352 c 0
 183 332 184 312 186 293 c 1
 478 293 l 1
 478 271 l 1
 189 271 l 1
 213 109 311 6 449 6 c 0
EndSplineSet
EndChar

StartChar: trademark
Encoding: 8482 8482 385
GlifName: trademark
Width: 718
GlyphClass: 2
Flags: W
HStem: 678 22<50 156 178 284>
VStem: 156 22<380 678> 356 22<380 685> 626 22<380 685>
LayerCount: 2
Fore
SplineSet
156 678 m 1
 50 678 l 1
 50 700 l 1
 284 700 l 1
 284 678 l 1
 178 678 l 1
 178 380 l 1
 156 380 l 1
 156 678 l 1
378 380 m 1
 356 380 l 1
 356 700 l 1
 397 700 l 1
 503 398 l 1
 607 700 l 1
 648 700 l 1
 648 380 l 1
 626 380 l 1
 626 685 l 1
 520 380 l 1
 484 380 l 1
 378 685 l 1
 378 380 l 1
EndSplineSet
EndChar

StartChar: uni2126
Encoding: 8486 8486 386
GlifName: uni2126
Width: 773
GlyphClass: 2
Flags: W
HStem: 0 37<258.143 313 461 515.457> 0 22<74 287 487 700> 694 22<307.878 466.056>
VStem: 50 22<268.853 441.205> 701 22<269.775 442.151>
LayerCount: 2
Fore
SplineSet
723 356 m 0x78
 723 180 612 70 487 22 c 1
 700 22 l 1
 700 0 l 1x78
 461 0 l 1
 461 37 l 1
 577 73 701 175 701 354 c 0
 701 547 560 694 387 694 c 0
 214 694 72 547 72 354 c 0
 72 175 196 73 313 37 c 1
 313 0 l 1xb8
 74 0 l 1
 74 22 l 1
 287 22 l 1
 161 70 50 178 50 354 c 0
 50 573 214 716 387 716 c 0
 560 716 723 575 723 356 c 0x78
EndSplineSet
EndChar

StartChar: arrowleft
Encoding: 8592 8592 387
GlifName: arrowleft
Width: 808
GlyphClass: 2
Flags: W
HStem: 353 22<89 758>
LayerCount: 2
Fore
SplineSet
89 375 m 1
 758 375 l 1
 758 353 l 1
 89 353 l 1
 339 103 l 1
 325 89 l 1
 50 364 l 1
 325 639 l 1
 339 625 l 1
 89 375 l 1
EndSplineSet
EndChar

StartChar: arrowup
Encoding: 8593 8593 388
GlifName: arrowup
Width: 650
GlyphClass: 2
Flags: W
HStem: 0 21G<314 336> 688 20G<305 345>
VStem: 314 22<0 669>
LayerCount: 2
Fore
SplineSet
325 708 m 1
 600 433 l 1
 586 419 l 1
 336 669 l 1
 336 0 l 1
 314 0 l 1
 314 669 l 1
 64 419 l 1
 50 433 l 1
 325 708 l 1
EndSplineSet
EndChar

StartChar: arrowright
Encoding: 8594 8594 389
GlifName: arrowright
Width: 808
GlyphClass: 2
Flags: W
HStem: 353 22<50 719>
LayerCount: 2
Fore
SplineSet
469 625 m 1
 483 639 l 1
 758 364 l 1
 483 89 l 1
 469 103 l 1
 719 353 l 1
 50 353 l 1
 50 375 l 1
 719 375 l 1
 469 625 l 1
EndSplineSet
EndChar

StartChar: arrowdown
Encoding: 8595 8595 390
GlifName: arrowdown
Width: 650
GlyphClass: 2
Flags: W
HStem: 0 21G<305 345> 688 20G<314 336>
VStem: 314 22<39 708>
LayerCount: 2
Fore
SplineSet
586 289 m 1
 600 275 l 1
 325 0 l 1
 50 275 l 1
 64 289 l 1
 314 39 l 1
 314 708 l 1
 336 708 l 1
 336 39 l 1
 586 289 l 1
EndSplineSet
EndChar

StartChar: arrowboth
Encoding: 8596 8596 391
GlifName: arrowboth
Width: 830
GlyphClass: 2
Flags: W
HStem: 353 22<89 741>
LayerCount: 2
Fore
SplineSet
491 626 m 1
 505 640 l 1
 780 364 l 1
 505 89 l 1
 491 103 l 1
 742 354 l 1
 89 353 l 1
 339 103 l 1
 325 89 l 1
 50 364 l 1
 325 640 l 1
 339 626 l 1
 89 375 l 1
 741 375 l 1
 491 626 l 1
EndSplineSet
EndChar

StartChar: arrowupdn
Encoding: 8597 8597 392
GlifName: arrowupdn
Width: 652
GlyphClass: 2
Flags: W
HStem: -1 21G<306 346>
VStem: 316 21<39 691>
LayerCount: 2
Fore
SplineSet
336 691 m 5
 337 39 l 5
 588 289 l 1
 602 275 l 1
 326 -1 l 1
 51 274 l 1
 65 288 l 1
 316 38 l 1
 315 692 l 1
 64 441 l 1
 50 454 l 1
 325 730 l 1
 602 455 l 1
 587 441 l 1
 336 691 l 5
EndSplineSet
EndChar

StartChar: uni2197
Encoding: 8599 8599 393
GlifName: uni2197
Width: 628
GlyphClass: 2
Flags: W
HStem: 680 20<169 522>
VStem: 538 20<311 664>
LayerCount: 2
Fore
SplineSet
169 680 m 1
 169 700 l 1
 558 700 l 1
 558 311 l 1
 538 311 l 1
 538 664 l 1
 65 192 l 1
 50 207 l 1
 522 680 l 1
 169 680 l 1
EndSplineSet
EndChar

StartChar: uni2198
Encoding: 8600 8600 394
GlifName: uni2198
Width: 628
GlyphClass: 2
Flags: W
HStem: 0 20<169 522> 488 20G<50 85.0424>
VStem: 538 20<36 389>
LayerCount: 2
Fore
SplineSet
538 389 m 1
 558 389 l 1
 558 0 l 1
 169 0 l 1
 169 20 l 1
 522 20 l 1
 50 493 l 1
 65 508 l 1
 538 36 l 1
 538 389 l 1
EndSplineSet
EndChar

StartChar: uni21B3
Encoding: 8627 8627 395
GlifName: uni21B_3
Width: 799
GlyphClass: 2
Flags: W
HStem: 353 22<92 709> 680 20G<70 92>
VStem: 70 22<375 700>
LayerCount: 2
Fore
SplineSet
520 565 m 1
 534 579 l 1
 749 364 l 1
 514 139 l 1
 500 153 l 1
 709 353 l 1
 70 353 l 1
 70 700 l 1
 92 700 l 1
 92 375 l 1
 710 375 l 1
 520 565 l 1
EndSplineSet
EndChar

StartChar: carriagereturn
Encoding: 8629 8629 396
GlifName: carriagereturn
Width: 799
GlyphClass: 2
Flags: W
HStem: 353 22<89 707> 680 20G<707 729>
VStem: 707 22<375 700>
LayerCount: 2
Fore
SplineSet
707 375 m 1
 707 700 l 1
 729 700 l 1
 729 353 l 1
 89 353 l 1
 279 163 l 1
 265 149 l 1
 50 364 l 1
 265 579 l 1
 279 565 l 1
 89 375 l 1
 707 375 l 1
EndSplineSet
EndChar

StartChar: partialdiff
Encoding: 8706 8706 397
GlifName: partialdiff
Width: 544
GlyphClass: 2
Flags: W
HStem: -16 22<209.226 330.509> 422 22<206.689 328.868> 694 22<120.709 278.801>
VStem: 58 22<148.231 289.25> 469 17<277.665 389.37>
LayerCount: 2
Fore
SplineSet
486 316 m 0
 486 106 410 -16 270 -16 c 0
 149 -16 58 83 58 220 c 0
 58 353 149 444 270 444 c 0
 396 444 464 334 469 269 c 1
 469 582 347 694 210 694 c 0
 124 694 98 673 98 673 c 1
 98 698 l 1
 98 698 127 716 210 716 c 0
 362 716 486 582 486 316 c 0
454 220 m 0
 454 309 393 422 270 422 c 0
 162 422 80 341 80 220 c 0
 80 96 162 6 270 6 c 0
 414 6 454 158 454 220 c 0
EndSplineSet
EndChar

StartChar: emptyset
Encoding: 8709 8709 398
GlifName: emptyset
Width: 587
GlyphClass: 2
Flags: HW
HStem: 60 23<220.403 360.086> 519 24<220.777 364.633>
VStem: 50 24<228.367 372.223> 510 23<232.914 372.597>
LayerCount: 2
Fore
SplineSet
521 542 m 1
 537 526 l 1
 472 461 l 1
 506 424 528 375 533 322 c 1
 533 281 l 1
 522 163 430 71 312 60 c 1
 271 60 l 1
 218 65 169 87 132 121 c 1
 67 56 l 1
 51 72 l 1
 115 136 l 1
 79 175 56 225 50 281 c 1
 50 322 l 1
 62 439 154 531 271 543 c 1
 312 543 l 1
 368 537 418 514 457 478 c 1
 521 542 l 1
74 319 m 1
 74 283 l 1
 78 232 99 187 131 152 c 1
 441 462 l 1
 406 494 361 515 310 519 c 1
 274 519 l 1
 166 510 83 427 74 319 c 1
510 283 m 1
 510 319 l 1
 506 368 487 412 457 446 c 1
 147 136 l 1
 181 106 225 87 274 83 c 1
 310 83 l 1
 418 92 501 175 510 283 c 1
EndSplineSet
EndChar

StartChar: uni2206
Encoding: 8710 8710 399
GlifName: uni2206
Width: 660
GlyphClass: 2
Flags: W
HStem: 0 22<74 586> 680 20G<303.301 356.699>
LayerCount: 2
Fore
SplineSet
50 22 m 1
 311 700 l 1
 349 700 l 1
 610 22 l 1
 610 0 l 1
 50 0 l 1
 50 22 l 1
586 22 m 1
 330 688 l 1
 74 22 l 1
 586 22 l 1
EndSplineSet
EndChar

StartChar: product
Encoding: 8719 8719 400
GlifName: product
Width: 554
GlyphClass: 2
Flags: W
HStem: 0 21G<142 164 390 412> 678 22<58 142 164 390 412 496>
VStem: 142 22<0 678> 390 22<0 678>
LayerCount: 2
Fore
SplineSet
496 700 m 1
 496 678 l 1
 412 678 l 1
 412 0 l 1
 390 0 l 1
 390 678 l 1
 164 678 l 1
 164 0 l 1
 142 0 l 1
 142 678 l 1
 58 678 l 1
 58 700 l 1
 496 700 l 1
EndSplineSet
EndChar

StartChar: summation
Encoding: 8721 8721 401
GlifName: summation
Width: 456
GlyphClass: 2
Flags: W
HStem: 0 22<76 406> 678 22<76 406>
LayerCount: 2
Fore
SplineSet
50 700 m 1
 406 700 l 1
 406 678 l 1
 76 678 l 1
 296 350 l 1
 76 22 l 1
 406 22 l 1
 406 0 l 1
 50 0 l 1
 50 22 l 1
 270 350 l 1
 50 678 l 1
 50 700 l 1
EndSplineSet
EndChar

StartChar: minus
Encoding: 8722 8722 402
GlifName: minus
Width: 516
GlyphClass: 2
Flags: W
HStem: 293 22<58 458>
LayerCount: 2
Fore
SplineSet
58 293 m 1
 58 315 l 1
 458 315 l 1
 458 293 l 1
 58 293 l 1
EndSplineSet
EndChar

StartChar: radical
Encoding: 8730 8730 403
GlifName: radical
Width: 585
GlyphClass: 2
Flags: W
HStem: 0 21G<158.806 189.985> 678 22<354 555>
LayerCount: 2
Fore
SplineSet
555 700 m 1
 555 678 l 1
 354 678 l 1
 185 0 l 1
 164 0 l 1
 50 439 l 1
 73 439 l 1
 174 54 l 1
 335 696 l 1
 335 700 l 1
 555 700 l 1
EndSplineSet
EndChar

StartChar: infinity
Encoding: 8734 8734 404
GlifName: infinity
Width: 866
GlyphClass: 2
Flags: W
HStem: 210 22<157.119 275.811 590.189 708.881> 498 22<160.881 275.811 590.189 705.119>
VStem: 50 22<312.557 414.941> 794 22<312.557 414.941>
LayerCount: 2
Fore
SplineSet
649 520 m 0
 760 520 816 434 816 365 c 0
 816 290 760 210 649 210 c 0
 555 210 483 278 433 345 c 1
 383 278 311 210 217 210 c 0
 106 210 50 290 50 365 c 0
 50 434 106 520 217 520 c 0
 311 520 383 452 433 385 c 1
 483 452 555 520 649 520 c 0
217 232 m 0
 322 232 387 326 419 365 c 1
 387 404 322 498 217 498 c 0
 131 498 72 434 72 365 c 0
 72 290 131 232 217 232 c 0
649 232 m 0
 735 232 794 290 794 365 c 0
 794 434 735 498 649 498 c 0
 544 498 479 404 447 365 c 1
 479 326 544 232 649 232 c 0
EndSplineSet
EndChar

StartChar: integral
Encoding: 8747 8747 405
GlifName: integral
Width: 460
GlyphClass: 2
Flags: W
HStem: -88 22<50 190.793> 694 22<270.386 410>
VStem: 219 22<-38.3417 666.342>
LayerCount: 2
Fore
SplineSet
141 -88 m 2
 50 -88 l 1
 50 -66 l 1
 141 -66 l 2
 196 -66 219 -44 219 7 c 2
 219 621 l 2
 219 688 250 716 321 716 c 2
 410 716 l 1
 410 694 l 1
 321 694 l 2
 265 694 241 672 241 621 c 2
 241 7 l 2
 241 -60 211 -88 141 -88 c 2
EndSplineSet
EndChar

StartChar: approxequal
Encoding: 8776 8776 406
GlifName: approxequal
Width: 544
GlyphClass: 2
Flags: W
HStem: 204 22<330.1 408.774> 294 22<132.196 212.954> 354 22<330.1 408.774> 444 22<132.196 212.954>
LayerCount: 2
Fore
SplineSet
58 389 m 1
 58 389 98 466 169 466 c 0
 257 466 294 376 375 376 c 0
 427 376 466 448 466 448 c 1
 486 438 l 1
 486 438 445 354 375 354 c 0
 287 354 246 444 169 444 c 0
 115 444 78 379 78 379 c 1
 58 389 l 1
58 239 m 1
 58 239 98 316 169 316 c 0
 257 316 294 226 375 226 c 0
 427 226 466 298 466 298 c 1
 486 288 l 1
 486 288 445 204 375 204 c 0
 287 204 246 294 169 294 c 0
 115 294 78 229 78 229 c 1
 58 239 l 1
EndSplineSet
EndChar

StartChar: notequal
Encoding: 8800 8800 407
GlifName: notequal
Width: 464
GlyphClass: 2
Flags: W
HStem: 210 22<58 186 217 406> 380 22<58 247 278 406>
LayerCount: 2
Fore
SplineSet
406 402 m 1
 406 380 l 1
 270 380 l 1
 217 232 l 1
 406 232 l 1
 406 210 l 1
 209 210 l 1
 176 117 l 1
 153 117 l 1
 186 210 l 1
 58 210 l 1
 58 232 l 1
 194 232 l 1
 247 380 l 1
 58 380 l 1
 58 402 l 1
 255 402 l 1
 288 495 l 1
 311 495 l 1
 278 402 l 1
 406 402 l 1
EndSplineSet
EndChar

StartChar: lessequal
Encoding: 8804 8804 408
GlifName: lessequal
Width: 471
GlyphClass: 2
Flags: W
HStem: 87 22<58 413>
LayerCount: 2
Fore
SplineSet
58 377 m 1
 413 563 l 1
 413 539 l 1
 86 366 l 1
 413 193 l 1
 413 169 l 1
 58 355 l 1
 58 377 l 1
413 87 m 1
 58 87 l 1
 58 109 l 1
 413 109 l 1
 413 87 l 1
EndSplineSet
EndChar

StartChar: greaterequal
Encoding: 8805 8805 409
GlifName: greaterequal
Width: 471
GlyphClass: 2
Flags: W
HStem: 87 22<58 413>
LayerCount: 2
Fore
SplineSet
58 539 m 1
 58 563 l 1
 413 377 l 1
 413 355 l 1
 58 169 l 1
 58 193 l 1
 385 366 l 1
 58 539 l 1
413 87 m 1
 58 87 l 1
 58 109 l 1
 413 109 l 1
 413 87 l 1
EndSplineSet
EndChar

StartChar: uni2323
Encoding: 8995 8995 410
GlifName: uni2323
Width: 764
GlyphClass: 3
Flags: W
HStem: 18 22<306.482 458.753> 141 22<322.782 442.486> 414 96<288 310 452 474> 660 22<306.482 458.753>
VStem: 50 22<273.865 425.813> 174 22<290.012 349> 288 22<414 510> 452 22<414 510> 568 22<290.012 349> 692 22<273.865 425.813>
LayerCount: 2
Fore
SplineSet
383 18 m 0
 199 18 50 167 50 350 c 0
 50 532 199 682 383 682 c 0
 565 682 714 532 714 350 c 0
 714 167 565 18 383 18 c 0
383 40 m 0
 553 40 692 179 692 350 c 0
 692 520 553 660 383 660 c 0
 211 660 72 520 72 350 c 0
 72 179 211 40 383 40 c 0
288 414 m 1
 288 510 l 1
 310 510 l 1
 310 414 l 1
 288 414 l 1
452 414 m 1
 452 510 l 1
 474 510 l 1
 474 414 l 1
 452 414 l 1
568 349 m 1
 590 349 l 1
 590 226 507 141 383 141 c 0
 257 141 174 226 174 349 c 1
 196 349 l 1
 196 248 281 163 383 163 c 0
 484 163 568 248 568 349 c 1
EndSplineSet
Ligature2: "'ccmp' Glyph Composition/Decomposition in Latin lookup 8 subtable" underscore s m i l e
EndChar

StartChar: uni24FF
Encoding: 9471 9471 411
GlifName: uni24F_F_
Width: 778
GlyphClass: 2
Flags: W
HStem: 11 113<318.857 459.739> 146 408<323.741 454.259> 576 113<318.857 459.739>
VStem: 50 182<232.822 468.138> 254 270<233.729 466.724> 546 182<232.822 468.138>
CounterMasks: 1 fc
LayerCount: 2
Fore
SplineSet
390 11 m 0
 203 11 50 164 50 351 c 0
 50 537 203 689 390 689 c 0
 576 689 728 537 728 351 c 0
 728 164 576 11 390 11 c 0
232 351 m 0
 232 221 291 124 389 124 c 0
 486 124 546 221 546 351 c 0
 546 479 486 576 389 576 c 0
 291 576 232 479 232 351 c 0
254 351 m 0
 254 459 299 554 389 554 c 0
 479 554 524 459 524 351 c 0
 524 241 479 146 389 146 c 0
 299 146 254 241 254 351 c 0
EndSplineSet
EndChar

StartChar: lozenge
Encoding: 9674 9674 412
GlifName: lozenge
Width: 573
GlyphClass: 2
Flags: W
LayerCount: 2
Fore
SplineSet
50 364 m 1
 287 653 l 1
 523 364 l 1
 287 76 l 1
 50 364 l 1
495 364 m 1
 287 618 l 1
 78 364 l 1
 287 111 l 1
 495 364 l 1
EndSplineSet
EndChar

StartChar: uni2776
Encoding: 10102 10102 413
GlifName: uni2776
Width: 778
GlyphClass: 2
Flags: W
HStem: 486 20G<386 386>
VStem: 408 320<234.408 466.946>
LayerCount: 2
Fore
SplineSet
390 11 m 0
 203 11 50 164 50 351 c 0
 50 537 203 689 390 689 c 0
 576 689 728 537 728 351 c 0
 728 164 576 11 390 11 c 0
261 453 m 1
 261 431 l 1
 350 431 386 470 386 506 c 1
 386 146 l 1
 408 146 l 1
 408 554 l 1
 386 554 l 1
 373 478 337 453 261 453 c 1
EndSplineSet
EndChar

StartChar: uni2777
Encoding: 10103 10103 414
GlifName: uni2777
Width: 778
GlyphClass: 2
Flags: W
HStem: 11 135<273.408 505.946> 168 394<300 484> 584 105<312.672 459.893>
LayerCount: 2
Fore
SplineSet
390 11 m 0
 203 11 50 164 50 351 c 0
 50 537 203 689 390 689 c 0
 576 689 728 537 728 351 c 0
 728 164 576 11 390 11 c 0
252 454 m 1
 274 442 l 1
 274 483 300 562 386 562 c 0
 484 562 534 465 447 373 c 2
 254 168 l 1
 254 146 l 1
 533 146 l 1
 533 168 l 1
 284 168 l 1
 462 357 l 2
 563 465 504 584 386 584 c 0
 300 584 255 514 252 454 c 1
EndSplineSet
EndChar

StartChar: uni2778
Encoding: 10104 10104 415
GlifName: uni2778
Width: 778
GlyphClass: 2
Flags: W
HStem: 11 113<313.504 467.886> 146 199<335.754 450.201> 367 187<335.358 434.286> 576 113<320.306 460.488>
VStem: 279 220<191.621 260.79> 279 210<438.569 507.239> 511 217<292.704 468.376> 521 207<232.883 444>
LayerCount: 2
Fore
SplineSet
390 11 m 0xf2
 203 11 50 164 50 351 c 0
 50 537 203 689 390 689 c 0
 576 689 728 537 728 351 c 0
 728 164 576 11 390 11 c 0xf2
279 262 m 1xf4
 261 252 l 1
 261 169 319 124 393 124 c 0
 481 124 521 186 521 249 c 0xf5
 521 305 484 351 403 358 c 1
 480 372 511 423 511 465 c 0
 511 516 468 576 392 576 c 0
 320 576 261 521 261 447 c 1
 279 438 l 1
 279 480 306 554 392 554 c 0
 454 554 489 507 489 465 c 0xf6
 489 412 430 367 335 367 c 1
 335 345 l 1
 438 345 499 314 499 249 c 0xf8
 499 202 472 146 393 146 c 0
 306 146 279 216 279 262 c 1xf4
EndSplineSet
EndChar

StartChar: uni2779
Encoding: 10105 10105 416
GlifName: uni2779
Width: 778
GlyphClass: 2
Flags: W
LayerCount: 2
Fore
SplineSet
390 11 m 0
 203 11 50 164 50 351 c 0
 50 537 203 689 390 689 c 0
 576 689 728 537 728 351 c 0
 728 164 576 11 390 11 c 0
216 266 m 1
 216 244 l 1
 430 244 l 1
 430 146 l 1
 452 146 l 1
 452 244 l 1
 547 244 l 1
 547 266 l 1
 452 266 l 1
 452 568 l 1
 421 568 l 1
 216 266 l 1
430 266 m 1
 243 266 l 1
 430 542 l 1
 430 266 l 1
EndSplineSet
EndChar

StartChar: uni277A
Encoding: 10106 10106 417
GlifName: uni277A_
Width: 778
GlyphClass: 2
Flags: W
HStem: 11 113<310.979 459.746> 404 128<327.12 471.526> 554 135<289.183 498.146>
VStem: 527 201<233.295 444>
LayerCount: 2
Fore
SplineSet
390 11 m 0
 203 11 50 164 50 351 c 0
 50 537 203 689 390 689 c 0
 576 689 728 537 728 351 c 0
 728 164 576 11 390 11 c 0
267 258 m 1
 246 248 l 1
 246 195 297 124 387 124 c 0
 482 124 527 203 527 271 c 0
 527 358 464 404 403 404 c 0
 337 404 297 361 281 337 c 1
 308 532 l 1
 503 532 l 1
 503 554 l 1
 289 554 l 1
 255 311 l 1
 288 311 l 1
 300 332 337 382 403 382 c 0
 464 382 505 331 505 271 c 0
 505 218 471 146 387 146 c 0
 309 146 267 206 267 258 c 1
EndSplineSet
EndChar

StartChar: uni277B
Encoding: 10107 10107 418
GlifName: uni277B_
Width: 778
GlyphClass: 2
Flags: W
HStem: 11 113<312.022 460.043> 146 238<322.071 457.401> 406 148<329.364 459.67> 576 113<321.304 467.121>
VStem: 50 185<235.372 467.406> 267 242<198.832 329.442> 531 197<232.664 444>
LayerCount: 2
Fore
SplineSet
390 11 m 0
 203 11 50 164 50 351 c 0
 50 537 203 689 390 689 c 0
 576 689 728 537 728 351 c 0
 728 164 576 11 390 11 c 0
235 344 m 0
 235 157 322 124 388 124 c 0
 467 124 531 187 531 267 c 0
 531 340 479 406 394 406 c 0
 317 406 261 355 257 300 c 1
 251 404 275 554 396 554 c 0
 473 554 500 486 506 443 c 1
 526 459 l 1
 516 524 467 576 396 576 c 0
 303 576 235 491 235 344 c 0
267 264 m 0
 267 332 326 384 394 384 c 0
 466 384 509 327 509 267 c 0
 509 199 455 146 388 146 c 0
 314 146 267 202 267 264 c 0
EndSplineSet
EndChar

StartChar: uni277C
Encoding: 10108 10108 419
GlifName: uni277C_
Width: 778
GlyphClass: 2
Flags: W
HStem: 554 135<273.408 505.946>
LayerCount: 2
Fore
SplineSet
390 11 m 0
 203 11 50 164 50 351 c 0
 50 537 203 689 390 689 c 0
 576 689 728 537 728 351 c 0
 728 164 576 11 390 11 c 0
249 554 m 1
 249 532 l 1
 489 532 l 1
 379 437 354 318 354 146 c 1
 376 146 l 1
 376 318 396 420 519 532 c 1
 519 554 l 1
 249 554 l 1
EndSplineSet
EndChar

StartChar: uni277D
Encoding: 10109 10109 420
GlifName: uni277D_
Width: 778
GlyphClass: 2
Flags: W
HStem: 11 113<302.97 475.797> 146 204<307.384 470.616> 372 182<314.567 463.433> 576 113<305.652 469.271>
VStem: 50 198<292.704 468.273> 50 182<234.245 444> 254 270<193.51 303.652> 270 238<411.769 515.358> 530 198<292.704 468.273> 546 182<232.665 444>
LayerCount: 2
Fore
SplineSet
390 11 m 0xf880
 203 11 50 164 50 351 c 0
 50 537 203 689 390 689 c 0
 576 689 728 537 728 351 c 0
 728 164 576 11 390 11 c 0xf880
232 247 m 0xf4
 232 177 301 124 389 124 c 0
 477 124 546 177 546 247 c 0xf440
 546 312 500 346 442 361 c 1
 494 378 530 408 530 464 c 0
 530 524 471 576 389 576 c 0
 308 576 248 524 248 464 c 0xf880
 248 408 284 378 336 361 c 1
 278 346 232 312 232 247 c 0xf4
270 464 m 0xf1
 270 512 321 554 389 554 c 0
 457 554 508 512 508 464 c 0
 508 403 438 372 389 372 c 0
 340 372 270 403 270 464 c 0xf1
254 247 m 0xf2
 254 316 331 350 389 350 c 0
 447 350 524 316 524 247 c 0
 524 198 473 146 389 146 c 0
 305 146 254 198 254 247 c 0xf2
EndSplineSet
EndChar

StartChar: uni277E
Encoding: 10110 10110 421
GlifName: uni277E_
Width: 778
GlyphClass: 2
Flags: W
HStem: 11 113<310.669 452.375> 146 148<316.33 446.636> 316 238<318.599 453.929> 576 113<313.648 465.769>
VStem: 50 195<257.5 468.013> 267 242<370.558 501.168> 541 187<233.272 468.106>
LayerCount: 2
Fore
SplineSet
390 11 m 0
 203 11 50 164 50 351 c 0
 50 537 203 689 390 689 c 0
 576 689 728 537 728 351 c 0
 728 164 576 11 390 11 c 0
541 356 m 0
 541 543 454 576 388 576 c 0
 309 576 245 513 245 433 c 0
 245 360 297 294 382 294 c 0
 459 294 515 345 519 400 c 1
 525 296 501 146 380 146 c 0
 303 146 276 214 270 257 c 1
 250 241 l 1
 260 176 309 124 380 124 c 0
 473 124 541 209 541 356 c 0
509 436 m 0
 509 368 450 316 382 316 c 0
 310 316 267 373 267 433 c 0
 267 501 321 554 388 554 c 0
 462 554 509 498 509 436 c 0
EndSplineSet
EndChar

StartChar: uni2780
Encoding: 10112 10112 422
GlifName: uni2780
Width: 778
GlyphClass: 2
Flags: W
HStem: 11 22<312.097 467.461> 431 22<261 326.697> 667 22<312.097 467.461>
VStem: 50 22<273.097 428.461> 386 22<146 506 513.782 554> 706 22<273.097 428.461>
LayerCount: 2
Fore
SplineSet
390 11 m 0
 203 11 50 164 50 351 c 0
 50 537 203 689 390 689 c 0
 576 689 728 537 728 351 c 0
 728 164 576 11 390 11 c 0
390 33 m 0
 564 33 706 176 706 351 c 0
 706 525 564 667 390 667 c 0
 215 667 72 525 72 351 c 0
 72 176 215 33 390 33 c 0
261 431 m 1
 261 453 l 1
 337 453 373 478 386 554 c 1
 408 554 l 1
 408 146 l 1
 386 146 l 1
 386 506 l 1
 386 470 350 431 261 431 c 1
EndSplineSet
EndChar

StartChar: uni2781
Encoding: 10113 10113 423
GlifName: uni2781
Width: 778
GlyphClass: 2
Flags: W
HStem: 11 22<312.097 467.461> 146 22<284 533> 562 22<338.248 436.041> 667 22<312.097 467.461>
VStem: 50 22<273.097 428.461> 252 22<454 491.13> 706 22<273.097 428.461>
LayerCount: 2
Fore
SplineSet
390 11 m 0
 203 11 50 164 50 351 c 0
 50 537 203 689 390 689 c 0
 576 689 728 537 728 351 c 0
 728 164 576 11 390 11 c 0
390 33 m 0
 564 33 706 176 706 351 c 0
 706 525 564 667 390 667 c 0
 215 667 72 525 72 351 c 0
 72 176 215 33 390 33 c 0
274 442 m 1
 252 454 l 1
 255 514 300 584 386 584 c 0
 504 584 563 465 462 357 c 2
 284 168 l 1
 533 168 l 1
 533 146 l 1
 254 146 l 1
 254 168 l 1
 447 373 l 2
 534 465 484 562 386 562 c 0
 300 562 274 483 274 442 c 1
EndSplineSet
EndChar

StartChar: uni2782
Encoding: 10114 10114 424
GlifName: uni2782
Width: 778
GlyphClass: 2
Flags: W
HStem: 11 22<312.097 467.461> 124 22<341.224 444.679> 345 22<335 416.075> 554 22<340.999 437.38> 667 22<312.097 467.461>
VStem: 50 22<273.097 428.461> 261 18<215.904 252 447 483.29> 489 22<427.889 504.056> 499 22<200.066 290.052> 706 22<273.097 428.461>
LayerCount: 2
Fore
SplineSet
390 11 m 0xfe40
 203 11 50 164 50 351 c 0
 50 537 203 689 390 689 c 0
 576 689 728 537 728 351 c 0
 728 164 576 11 390 11 c 0xfe40
390 33 m 0
 564 33 706 176 706 351 c 0
 706 525 564 667 390 667 c 0
 215 667 72 525 72 351 c 0
 72 176 215 33 390 33 c 0
261 252 m 1
 279 262 l 1
 279 216 306 146 393 146 c 0
 472 146 499 202 499 249 c 0xfec0
 499 314 438 345 335 345 c 1
 335 367 l 1
 430 367 489 412 489 465 c 0
 489 507 454 554 392 554 c 0
 306 554 279 480 279 438 c 1
 261 447 l 1
 261 521 320 576 392 576 c 0
 468 576 511 516 511 465 c 0xff40
 511 423 480 372 403 358 c 1
 484 351 521 305 521 249 c 0xfec0
 521 186 481 124 393 124 c 0
 319 124 261 169 261 252 c 1
EndSplineSet
EndChar

StartChar: uni2783
Encoding: 10115 10115 425
GlifName: uni2783
Width: 778
GlyphClass: 2
Flags: W
HStem: 11 22<312.097 467.461> 244 22<243 430 452 547> 667 22<312.097 467.461>
VStem: 50 22<273.097 428.461> 430 22<146 244 266 542> 706 22<273.097 428.461>
LayerCount: 2
Fore
SplineSet
390 11 m 0
 203 11 50 164 50 351 c 0
 50 537 203 689 390 689 c 0
 576 689 728 537 728 351 c 0
 728 164 576 11 390 11 c 0
390 33 m 0
 564 33 706 176 706 351 c 0
 706 525 564 667 390 667 c 0
 215 667 72 525 72 351 c 0
 72 176 215 33 390 33 c 0
430 244 m 1
 216 244 l 1
 216 266 l 1
 421 568 l 1
 452 568 l 1
 452 266 l 1
 547 266 l 1
 547 244 l 1
 452 244 l 1
 452 146 l 1
 430 146 l 1
 430 244 l 1
430 542 m 1
 243 266 l 1
 430 266 l 1
 430 542 l 1
EndSplineSet
EndChar

StartChar: uni2784
Encoding: 10116 10116 426
GlifName: uni2784
Width: 778
GlyphClass: 2
Flags: W
HStem: 11 22<312.097 467.461> 124 22<334.503 436.613> 382 22<353.772 447.546> 532 22<308 503> 667 22<312.097 467.461>
VStem: 50 22<273.097 428.461> 246 21<214.221 248> 505 22<218.933 321.557> 706 22<273.097 428.461>
LayerCount: 2
Fore
SplineSet
390 11 m 0
 203 11 50 164 50 351 c 0
 50 537 203 689 390 689 c 0
 576 689 728 537 728 351 c 0
 728 164 576 11 390 11 c 0
390 33 m 0
 564 33 706 176 706 351 c 0
 706 525 564 667 390 667 c 0
 215 667 72 525 72 351 c 0
 72 176 215 33 390 33 c 0
246 248 m 1
 267 258 l 1
 267 206 309 146 387 146 c 0
 471 146 505 218 505 271 c 0
 505 331 464 382 403 382 c 0
 337 382 300 332 288 311 c 1
 255 311 l 1
 289 554 l 1
 503 554 l 1
 503 532 l 1
 308 532 l 1
 281 337 l 1
 297 361 337 404 403 404 c 0
 464 404 527 358 527 271 c 0
 527 203 482 124 387 124 c 0
 297 124 246 195 246 248 c 1
EndSplineSet
EndChar

StartChar: uni2785
Encoding: 10117 10117 427
GlifName: uni2785
Width: 778
GlyphClass: 2
Flags: W
HStem: 11 22<312.097 467.461> 124 22<335.686 437.524> 384 22<343.187 443.594> 554 22<346.369 442.176> 667 22<312.097 467.461>
VStem: 50 22<273.097 428.461> 235 32<229.057 398.403> 509 22<217.061 316.063 454.52 473.834> 706 22<273.097 428.461>
LayerCount: 2
Fore
SplineSet
390 11 m 0
 203 11 50 164 50 351 c 0
 50 537 203 689 390 689 c 0
 576 689 728 537 728 351 c 0
 728 164 576 11 390 11 c 0
390 33 m 0
 564 33 706 176 706 351 c 0
 706 525 564 667 390 667 c 0
 215 667 72 525 72 351 c 0
 72 176 215 33 390 33 c 0
235 344 m 0
 235 491 303 576 396 576 c 0
 467 576 516 524 526 459 c 1
 506 443 l 1
 500 486 473 554 396 554 c 0
 275 554 251 404 257 300 c 1
 261 355 317 406 394 406 c 0
 479 406 531 340 531 267 c 0
 531 187 467 124 388 124 c 0
 322 124 235 157 235 344 c 0
267 264 m 0
 267 202 314 146 388 146 c 0
 455 146 509 199 509 267 c 0
 509 327 466 384 394 384 c 0
 326 384 267 332 267 264 c 0
EndSplineSet
EndChar

StartChar: uni2786
Encoding: 10118 10118 428
GlifName: uni2786
Width: 778
GlyphClass: 2
Flags: W
HStem: 11 22<312.097 467.461> 532 22<249 489> 667 22<312.097 467.461>
VStem: 50 22<273.097 428.461> 354 22<146 299.218> 706 22<273.097 428.461>
LayerCount: 2
Fore
SplineSet
390 11 m 0
 203 11 50 164 50 351 c 0
 50 537 203 689 390 689 c 0
 576 689 728 537 728 351 c 0
 728 164 576 11 390 11 c 0
390 33 m 0
 564 33 706 176 706 351 c 0
 706 525 564 667 390 667 c 0
 215 667 72 525 72 351 c 0
 72 176 215 33 390 33 c 0
489 532 m 1
 249 532 l 1
 249 554 l 1
 519 554 l 1
 519 532 l 1
 396 420 376 318 376 146 c 1
 354 146 l 1
 354 318 379 437 489 532 c 1
EndSplineSet
EndChar

StartChar: uni2787
Encoding: 10119 10119 429
GlifName: uni2787
Width: 778
GlyphClass: 2
Flags: W
HStem: 11 22<312.097 467.461> 124 22<328.364 449.636> 350 22<337.689 440.311> 554 22<333.309 444.902> 667 22<312.097 467.461>
VStem: 50 22<273.097 428.461> 232 22<209.002 287.508> 248 22<426.369 499.754> 508 22<426.369 499.754> 524 22<209.002 287.508> 706 22<273.097 428.461>
LayerCount: 2
Fore
SplineSet
390 11 m 0xfc20
 203 11 50 164 50 351 c 0
 50 537 203 689 390 689 c 0
 576 689 728 537 728 351 c 0
 728 164 576 11 390 11 c 0xfc20
390 33 m 0
 564 33 706 176 706 351 c 0
 706 525 564 667 390 667 c 0
 215 667 72 525 72 351 c 0
 72 176 215 33 390 33 c 0
232 247 m 0xfe60
 232 312 278 346 336 361 c 1
 284 378 248 408 248 464 c 0
 248 524 308 576 389 576 c 0
 471 576 530 524 530 464 c 0xfda0
 530 408 494 378 442 361 c 1
 500 346 546 312 546 247 c 0
 546 177 477 124 389 124 c 0
 301 124 232 177 232 247 c 0xfe60
270 464 m 0
 270 403 340 372 389 372 c 0
 438 372 508 403 508 464 c 0
 508 512 457 554 389 554 c 0
 321 554 270 512 270 464 c 0
254 247 m 0xfe60
 254 198 305 146 389 146 c 0
 473 146 524 198 524 247 c 0
 524 316 447 350 389 350 c 0
 331 350 254 316 254 247 c 0xfe60
EndSplineSet
EndChar

StartChar: uni2788
Encoding: 10120 10120 430
GlifName: uni2788
Width: 778
GlyphClass: 2
Flags: W
HStem: 11 22<312.097 467.461> 124 22<333.824 429.631> 294 22<332.406 432.813> 554 22<338.476 440.314> 667 22<312.097 467.461>
VStem: 50 22<273.097 428.461> 245 22<226.166 245.48 383.937 482.939> 509 32<301.597 470.943> 706 22<273.097 428.461>
LayerCount: 2
Fore
SplineSet
390 11 m 0
 203 11 50 164 50 351 c 0
 50 537 203 689 390 689 c 0
 576 689 728 537 728 351 c 0
 728 164 576 11 390 11 c 0
390 33 m 0
 564 33 706 176 706 351 c 0
 706 525 564 667 390 667 c 0
 215 667 72 525 72 351 c 0
 72 176 215 33 390 33 c 0
541 356 m 0
 541 209 473 124 380 124 c 0
 309 124 260 176 250 241 c 1
 270 257 l 1
 276 214 303 146 380 146 c 0
 501 146 525 296 519 400 c 1
 515 345 459 294 382 294 c 0
 297 294 245 360 245 433 c 0
 245 513 309 576 388 576 c 0
 454 576 541 543 541 356 c 0
509 436 m 0
 509 498 462 554 388 554 c 0
 321 554 267 501 267 433 c 0
 267 373 310 316 382 316 c 0
 450 316 509 368 509 436 c 0
EndSplineSet
EndChar

StartChar: u1F10B
Encoding: 65537 127243 431
GlifName: u1F_10B_
Width: 778
GlyphClass: 2
Flags: W
HStem: 11 22<312.097 467.461> 124 22<342.574 435.249> 554 22<342.574 435.249> 667 22<312.097 467.461>
VStem: 50 22<273.097 428.461> 232 22<264.691 436.129> 524 22<264.691 436.129> 706 22<273.097 428.461>
LayerCount: 2
Fore
SplineSet
390 11 m 0
 203 11 50 164 50 351 c 0
 50 537 203 689 390 689 c 0
 576 689 728 537 728 351 c 0
 728 164 576 11 390 11 c 0
390 33 m 0
 564 33 706 176 706 351 c 0
 706 525 564 667 390 667 c 0
 215 667 72 525 72 351 c 0
 72 176 215 33 390 33 c 0
232 351 m 0
 232 479 291 576 389 576 c 0
 486 576 546 479 546 351 c 0
 546 221 486 124 389 124 c 0
 291 124 232 221 232 351 c 0
254 351 m 0
 254 241 299 146 389 146 c 0
 479 146 524 241 524 351 c 0
 524 459 479 554 389 554 c 0
 299 554 254 459 254 351 c 0
EndSplineSet
EndChar

StartChar: i.loclTRK
Encoding: 65538 -1 432
GlifName: i.loclT_R_K_
Width: 162
GlyphClass: 2
Flags: W
HStem: 0 21G<70 92> 480 20G<70 92> 640 48<57 105>
VStem: 57 48<640 688> 70 22<0 500>
AnchorPoint: "Anchor-2" 81 748 basechar 0
AnchorPoint: "Anchor-1" 85 9 basechar 0
AnchorPoint: "Anchor-0" 81 0 basechar 0
LayerCount: 2
Fore
SplineSet
57 640 m 1xf0
 57 688 l 1
 105 688 l 1
 105 640 l 1
 57 640 l 1xf0
92 0 m 1xe8
 70 0 l 1
 70 500 l 1
 92 500 l 1
 92 0 l 1xe8
EndSplineSet
EndChar

StartChar: f_f
Encoding: 65539 -1 433
GlifName: f_f
Width: 613
GlyphClass: 3
Flags: HW
HStem: 0 21G<143 165 333 355> 478 22<30 143 165 333 355 505> 694 22<199.406 310 389.406 520>
VStem: 143 22<0 478 500 658.851> 333 22<0 478 500 658.851>
LayerCount: 2
Fore
SplineSet
143 478 m 1
 30 478 l 1
 30 500 l 1
 143 500 l 1
 143 599 l 2
 143 667.876953125 175.053710938 700 242 700 c 2
 330 700 l 1
 330 678 l 1
 245 678 l 2
 183.793945312 678 165 658.405273438 165 597 c 2
 165 500 l 1
 315 500 l 1
 315 478 l 1
 165 478 l 1
 165 0 l 1
 143 0 l 1
 143 478 l 1
428 478 m 1
 315 478 l 1
 315 500 l 1
 428 500 l 1
 428 599 l 2
 428 667.876953125 460.053710938 700 527 700 c 2
 615 700 l 1
 615 678 l 1
 530 678 l 2
 468.793945312 678 450 658.405273438 450 597 c 2
 450 500 l 1
 600 500 l 1
 600 478 l 1
 450 478 l 1
 450 0 l 1
 428 0 l 1
 428 478 l 1
EndSplineSet
LCarets2: 1 0
Ligature2: "'liga' Standard Ligatures in Latin lookup 6 subtable" f f
EndChar

StartChar: f_f_i
Encoding: 65540 -1 434
GlifName: f_f_i
Width: 777
GlyphClass: 3
Flags: HW
HStem: 0 21G<143 165 333 355 523 545> 478 22<30 143 165 333 355 523> 610 32<518 550> 694 22<199.406 270 389.406 480>
VStem: 143 22<0 478 500 658.851> 333 22<0 478 500 658.851> 523 22<0 478 610 642>
CounterMasks: 1 0e
LayerCount: 2
Fore
SplineSet
143 478 m 1
 30 478 l 1
 30 500 l 1
 143 500 l 1
 143 599 l 2
 143 667.876953125 175.053710938 700 242 700 c 2
 330 700 l 1
 330 678 l 1
 245 678 l 2
 183.793945312 678 165 658.405273438 165 597 c 2
 165 500 l 1
 315 500 l 1
 315 478 l 1
 165 478 l 1
 165 0 l 1
 143 0 l 1
 143 478 l 1
428 478 m 1
 315 478 l 1
 315 500 l 1
 428 500 l 1
 428 599 l 2
 428 667.876953125 460.053710938 700 527 700 c 2
 615 700 l 1
 615 678 l 1
 530 678 l 2
 468.793945312 678 450 658.405273438 450 597 c 2
 450 500 l 1
 684 500 l 1
 684 478 l 1
 450 478 l 1
 450 0 l 1
 428 0 l 1
 428 478 l 1
679 610 m 1
 679 642 l 1
 711 642 l 1
 711 610 l 1
 679 610 l 1
706 0 m 1
 684 0 l 1
 684 500 l 1
 706 500 l 1
 706 0 l 1
EndSplineSet
LCarets2: 2 0 0
Ligature2: "'liga' Standard Ligatures in Latin lookup 6 subtable" f f i
EndChar

StartChar: f_f_j
Encoding: 65541 -1 435
GlifName: f_f_j
Width: 777
GlyphClass: 3
Flags: HW
HStem: -200 22<348 497.072> 0 21G<143 165 338 360> 478 22<30 143 165 338 360 510> 610 32<505 537> 694 22<199.406 270 394.406 485>
VStem: 143 22<0 478 500 658.851> 338 22<0 478 500 658.851> 510 22<-165.35 478 610 642>
LayerCount: 2
Fore
SplineSet
143 478 m 1
 30 478 l 1
 30 500 l 1
 143 500 l 1
 143 599 l 2
 143 667.876953125 175.053710938 700 242 700 c 2
 330 700 l 1
 330 678 l 1
 245 678 l 2
 183.793945312 678 165 658.405273438 165 597 c 2
 165 500 l 1
 315 500 l 1
 315 478 l 1
 165 478 l 1
 165 0 l 1
 143 0 l 1
 143 478 l 1
428 478 m 1
 315 478 l 1
 315 500 l 1
 428 500 l 1
 428 599 l 2
 428 667.876953125 460.053710938 700 527 700 c 2
 615 700 l 1
 615 678 l 1
 530 678 l 2
 468.793945312 678 450 658.405273438 450 597 c 2
 450 500 l 1
 684 500 l 1
 684 478 l 1
 450 478 l 1
 450 0 l 1
 428 0 l 1
 428 478 l 1
679 610 m 1
 679 642 l 1
 711 642 l 1
 711 610 l 1
 679 610 l 1
639 -200 m 2
 562 -200 l 1
 562 -178 l 1
 636 -178 l 2
 670 -178 684 -163 684 -128 c 2
 684 500 l 1
 706 500 l 1
 706 -127 l 2
 706 -177.744140625 681.900390625 -200 639 -200 c 2
EndSplineSet
LCarets2: 2 0 0
Ligature2: "'dlig' Discretionary Ligatures in Latin lookup 5 subtable" f f j
EndChar

StartChar: f_f_l
Encoding: 65542 -1 436
GlifName: f_f_l
Width: 767
GlyphClass: 3
Flags: HW
HStem: 0 21G<143 165 333 355 523 545> 478 22<30 143 165 333 355 459> 694 22<199.406 310 389.406 523>
VStem: 143 22<0 478 500 658.851> 333 22<0 478 500 658.851> 523 22<0 694>
CounterMasks: 1 1c
LayerCount: 2
Fore
SplineSet
143 478 m 1
 30 478 l 1
 30 500 l 1
 143 500 l 1
 143 599 l 2
 143 667.876953125 175.053710938 700 242 700 c 2
 330 700 l 1
 330 678 l 1
 245 678 l 2
 183.793945312 678 165 658.405273438 165 597 c 2
 165 500 l 1
 315 500 l 1
 315 478 l 1
 165 478 l 1
 165 0 l 1
 143 0 l 1
 143 478 l 1
428 478 m 1
 315 478 l 1
 315 500 l 1
 428 500 l 1
 428 599 l 2
 428 667.876953125 460.053710938 700 527 700 c 2
 679 700 l 1
 679 678 l 1
 530 678 l 2
 468.793945312 678 450 658.405273438 450 597 c 2
 450 500 l 1
 600 500 l 1
 600 478 l 1
 450 478 l 1
 450 0 l 1
 428 0 l 1
 428 478 l 1
701 0 m 1
 679 0 l 1
 679 700 l 1
 701 700 l 1
 701 0 l 1
EndSplineSet
LCarets2: 2 0 0
Ligature2: "'liga' Standard Ligatures in Latin lookup 6 subtable" f f l
EndChar

StartChar: f_f_t
Encoding: 65543 -1 437
GlifName: f_f_t
Width: 925
GlyphClass: 3
Flags: HW
HStem: 0 22<574.169 711> 478 22<30 143 165 333 355 523 545 695> 694 22<199.406 270 389.406 480>
VStem: 143 22<0 478 500 658.851> 333 22<0 478 500 658.851> 523 22<51.5164 478 500 652>
CounterMasks: 1 1c
LayerCount: 2
Fore
SplineSet
143 478 m 1
 30 478 l 1
 30 500 l 1
 143 500 l 1
 143 599 l 2
 143 667.876953125 175.053710938 700 242 700 c 2
 330 700 l 1
 330 678 l 1
 245 678 l 2
 183.793945312 678 165 658.405273438 165 597 c 2
 165 500 l 1
 315 500 l 1
 315 478 l 1
 165 478 l 1
 165 0 l 1
 143 0 l 1
 143 478 l 1
428 478 m 1
 315 478 l 1
 315 500 l 1
 428 500 l 1
 428 599 l 2
 428 667.876953125 460.053710938 700 527 700 c 2
 615 700 l 1
 615 678 l 1
 530 678 l 2
 468.793945312 678 450 658.405273438 450 597 c 2
 450 500 l 1
 600 500 l 1
 600 478 l 1
 450 478 l 1
 450 0 l 1
 428 0 l 1
 428 478 l 1
713 478 m 1
 600 478 l 1
 600 500 l 1
 713 500 l 1
 713 607 l 1
 735 612 l 1
 735 500 l 1
 885 500 l 1
 885 478 l 1
 735 478 l 1
 735 93 l 2
 735 48 761 22 806 22 c 2
 885 22 l 1
 885 0 l 1
 801 0 l 2
 748.01171875 0 713 35.01171875 713 88 c 2
 713 478 l 1
EndSplineSet
LCarets2: 2 0 0
Ligature2: "'dlig' Discretionary Ligatures in Latin lookup 5 subtable" f f t
EndChar

StartChar: f_i
Encoding: 65544 -1 438
GlifName: f_i
Width: 492
GlyphClass: 3
Flags: HW
HStem: 0 21G<143 165 333 355> 478 22<30 143 165 333> 610 32<328 360> 694 22<199.406 290>
VStem: 143 22<0 478 500 658.851> 333 22<0 478 610 642>
LayerCount: 2
Fore
SplineSet
143 478 m 1
 30 478 l 1
 30 500 l 1
 143 500 l 1
 143 599 l 2
 143 667.876953125 175.053710938 700 242 700 c 2
 330 700 l 1
 330 678 l 1
 245 678 l 2
 183.793945312 678 165 658.405273438 165 597 c 2
 165 500 l 1
 399 500 l 1
 399 478 l 1
 165 478 l 1
 165 0 l 1
 143 0 l 1
 143 478 l 1
394 610 m 1
 394 642 l 1
 426 642 l 1
 426 610 l 1
 394 610 l 1
421 0 m 1
 399 0 l 1
 399 500 l 1
 421 500 l 1
 421 0 l 1
EndSplineSet
LCarets2: 1 0
Ligature2: "'liga' Standard Ligatures in Latin lookup 6 subtable" f i
EndChar

StartChar: f_j
Encoding: 65545 -1 439
GlifName: f_j
Width: 492
GlyphClass: 3
Flags: HW
HStem: -200 22<171 320.072> 0 21G<143 165> 478 22<30 143 165 333> 610 32<328 360> 694 22<199.406 290>
VStem: 143 22<0 478 500 658.851> 333 22<-165.35 478 610 642>
LayerCount: 2
Fore
SplineSet
143 478 m 1
 30 478 l 1
 30 500 l 1
 143 500 l 1
 143 599 l 2
 143 667.876953125 175.053710938 700 242 700 c 2
 330 700 l 1
 330 678 l 1
 245 678 l 2
 183.793945312 678 165 658.405273438 165 597 c 2
 165 500 l 1
 399 500 l 1
 399 478 l 1
 165 478 l 1
 165 0 l 1
 143 0 l 1
 143 478 l 1
394 610 m 1
 394 642 l 1
 426 642 l 1
 426 610 l 1
 394 610 l 1
354 -200 m 2
 277 -200 l 1
 277 -178 l 1
 351 -178 l 2
 385 -178 399 -163 399 -128 c 2
 399 500 l 1
 421 500 l 1
 421 -127 l 2
 421 -177.744140625 396.900390625 -200 354 -200 c 2
EndSplineSet
LCarets2: 1 0
Ligature2: "'dlig' Discretionary Ligatures in Latin lookup 5 subtable" f j
EndChar

StartChar: f_l
Encoding: 65546 -1 440
GlifName: f_l
Width: 482
GlyphClass: 3
Flags: HW
HStem: 0 21G<143 165 333 355> 478 22<30 143 165 269> 694 22<199.406 333>
VStem: 143 22<0 478 500 658.851> 333 22<0 694>
LayerCount: 2
Fore
SplineSet
143 478 m 1
 30 478 l 1
 30 500 l 1
 143 500 l 1
 143 599 l 2
 143 667.876953125 175.053710938 700 242 700 c 2
 394 700 l 1
 394 678 l 1
 245 678 l 2
 183.793945312 678 165 658.405273438 165 597 c 2
 165 500 l 1
 315 500 l 1
 315 478 l 1
 165 478 l 1
 165 0 l 1
 143 0 l 1
 143 478 l 1
416 0 m 1
 394 0 l 1
 394 700 l 1
 416 700 l 1
 416 0 l 1
EndSplineSet
LCarets2: 1 0
Ligature2: "'liga' Standard Ligatures in Latin lookup 6 subtable" f l
EndChar

StartChar: f_t
Encoding: 65547 -1 441
GlifName: f_t
Width: 640
GlyphClass: 3
Flags: HW
HStem: 0 22<384.169 521> 478 22<30 143 165 333 355 505> 694 22<199.406 290>
VStem: 143 22<0 478 500 658.851> 333 22<51.5164 478 500 652>
LayerCount: 2
Fore
SplineSet
143 478 m 1
 30 478 l 1
 30 500 l 1
 143 500 l 1
 143 599 l 2
 143 667.876953125 175.053710938 700 242 700 c 2
 330 700 l 1
 330 678 l 1
 245 678 l 2
 183.793945312 678 165 658.405273438 165 597 c 2
 165 500 l 1
 315 500 l 1
 315 478 l 1
 165 478 l 1
 165 0 l 1
 143 0 l 1
 143 478 l 1
428 478 m 1
 315 478 l 1
 315 500 l 1
 428 500 l 1
 428 607 l 1
 450 612 l 1
 450 500 l 1
 600 500 l 1
 600 478 l 1
 450 478 l 1
 450 93 l 2
 450 48 476 22 521 22 c 2
 600 22 l 1
 600 0 l 1
 516 0 l 2
 463.01171875 0 428 35.01171875 428 88 c 2
 428 478 l 1
EndSplineSet
LCarets2: 1 0
Ligature2: "'dlig' Discretionary Ligatures in Latin lookup 5 subtable" f t
EndChar

StartChar: t_t
Encoding: 65548 -1 442
GlifName: t_t
Width: 650
GlyphClass: 3
Flags: HW
HStem: 0 22<174.169 251 364.169 501> 478 22<10 123 145 313 335 485>
VStem: 123 22<51.5164 478 500 652> 313 22<51.5164 478 500 652>
LayerCount: 2
Fore
SplineSet
153 478 m 1
 40 478 l 1
 40 500 l 1
 153 500 l 1
 153 607 l 1
 175 612 l 1
 175 500 l 1
 325 500 l 1
 325 478 l 1
 175 478 l 1
 175 93 l 2
 175 48 201 22 246 22 c 2
 325 22 l 1
 325 0 l 1
 241 0 l 2
 188.01171875 0 153 35.01171875 153 88 c 2
 153 478 l 1
438 478 m 1
 325 478 l 1
 325 500 l 1
 438 500 l 1
 438 607 l 1
 460 612 l 1
 460 500 l 1
 610 500 l 1
 610 478 l 1
 460 478 l 1
 460 93 l 2
 460 48 486 22 531 22 c 2
 610 22 l 1
 610 0 l 1
 526 0 l 2
 473.01171875 0 438 35.01171875 438 88 c 2
 438 478 l 1
EndSplineSet
LCarets2: 1 0
Ligature2: "'dlig' Discretionary Ligatures in Latin lookup 5 subtable" t t
EndChar

StartChar: zero.zero
Encoding: 65549 -1 443
GlifName: zero.zero
Width: 604
GlyphClass: 2
Flags: W
HStem: -16 22<242.11 360.933> 694 22<243.067 362.082>
VStem: 50 22<241.831 458.116> 532 22<243.351 459.531>
LayerCount: 2
Fore
SplineSet
302 716 m 0
 447 716 554 570 554 351 c 0
 554 131 447 -16 302 -16 c 0
 157 -16 50 131 50 351 c 0
 50 570 157 716 302 716 c 0
302 694 m 0
 170 694 72 557 72 351 c 0
 72 273 86 206 110 151 c 1
 499 540 l 1
 459 636 388 694 302 694 c 0
302 6 m 0
 434 6 532 144 532 351 c 0
 532 413 523 469 507 516 c 1
 120 129 l 1
 162 51 226 6 302 6 c 0
EndSplineSet
EndChar

StartChar: uni2323.blackCircled
Encoding: 65550 -1 444
GlifName: uni2323.blackC_ircled
Width: 764
GlyphClass: 3
Flags: W
HStem: 18 123<283.57 481.314>
VStem: 50 124<251.406 349> 310 142<414 510> 590 124<251.406 349>
LayerCount: 2
Fore
SplineSet
383 18 m 0
 199 18 50 167 50 350 c 0
 50 532 199 682 383 682 c 0
 565 682 714 532 714 350 c 0
 714 167 565 18 383 18 c 0
310 510 m 1
 288 510 l 1
 288 414 l 1
 310 414 l 1
 310 510 l 1
474 510 m 1
 452 510 l 1
 452 414 l 1
 474 414 l 1
 474 510 l 1
590 349 m 1
 568 349 l 1
 568 248 484 163 383 163 c 0
 281 163 196 248 196 349 c 1
 174 349 l 1
 174 226 257 141 383 141 c 0
 507 141 590 226 590 349 c 1
EndSplineSet
Ligature2: "'ccmp' Glyph Composition/Decomposition in Latin lookup 8 subtable" underscore b l a c k s m i l e
EndChar

StartChar: uni0338.001
Encoding: 65551 -1 445
GlifName: uni0338.001
Width: 20
GlyphClass: 4
Flags: W
HStem: -5 21G<-502 -468.799>
AnchorPoint: "Anchor-3" -271 330 mark 0
LayerCount: 2
Fore
SplineSet
-502 7 m 1
 -48 646 l 1
 -30 633 l 1
 -483 -5 l 1
 -502 7 l 1
EndSplineSet
EndChar

StartChar: dash
Encoding: 65552 -1 446
GlifName: dash
Width: 1516
GlyphClass: 3
Flags: W
HStem: 273 22<58 1458>
LayerCount: 2
Fore
SplineSet
58 273 m 1
 58 295 l 1
 1458 295 l 1
 1458 273 l 1
 58 273 l 1
EndSplineSet
LCarets2: 1 0
Ligature2: "'ccmp' Glyph Composition/Decomposition in Latin lookup 8 subtable" emdash emdash
EndChar

StartChar: quotesingle
Encoding: 39 39 447
GlifName: quotesingle
Width: 80
Flags: W
HStem: 462 238<29 51>
VStem: 29 22<462 700>
LayerCount: 2
Fore
SplineSet
29 462 m 5
 29 700 l 5
 51 700 l 5
 51 462 l 5
 29 462 l 5
EndSplineSet
EndChar

StartChar: Ohorn
Encoding: 416 416 448
GlifName: O_horn
Width: 793
Flags: HW
HStem: -16 22<311.694 482.083> 692 22<307.336 397 622 652.312>
VStem: 50 22<255.627 443.741> 660 22<721.809 763> 721 22<255.627 443.741>
AnchorPoint: "Anchor-0" 397 0 basechar 0
AnchorPoint: "Anchor-1" 397 0 basechar 0
AnchorPoint: "Anchor-2" 397 716 basechar 0
AnchorPoint: "Anchor-3" 397 350 basechar 0
AnchorPoint: "Anchor-4" 501 700 basechar 0
LayerCount: 2
Fore
SplineSet
72 350 m 0
 72 144 199.719726563 6 397 6 c 0
 593.225585938 6 721 144 721 350 c 0
 721 555 593.225585938 692 397 692 c 0
 199.719726563 692 72 555 72 350 c 0
50 350 m 0
 50 568 189.026367188 714 397 714 c 0
 605.052734375 714 743 568 743 350 c 0
 743 130 605.052734375 -16 397 -16 c 0
 189.026367188 -16 50 130 50 350 c 0
499 700 m 1
 682 700 l 2
 719 700 720 722.708984375 720 739 c 2
 720 763 l 1
 742 763 l 1
 742 736 l 2
 742 701.155576509 725 680 682 680 c 2
 499 680 l 1
 499 700 l 1
EndSplineSet
EndChar

StartChar: ohorn
Encoding: 417 417 449
GlifName: ohorn
Width: 596
Flags: HW
HStem: -16 22<225.185 370.815> 494 22<225.185 298 454 484.312>
VStem: 46 22<173.637 327.829> 492 22<523.809 563> 528 22<173.637 327.829>
AnchorPoint: "Anchor-0" 298 0 basechar 0
AnchorPoint: "Anchor-1" 298 -6 basechar 0
AnchorPoint: "Anchor-2" 298 540 basechar 0
LayerCount: 2
Fore
SplineSet
46 251 m 0
 46 410 147.02734375 516 298 516 c 0
 448.97265625 516 550 410 550 251 c 0
 550 91 448.97265625 -16 298 -16 c 0
 147.02734375 -16 46 91 46 251 c 0
68 251 m 0
 68 104 160 6 298 6 c 0
 436 6 528 104 528 251 c 0
 528 397 436 494 298 494 c 0
 160 494 68 397 68 251 c 0
388 500 m 1
 494 500 l 2
 531 500 532 522.708984375 532 539 c 2
 532 563 l 1
 554 563 l 1
 554 536 l 2
 554 501.155576509 537 480 494 480 c 2
 388 480 l 1
 388 500 l 1
EndSplineSet
EndChar

StartChar: uni1EA4
Encoding: 7844 7844 455
GlifName: uni1E_A_4
Width: 694
Flags: H
HStem: 0 21G<26 60.7667 633.233 668> 238 22<146 545> 680 20G<327.143 366.857> 768 148 968 148
VStem: 188 318 275 123
LayerCount: 2
Fore
SplineSet
363 916 m 5
 506 768 l 5
 475 768 l 5
 347 901 l 5
 219 768 l 5
 188 768 l 5
 331 916 l 5
 363 916 l 5
541 850 m 5
 511 850 l 5
 636 998 l 5
 667 998 l 5
 541 850 l 5
EndSplineSet
Refer: 33 65 N 1 0 0 1 0 0 2
EndChar

StartChar: uni1EA6
Encoding: 7846 7846 457
GlifName: uni1E_A_6
Width: 694
Flags: H
HStem: 0 21G<26 60.7667 633.233 668> 238 22<146 545> 680 20G<327.143 366.857> 768 148 968 148
VStem: 188 318 238 123
LayerCount: 2
Fore
SplineSet
363 916 m 5
 506 768 l 5
 475 768 l 5
 347 901 l 5
 219 768 l 5
 188 768 l 5
 331 916 l 5
 363 916 l 5
573 850 m 5
 447 998 l 5
 478 998 l 5
 603 850 l 5
 573 850 l 5
EndSplineSet
Refer: 33 65 N 1 0 0 1 0 0 2
EndChar

StartChar: uni1EA8
Encoding: 7848 7848 459
GlifName: uni1E_A_8
Width: 694
Flags: H
HStem: 0 21G<26 60.7667 633.233 668> 238 22<146 545> 680 20G<327.143 366.857> 768 148 1095.6 20.0713<280.259 361.211>
VStem: 188 318 232 19<1045.79 1064.46> 309 20<954 977.343> 381 22<1026.87 1078.51>
LayerCount: 2
Fore
SplineSet
363 916 m 5
 506 768 l 5
 475 768 l 5
 347 901 l 5
 219 768 l 5
 188 768 l 5
 331 916 l 5
 363 916 l 5
551.983398438 991.595703125 m 4
 590.170898438 991.595703125 613 974.536132812 613 946 c 4
 613 904.30859375 541 909.625976562 541 850 c 5
 561 850 l 5
 561 893.431640625 635 894.155273438 635 945 c 4
 635 986.1640625 603.630859375 1011.66699219 552.99609375 1011.66699219 c 4
 507.923828125 1011.66699219 472.046875 985.166992188 464 944 c 5
 483 938 l 5
 490.928710938 973.086914062 514.87890625 991.595703125 551.983398438 991.595703125 c 4
EndSplineSet
Refer: 33 65 N 1 0 0 1 0 0 2
EndChar

StartChar: uni1EAA
Encoding: 7850 7850 461
GlifName: uni1E_A_A_
Width: 694
Flags: H
HStem: 0 21G<26 60.7667 633.233 668> 238 22<146 545> 680 20G<327.143 366.857> 768 148 989 22<353.922 408.283> 1073 22<222.034 282.313>
VStem: 177 21<997.667 1042.3> 188 318 435 22<1046.57 1091.95>
LayerCount: 2
Fore
SplineSet
363 892 m 5
 506 768 l 5
 472 768 l 5
 347 877 l 5
 222 768 l 5
 188 768 l 5
 331 892 l 5
 363 892 l 5
207 929 m 5
 213.31640625 999.524129232 250.598632812 1015 284 1015 c 4
 343.94921875 1015 368.02734375 941 410 941 c 4
 436.826171875 941 459.608398438 959.071347892 465 1014 c 5
 487 1011 l 5
 480.323242188 932.892310049 442.275390625 919 410 919 c 4
 346.848632812 919 338.114257812 993 281 993 c 4
 254.853515625 993 231.861328125 978.056039663 228 925 c 5
 207 929 l 5
EndSplineSet
Refer: 33 65 N 1 0 0 1 0 0 2
EndChar

StartChar: uni1EAE
Encoding: 7854 7854 465
GlifName: uni1E_A_E_
Width: 694
Flags: H
HStem: 0 21G<26 60.7667 633.233 668> 238 22<146 545> 680 20G<327.143 366.857> 797 20<295.08 398.92> 968 148
VStem: 229 23<853.991 896> 275 123 442 23<853.829 896>
LayerCount: 2
Fore
SplineSet
462 906 m 1
 485 906 l 1
 485 834.3203125 430.124023438 787 347 787 c 0
 264.135742188 787 209 834.543945312 209 906 c 1
 232 906 l 1
 232 843.244140625 274.1015625 807 347 807 c 0
 419.8984375 807 462 843.244140625 462 906 c 1
355 938 m 5
 325 938 l 5
 450 1066 l 5
 481 1066 l 5
 355 938 l 5
EndSplineSet
Refer: 33 65 N 1 0 0 1 0 0 2
EndChar

StartChar: uni1EB0
Encoding: 7856 7856 467
GlifName: uni1E_B_0
Width: 694
Flags: H
HStem: 0 21G<26 60.7667 633.233 668> 238 22<146 545> 680 20G<327.143 366.857> 797 20<295.08 398.92> 968 148
VStem: 229 23<853.991 896> 238 123 442 23<853.829 896>
LayerCount: 2
Fore
SplineSet
462 906 m 1
 485 906 l 1
 485 834.3203125 430.124023438 787 347 787 c 0
 264.135742188 787 209 834.543945312 209 906 c 1
 232 906 l 1
 232 843.244140625 274.1015625 807 347 807 c 0
 419.8984375 807 462 843.244140625 462 906 c 1
341 948 m 1
 225 1076 l 1
 256 1076 l 1
 371 948 l 1
 341 948 l 1
EndSplineSet
Refer: 33 65 N 1 0 0 1 0 0 2
EndChar

StartChar: uni1EB2
Encoding: 7858 7858 469
GlifName: uni1E_B_2
Width: 694
Flags: H
HStem: 0 21G<26 60.7667 633.233 668> 238 22<146 545> 680 20G<327.143 366.857> 797 20<295.08 398.92> 1095.6 20.0713<280.259 361.211>
VStem: 229 23<853.991 896> 232 19<1045.79 1064.46> 309 20<954 977.343> 381 22<1026.87 1078.51> 442 23<853.829 896>
LayerCount: 2
Fore
SplineSet
462 906 m 1
 485 906 l 1
 485 834.3203125 430.124023438 787 347 787 c 0
 264.135742188 787 209 834.543945312 209 906 c 1
 232 906 l 1
 232 843.244140625 274.1015625 807 347 807 c 0
 419.8984375 807 462 843.244140625 462 906 c 1
349.983398438 1065.59570312 m 0
 388.170898438 1065.59570312 411 1049.65857873 411 1023 c 0
 411 984.348592122 339 989.278249105 339 934 c 1
 359 934 l 1
 359 974.231414474 433 974.901726974 433 1022 c 0
 433 1061.31168873 401.630859375 1085.66699219 350.99609375 1085.66699219 c 0
 305.923828125 1085.66699219 270.046875 1060.34186338 262 1021 c 1
 281 1015 l 1
 288.928710938 1048.1229368 312.87890625 1065.59570312 349.983398438 1065.59570312 c 0
EndSplineSet
Refer: 33 65 N 1 0 0 1 0 0 2
EndChar

StartChar: uni1EB4
Encoding: 7860 7860 471
GlifName: uni1E_B_4
Width: 694
Flags: H
HStem: 0 21G<26 60.7667 633.233 668> 238 22<146 545> 680 20G<327.143 366.857> 797 20<295.08 398.92> 989 22<353.922 408.283> 1073 22<222.034 282.313>
VStem: 177 21<997.667 1042.3> 229 23<853.991 896> 435 22<1046.57 1091.95> 442 23<853.829 896>
LayerCount: 2
Fore
SplineSet
462 906 m 1
 485 906 l 1
 485 834.3203125 430.124023438 787 347 787 c 0
 264.135742188 787 209 834.543945312 209 906 c 1
 232 906 l 1
 232 843.244140625 274.1015625 807 347 807 c 0
 419.8984375 807 462 843.244140625 462 906 c 1
207 984 m 5
 213.31640625 1062.72460938 250.598632812 1080 284 1080 c 4
 343.94921875 1080 368.02734375 996 410 996 c 4
 440.826171875 996 459.608398438 1016.546875 465 1079 c 5
 487 1076 l 5
 480.323242188 989.40234375 440.275390625 974 410 974 c 4
 346.848632812 974 338.114257812 1058 281 1058 c 4
 254.853515625 1058 231.861328125 1040.85839844 228 980 c 5
 207 984 l 5
EndSplineSet
Refer: 33 65 N 1 0 0 1 0 0 2
EndChar

StartChar: uni1EBE
Encoding: 7870 7870 481
GlifName: uni1E_B_E_
Width: 616
Flags: H
HStem: 0 23<88 576> 351 22<88 484> 678 22<88 560> 768 148 968 148
VStem: 66 22<23 351 373 678> 134 318 245 123
LayerCount: 2
Fore
SplineSet
333 916 m 5
 476 768 l 5
 445 768 l 5
 317 901 l 5
 189 768 l 5
 158 768 l 5
 301 916 l 5
 333 916 l 5
511 850 m 5
 481 850 l 5
 606 998 l 5
 637 998 l 5
 511 850 l 5
EndSplineSet
Refer: 37 69 N 1 0 0 1 0 0 2
EndChar

StartChar: uni1EC0
Encoding: 7872 7872 483
GlifName: uni1E_C_0
Width: 616
Flags: H
HStem: 0 23<88 576> 351 22<88 484> 678 22<88 560> 768 148 968 148
VStem: 66 22<23 351 373 678> 134 318 208 123
LayerCount: 2
Fore
SplineSet
333 916 m 5
 476 768 l 5
 445 768 l 5
 317 901 l 5
 189 768 l 5
 158 768 l 5
 301 916 l 5
 333 916 l 5
543 850 m 5
 417 998 l 5
 448 998 l 5
 573 850 l 5
 543 850 l 5
EndSplineSet
Refer: 37 69 N 1 0 0 1 0 0 2
EndChar

StartChar: uni1EC2
Encoding: 7874 7874 485
GlifName: uni1E_C_2
Width: 616
Flags: H
HStem: 0 23<88 576> 351 22<88 484> 678 22<88 560> 768 148 1095.6 20.0713<250.259 331.211>
VStem: 66 22<23 351 373 678> 134 318 202 19<1045.79 1064.46> 279 20<954 977.343> 351 22<1026.87 1078.51>
LayerCount: 2
Fore
SplineSet
333 916 m 5
 476 768 l 5
 445 768 l 5
 317 901 l 5
 189 768 l 5
 158 768 l 5
 301 916 l 5
 333 916 l 5
521.983398438 991.595703125 m 4
 560.170898438 991.595703125 583 974.536132812 583 946 c 4
 583 904.30859375 511 909.625976562 511 850 c 5
 531 850 l 5
 531 893.431640625 605 894.155273438 605 945 c 4
 605 986.1640625 573.630859375 1011.66699219 522.99609375 1011.66699219 c 4
 477.923828125 1011.66699219 442.046875 985.166992188 434 944 c 5
 453 938 l 5
 460.928710938 973.086914062 484.87890625 991.595703125 521.983398438 991.595703125 c 4
EndSplineSet
Refer: 37 69 N 1 0 0 1 0 0 2
EndChar

StartChar: uni1EC4
Encoding: 7876 7876 487
GlifName: uni1E_C_4
Width: 616
Flags: H
HStem: 0 23<88 576> 351 22<88 484> 678 22<88 560> 768 148 989 22<323.922 378.283> 1073 22<192.034 252.313>
VStem: 66 22<23 351 373 678> 134 318 147 21<997.667 1042.3> 405 22<1046.57 1091.95>
LayerCount: 2
Fore
SplineSet
333 892 m 5
 476 768 l 5
 442 768 l 5
 317 877 l 5
 192 768 l 5
 158 768 l 5
 301 892 l 5
 333 892 l 5
177 929 m 5
 183.31640625 999.524129232 220.598632812 1015 254 1015 c 4
 313.94921875 1015 338.02734375 941 380 941 c 4
 406.826171875 941 429.608398438 959.071347892 435 1014 c 5
 457 1011 l 5
 450.323242188 932.892310049 412.275390625 919 380 919 c 4
 316.848632812 919 308.114257812 993 251 993 c 4
 224.853515625 993 201.861328125 978.056039663 198 925 c 5
 177 929 l 5
EndSplineSet
Refer: 37 69 N 1 0 0 1 0 0 2
EndChar

StartChar: uni1ED0
Encoding: 7888 7888 499
GlifName: uni1E_D_0
Width: 793
Flags: H
HStem: -16 22<311.694 482.083> 692 22<307.336 482.083> 768 148 968 148
VStem: 50 22<255.627 443.741> 238 318 305 123 721 22<255.627 443.741>
LayerCount: 2
Fore
SplineSet
413 916 m 5
 556 768 l 5
 525 768 l 5
 397 901 l 5
 269 768 l 5
 238 768 l 5
 381 916 l 5
 413 916 l 5
591 850 m 5
 561 850 l 5
 686 998 l 5
 717 998 l 5
 591 850 l 5
EndSplineSet
Refer: 47 79 N 1 0 0 1 0 0 2
EndChar

StartChar: uni1ED2
Encoding: 7890 7890 501
GlifName: uni1E_D_2
Width: 793
Flags: H
HStem: -16 22<311.694 482.083> 692 22<307.336 482.083> 768 148 968 148
VStem: 50 22<255.627 443.741> 238 318 268 123 721 22<255.627 443.741>
LayerCount: 2
Fore
SplineSet
413 916 m 5
 556 768 l 5
 525 768 l 5
 397 901 l 5
 269 768 l 5
 238 768 l 5
 381 916 l 5
 413 916 l 5
623 850 m 5
 497 998 l 5
 528 998 l 5
 653 850 l 5
 623 850 l 5
EndSplineSet
Refer: 47 79 N 1 0 0 1 0 0 2
EndChar

StartChar: uni1ED4
Encoding: 7892 7892 503
GlifName: uni1E_D_4
Width: 793
Flags: H
HStem: -16 22<311.694 482.083> 692 22<307.336 482.083> 768 148 1095.6 20.0713<310.259 391.211>
VStem: 50 22<255.627 443.741> 238 318 262 19<1045.79 1064.46> 339 20<954 977.343> 411 22<1026.87 1078.51> 721 22<255.627 443.741>
LayerCount: 2
Fore
SplineSet
413 916 m 5
 556 768 l 5
 525 768 l 5
 397 901 l 5
 269 768 l 5
 238 768 l 5
 381 916 l 5
 413 916 l 5
601.983398438 991.595703125 m 4
 640.170898438 991.595703125 663 974.536132812 663 946 c 4
 663 904.30859375 591 909.625976562 591 850 c 5
 611 850 l 5
 611 893.431640625 685 894.155273438 685 945 c 4
 685 986.1640625 653.630859375 1011.66699219 602.99609375 1011.66699219 c 4
 557.923828125 1011.66699219 522.046875 985.166992188 514 944 c 5
 533 938 l 5
 540.928710938 973.086914062 564.87890625 991.595703125 601.983398438 991.595703125 c 4
EndSplineSet
Refer: 47 79 N 1 0 0 1 0 0 2
EndChar

StartChar: uni1ED6
Encoding: 7894 7894 505
GlifName: uni1E_D_6
Width: 793
Flags: HW
HStem: -16 22<311.694 482.083> 692 22<307.336 482.083> 768 148 989 22<383.922 438.283> 1073 22<252.034 312.313>
VStem: 50 22<255.627 443.741> 207 21<997.667 1042.3> 238 318 465 22<1046.57 1091.95> 721 22<255.627 443.741>
LayerCount: 2
Fore
SplineSet
413 892 m 5
 556 768 l 5
 522 768 l 5
 397 877 l 5
 272 768 l 5
 238 768 l 5
 381 892 l 5
 413 892 l 5
257 929 m 5
 263.31640625 999.524129232 300.598632812 1015 334 1015 c 4
 393.94921875 1015 418.02734375 941 460 941 c 4
 486.826171875 941 509.608398438 959.071347892 515 1014 c 5
 537 1011 l 5
 530.323242188 932.892310049 492.275390625 919 460 919 c 4
 396.848632812 919 388.114257812 993 331 993 c 4
 304.853515625 993 281.861328125 978.056039663 278 925 c 5
 257 929 l 5
EndSplineSet
Refer: 47 79 N 1 0 0 1 0 0 2
EndChar

StartChar: uni0315
Encoding: 789 789 539
GlifName: uni0315
Width: 20
Flags: HW
HStem: 552 148
VStem: -153 123
AnchorPoint: "Anchor-6" -89 816 basemark 0
AnchorPoint: "Anchor-6" -89 500 mark 0
AnchorPoint: "Anchor-2" -89 500 mark 0
LayerCount: 2
Fore
SplineSet
-64 500 m 5
 -89 500 l 1
 -17 668 l 1
 5 668 l 5
 -64 500 l 5
EndSplineSet
EndChar
